<svg width="1920" height="1313" viewBox="0 0 1920 1313" fill="none" xmlns="http://www.w3.org/2000/svg">
<g opacity="0.15">
<path d="M1574.15 678.848C1592.42 673.026 1628.76 654.813 1627.97 628.537C1627.55 614.718 1623.96 605.157 1618.44 598.57C1608.91 587.213 1590.77 584.877 1578.56 593.28C1573.75 596.594 1569.9 601.249 1567.81 607.28C1555.84 641.701 1568.93 678.859 1626.88 678.739" stroke="white" stroke-width="15" stroke-linecap="round"/>
<path d="M1673.57 678.643C1655.27 672.897 1618.85 654.834 1619.54 628.555C1619.91 614.734 1623.45 605.158 1628.95 598.549C1638.43 587.152 1656.56 584.742 1668.8 593.094C1673.63 596.388 1677.49 601.028 1679.62 607.05C1691.72 641.421 1678.79 678.632 1620.84 678.752" stroke="white" stroke-width="15" stroke-linecap="round"/>
<path d="M1414.15 368.847C1432.42 363.025 1468.76 344.813 1467.97 318.537C1467.55 304.718 1463.96 295.156 1458.44 288.57C1448.91 277.212 1430.77 274.877 1418.56 283.28C1413.75 286.594 1409.9 291.249 1407.81 297.279C1395.84 331.7 1408.93 368.858 1466.88 368.739" stroke="white" stroke-width="15" stroke-linecap="round"/>
<path d="M1513.57 368.642C1495.27 362.896 1458.85 344.833 1459.54 318.554C1459.91 304.733 1463.45 295.157 1468.95 288.548C1478.43 277.151 1496.56 274.741 1508.8 283.094C1513.63 286.388 1517.49 291.027 1519.62 297.049C1531.72 331.42 1518.79 368.632 1460.84 368.751" stroke="white" stroke-width="15" stroke-linecap="round"/>
<path d="M235.152 371.847C253.423 366.025 289.765 347.813 288.967 321.537C288.547 307.718 284.961 298.156 279.438 291.57C269.914 280.212 251.773 277.877 239.562 286.28C234.747 289.594 230.904 294.249 228.807 300.279C216.84 334.7 229.931 371.858 287.877 371.739" stroke="white" stroke-width="15" stroke-linecap="round"/>
<path d="M334.566 371.642C316.271 365.896 279.855 347.833 280.544 321.554C280.907 307.733 284.454 298.157 289.949 291.548C299.427 280.151 317.558 277.741 329.803 286.094C334.632 289.388 338.494 294.027 340.616 300.049C352.724 334.42 339.787 371.632 281.84 371.751" stroke="white" stroke-width="15" stroke-linecap="round"/>
<path d="M269.152 964.848C287.423 959.026 323.765 940.813 322.967 914.537C322.547 900.718 318.961 891.157 313.438 884.57C303.914 873.213 285.773 870.877 273.562 879.28C268.747 882.594 264.904 887.249 262.807 893.28C250.84 927.701 263.931 964.859 321.877 964.739" stroke="white" stroke-width="15" stroke-linecap="round"/>
<path d="M368.566 964.643C350.271 958.897 313.855 940.834 314.544 914.555C314.907 900.734 318.454 891.158 323.949 884.549C333.427 873.152 351.558 870.742 363.803 879.094C368.632 882.388 372.494 887.028 374.616 893.05C386.724 927.421 373.787 964.632 315.84 964.752" stroke="white" stroke-width="15" stroke-linecap="round"/>
<path d="M75.1521 1105.85C93.4227 1100.03 129.765 1081.81 128.967 1055.54C128.547 1041.72 124.961 1032.16 119.438 1025.57C109.914 1014.21 91.773 1011.88 79.5625 1020.28C74.747 1023.59 70.9038 1028.25 68.8072 1034.28C56.8404 1068.7 69.931 1105.86 127.877 1105.74" stroke="white" stroke-width="15" stroke-linecap="round"/>
<path d="M174.566 1105.64C156.271 1099.9 119.855 1081.83 120.544 1055.55C120.907 1041.73 124.454 1032.16 129.949 1025.55C139.427 1014.15 157.558 1011.74 169.803 1020.09C174.632 1023.39 178.494 1028.03 180.616 1034.05C192.724 1068.42 179.787 1105.63 121.84 1105.75" stroke="white" stroke-width="15" stroke-linecap="round"/>
<path d="M520.152 1145.85C538.423 1140.03 574.765 1121.81 573.967 1095.54C573.547 1081.72 569.961 1072.16 564.438 1065.57C554.914 1054.21 536.773 1051.88 524.562 1060.28C519.747 1063.59 515.904 1068.25 513.807 1074.28C501.84 1108.7 514.931 1145.86 572.877 1145.74" stroke="white" stroke-width="15" stroke-linecap="round"/>
<path d="M619.566 1145.64C601.271 1139.9 564.855 1121.83 565.544 1095.55C565.907 1081.73 569.454 1072.16 574.949 1065.55C584.427 1054.15 602.558 1051.74 614.803 1060.09C619.632 1063.39 623.494 1068.03 625.616 1074.05C637.724 1108.42 624.787 1145.63 566.84 1145.75" stroke="white" stroke-width="15" stroke-linecap="round"/>
<path d="M1231.15 1070.85C1249.42 1065.03 1285.76 1046.81 1284.97 1020.54C1284.55 1006.72 1280.96 997.157 1275.44 990.57C1265.91 979.213 1247.77 976.877 1235.56 985.28C1230.75 988.594 1226.9 993.249 1224.81 999.28C1212.84 1033.7 1225.93 1070.86 1283.88 1070.74" stroke="white" stroke-width="15" stroke-linecap="round"/>
<path d="M1330.57 1070.64C1312.27 1064.9 1275.85 1046.83 1276.54 1020.55C1276.91 1006.73 1280.45 997.158 1285.95 990.549C1295.43 979.152 1313.56 976.742 1325.8 985.094C1330.63 988.388 1334.49 993.028 1336.62 999.05C1348.72 1033.42 1335.79 1070.63 1277.84 1070.75" stroke="white" stroke-width="15" stroke-linecap="round"/>
<path d="M889.152 348.848C907.423 343.026 943.765 324.813 942.967 298.537C942.547 284.718 938.961 275.157 933.438 268.57C923.914 257.212 905.773 254.877 893.562 263.28C888.747 266.594 884.904 271.249 882.807 277.28C870.84 311.7 883.931 348.858 941.877 348.739" stroke="white" stroke-width="15" stroke-linecap="round"/>
<path d="M988.566 348.643C970.271 342.896 933.855 324.833 934.544 298.554C934.907 284.734 938.454 275.157 943.949 268.549C953.427 257.152 971.558 254.741 983.803 263.094C988.632 266.388 992.494 271.027 994.616 277.049C1006.72 311.42 993.787 348.632 935.84 348.751" stroke="white" stroke-width="15" stroke-linecap="round"/>
<path d="M1678.15 1070.85C1696.42 1065.03 1732.76 1046.81 1731.97 1020.54C1731.55 1006.72 1727.96 997.157 1722.44 990.57C1712.91 979.213 1694.77 976.877 1682.56 985.28C1677.75 988.594 1673.9 993.249 1671.81 999.28C1659.84 1033.7 1672.93 1070.86 1730.88 1070.74" stroke="white" stroke-width="15" stroke-linecap="round"/>
<path d="M1777.57 1070.64C1759.27 1064.9 1722.85 1046.83 1723.54 1020.55C1723.91 1006.73 1727.45 997.158 1732.95 990.549C1742.43 979.152 1760.56 976.742 1772.8 985.094C1777.63 988.388 1781.49 993.028 1783.62 999.05C1795.72 1033.42 1782.79 1070.63 1724.84 1070.75" stroke="white" stroke-width="15" stroke-linecap="round"/>
<path d="M564.152 840.848C582.423 835.026 618.765 816.813 617.967 790.537C617.547 776.718 613.961 767.157 608.438 760.57C598.914 749.213 580.773 746.877 568.562 755.28C563.747 758.594 559.904 763.249 557.807 769.28C545.84 803.701 558.931 840.859 616.877 840.739" stroke="white" stroke-width="15" stroke-linecap="round"/>
<path d="M663.566 840.643C645.271 834.897 608.855 816.834 609.544 790.555C609.907 776.734 613.454 767.158 618.949 760.549C628.427 749.152 646.558 746.742 658.803 755.094C663.632 758.388 667.494 763.028 669.616 769.05C681.724 803.421 668.787 840.632 610.84 840.752" stroke="white" stroke-width="15" stroke-linecap="round"/>
<path d="M134.152 730.848C152.423 725.026 188.765 706.813 187.967 680.537C187.547 666.718 183.961 657.157 178.438 650.57C168.914 639.213 150.773 636.877 138.562 645.28C133.747 648.594 129.904 653.249 127.807 659.28C115.84 693.701 128.931 730.859 186.877 730.739" stroke="white" stroke-width="15" stroke-linecap="round"/>
<path d="M233.566 730.643C215.271 724.897 178.855 706.834 179.544 680.555C179.907 666.734 183.454 657.158 188.949 650.549C198.427 639.152 216.558 636.742 228.803 645.094C233.632 648.388 237.494 653.028 239.616 659.05C251.724 693.421 238.787 730.632 180.84 730.752" stroke="white" stroke-width="15" stroke-linecap="round"/>
<path d="M-29.8479 503.847C-11.5773 498.025 24.7645 479.813 23.9667 453.537C23.5471 439.718 19.9609 430.156 14.438 423.57C4.91398 412.212 -13.227 409.877 -25.4375 418.28C-30.253 421.594 -34.0962 426.249 -36.1928 432.279C-48.1596 466.7 -35.069 503.858 22.8773 503.739" stroke="white" stroke-width="15" stroke-linecap="round"/>
<path d="M69.5657 503.642C51.2712 497.896 14.8547 479.833 15.5442 453.554C15.9069 439.733 19.4536 430.157 24.9494 423.548C34.4265 412.151 52.5578 409.741 64.8028 418.094C69.6318 421.388 73.4942 426.027 75.6157 432.049C87.7242 466.42 74.7868 503.632 16.8405 503.751" stroke="white" stroke-width="15" stroke-linecap="round"/>
<path d="M495.152 228.848C513.423 223.026 549.765 204.813 548.967 178.537C548.547 164.718 544.961 155.157 539.438 148.571C529.914 137.213 511.773 134.877 499.562 143.28C494.747 146.594 490.904 151.249 488.807 157.28C476.84 191.701 489.931 228.859 547.877 228.739" stroke="white" stroke-width="15" stroke-linecap="round"/>
<path d="M594.566 228.643C576.271 222.897 539.855 204.834 540.544 178.555C540.907 164.734 544.454 155.158 549.949 148.549C559.427 137.152 577.558 134.742 589.803 143.094C594.632 146.388 598.494 151.028 600.616 157.05C612.724 191.421 599.787 228.632 541.84 228.752" stroke="white" stroke-width="15" stroke-linecap="round"/>
<path d="M65.1521 118.847C83.4227 113.025 119.765 94.8125 118.967 68.5368C118.547 54.7176 114.961 45.1563 109.438 38.57C99.914 27.2123 81.773 24.8767 69.5625 33.2797C64.747 36.5936 60.9038 41.2487 58.8072 47.2793C46.8404 81.7001 59.931 118.858 117.877 118.739" stroke="white" stroke-width="15" stroke-linecap="round"/>
<path d="M164.566 118.642C146.271 112.896 109.855 94.8328 110.544 68.554C110.907 54.7333 114.454 45.1572 119.949 38.5483C129.427 27.1514 147.558 24.7411 159.803 33.0937C164.632 36.3878 168.494 41.0269 170.616 47.0489C182.724 81.4201 169.787 118.632 111.84 118.751" stroke="white" stroke-width="15" stroke-linecap="round"/>
<path d="M1808.15 263.848C1826.42 258.026 1862.76 239.813 1861.97 213.537C1861.55 199.718 1857.96 190.157 1852.44 183.571C1842.91 172.213 1824.77 169.877 1812.56 178.28C1807.75 181.594 1803.9 186.249 1801.81 192.28C1789.84 226.701 1802.93 263.859 1860.88 263.739" stroke="white" stroke-width="15" stroke-linecap="round"/>
<path d="M1907.57 263.643C1889.27 257.897 1852.85 239.834 1853.54 213.555C1853.91 199.734 1857.45 190.158 1862.95 183.549C1872.43 172.152 1890.56 169.742 1902.8 178.094C1907.63 181.388 1911.49 186.028 1913.62 192.05C1925.72 226.421 1912.79 263.632 1854.84 263.752" stroke="white" stroke-width="15" stroke-linecap="round"/>
<path d="M1378.15 153.847C1396.42 148.025 1432.76 129.813 1431.97 103.537C1431.55 89.7176 1427.96 80.1563 1422.44 73.57C1412.91 62.2123 1394.77 59.8767 1382.56 68.2797C1377.75 71.5936 1373.9 76.2487 1371.81 82.2793C1359.84 116.7 1372.93 153.858 1430.88 153.739" stroke="white" stroke-width="15" stroke-linecap="round"/>
<path d="M1477.57 153.642C1459.27 147.896 1422.85 129.833 1423.54 103.554C1423.91 89.7333 1427.45 80.1572 1432.95 73.5483C1442.43 62.1514 1460.56 59.7411 1472.8 68.0937C1477.63 71.3878 1481.49 76.0269 1483.62 82.0489C1495.72 116.42 1482.79 153.632 1424.84 153.751" stroke="white" stroke-width="15" stroke-linecap="round"/>
<path d="M1880.15 651.848C1898.42 646.026 1934.76 627.813 1933.97 601.537C1933.55 587.718 1929.96 578.157 1924.44 571.57C1914.91 560.213 1896.77 557.877 1884.56 566.28C1879.75 569.594 1875.9 574.249 1873.81 580.28C1861.84 614.701 1874.93 651.859 1932.88 651.739" stroke="white" stroke-width="15" stroke-linecap="round"/>
<path d="M1979.57 651.643C1961.27 645.897 1924.85 627.834 1925.54 601.555C1925.91 587.734 1929.45 578.158 1934.95 571.549C1944.43 560.152 1962.56 557.742 1974.8 566.094C1979.63 569.388 1983.49 574.028 1985.62 580.05C1997.72 614.421 1984.79 651.632 1926.84 651.752" stroke="white" stroke-width="15" stroke-linecap="round"/>
<path d="M-39.8479 912.848C-21.5773 907.026 14.7645 888.813 13.9667 862.538C13.5471 848.719 9.96093 839.157 4.43802 832.571C-5.08602 821.213 -23.227 818.878 -35.4375 827.281C-40.253 830.595 -44.0962 835.25 -46.1928 841.28C-58.1596 875.701 -45.069 912.859 12.8773 912.74" stroke="white" stroke-width="15" stroke-linecap="round"/>
<path d="M59.5657 912.644C41.2712 906.897 4.85469 888.834 5.54424 862.555C5.9069 848.734 9.45363 839.158 14.9494 832.549C24.4265 821.153 42.5578 818.742 54.8028 827.095C59.6318 830.389 63.4942 835.028 65.6157 841.05C77.7242 875.421 64.7868 912.633 6.84048 912.752" stroke="white" stroke-width="15" stroke-linecap="round"/>
<path d="M1884.15 1214.85C1902.42 1209.03 1938.76 1190.81 1937.97 1164.54C1937.55 1150.72 1933.96 1141.16 1928.44 1134.57C1918.91 1123.21 1900.77 1120.88 1888.56 1129.28C1883.75 1132.59 1879.9 1137.25 1877.81 1143.28C1865.84 1177.7 1878.93 1214.86 1936.88 1214.74" stroke="white" stroke-width="15" stroke-linecap="round"/>
<path d="M1482.15 1260.85C1500.42 1255.03 1536.76 1236.81 1535.97 1210.54C1535.55 1196.72 1531.96 1187.16 1526.44 1180.57C1516.91 1169.21 1498.77 1166.88 1486.56 1175.28C1481.75 1178.59 1477.9 1183.25 1475.81 1189.28C1463.84 1223.7 1476.93 1260.86 1534.88 1260.74" stroke="white" stroke-width="15" stroke-linecap="round"/>
<path d="M1581.57 1260.64C1563.27 1254.9 1526.85 1236.83 1527.54 1210.56C1527.91 1196.73 1531.45 1187.16 1536.95 1180.55C1546.43 1169.15 1564.56 1166.74 1576.8 1175.09C1581.63 1178.39 1585.49 1183.03 1587.62 1189.05C1599.72 1223.42 1586.79 1260.63 1528.84 1260.75" stroke="white" stroke-width="15" stroke-linecap="round"/>
<path d="M1736 311.712C1736 326.946 1725.25 346.212 1706 353.49V340.53C1724.92 329.55 1729.81 303 1715.32 303H1706V291H1717.47C1730.34 291 1736 300.204 1736 311.712ZM1706 371.562V381H1610V371.562C1613.98 371.562 1616 368.328 1616 364.344V287.442C1608.91 284.028 1604 276.918 1604 268.542C1604 255 1616.5 245.484 1629.43 247.536C1635.71 241.926 1644.44 240.252 1652.2 242.784C1657 238.932 1661.86 237 1667.69 237C1676.8 237 1685.52 241.59 1690.12 248.004C1701.21 248.628 1710.04 257.85 1710.04 269.094C1710.04 277.14 1706.64 284.154 1699.99 287.718V364.35C1700 368.328 1702.02 371.562 1706 371.562ZM1640 303C1640 299.688 1637.32 297 1634 297C1630.68 297 1628 299.688 1628 303V351C1628 354.312 1630.68 357 1634 357C1637.32 357 1640 354.312 1640 351V303ZM1664 303C1664 299.688 1661.32 297 1658 297C1654.68 297 1652 299.688 1652 303V351C1652 354.312 1654.68 357 1658 357C1661.32 357 1664 354.312 1664 351V303ZM1688 303C1688 299.688 1685.32 297 1682 297C1678.68 297 1676 299.688 1676 303V351C1676 354.312 1678.68 357 1682 357C1685.32 357 1688 354.312 1688 351V303ZM1700.59 269.094C1700.59 262.65 1695.36 257.43 1688.92 257.43C1687.47 257.43 1686.07 257.7 1684.79 258.186C1682.6 251.382 1676.22 246.456 1668.68 246.456C1662.55 246.456 1657.17 249.72 1654.21 254.61C1651.75 252.42 1648.51 251.094 1644.96 251.094C1639.56 251.094 1634.87 254.184 1632.57 258.69C1630.72 257.454 1628.5 256.734 1626.12 256.734C1609.38 256.734 1609.58 280.068 1626.12 280.068C1630 280.068 1633.44 278.166 1635.56 275.244C1638.03 277.518 1641.34 278.91 1644.96 278.91C1649.2 278.91 1652.98 277.02 1655.54 274.032C1658.64 277.854 1663.38 280.302 1668.67 280.302C1672.88 280.302 1676.73 278.766 1679.69 276.228C1681.82 278.988 1685.16 280.764 1688.92 280.764C1695.36 280.758 1700.59 275.532 1700.59 269.094Z" fill="white"/>
<g clip-path="url(#clip0_138_926)">
<path d="M1312 295.711C1312 310.945 1301.25 330.211 1282 337.489V324.529C1300.92 313.549 1305.81 286.999 1291.32 286.999H1282V274.999H1293.47C1306.34 274.999 1312 284.203 1312 295.711ZM1282 355.561V364.999H1186V355.561C1189.98 355.561 1192 352.327 1192 348.343V271.441C1184.91 268.027 1180 260.917 1180 252.541C1180 238.999 1192.5 229.483 1205.43 231.535C1211.71 225.925 1220.44 224.251 1228.2 226.783C1233 222.931 1237.86 220.999 1243.69 220.999C1252.8 220.999 1261.52 225.589 1266.12 232.003C1277.21 232.627 1286.04 241.849 1286.04 253.093C1286.04 261.139 1282.64 268.153 1275.99 271.717V348.349C1276 352.327 1278.02 355.561 1282 355.561ZM1216 286.999C1216 283.687 1213.32 280.999 1210 280.999C1206.68 280.999 1204 283.687 1204 286.999V334.999C1204 338.311 1206.68 340.999 1210 340.999C1213.32 340.999 1216 338.311 1216 334.999V286.999ZM1240 286.999C1240 283.687 1237.32 280.999 1234 280.999C1230.68 280.999 1228 283.687 1228 286.999V334.999C1228 338.311 1230.68 340.999 1234 340.999C1237.32 340.999 1240 338.311 1240 334.999V286.999ZM1264 286.999C1264 283.687 1261.32 280.999 1258 280.999C1254.68 280.999 1252 283.687 1252 286.999V334.999C1252 338.311 1254.68 340.999 1258 340.999C1261.32 340.999 1264 338.311 1264 334.999V286.999ZM1276.59 253.093C1276.59 246.649 1271.36 241.429 1264.92 241.429C1263.47 241.429 1262.07 241.699 1260.79 242.185C1258.6 235.381 1252.22 230.455 1244.68 230.455C1238.55 230.455 1233.17 233.719 1230.21 238.609C1227.75 236.419 1224.51 235.093 1220.96 235.093C1215.56 235.093 1210.87 238.183 1208.57 242.689C1206.72 241.453 1204.5 240.733 1202.12 240.733C1185.38 240.733 1185.58 264.067 1202.12 264.067C1206 264.067 1209.44 262.165 1211.56 259.243C1214.03 261.517 1217.34 262.909 1220.96 262.909C1225.2 262.909 1228.98 261.019 1231.54 258.031C1234.64 261.853 1239.38 264.301 1244.67 264.301C1248.88 264.301 1252.73 262.765 1255.69 260.227C1257.82 262.987 1261.16 264.763 1264.92 264.763C1271.36 264.757 1276.59 259.531 1276.59 253.093Z" fill="white"/>
</g>
<g clip-path="url(#clip1_138_926)">
<path d="M1598 895.712C1598 910.946 1587.25 930.212 1568 937.49V924.53C1586.92 913.55 1591.81 887 1577.32 887H1568V875H1579.47C1592.34 875 1598 884.204 1598 895.712ZM1568 955.562V965H1472V955.562C1475.98 955.562 1478 952.328 1478 948.344V871.442C1470.91 868.028 1466 860.918 1466 852.542C1466 839 1478.5 829.484 1491.43 831.536C1497.71 825.926 1506.44 824.252 1514.2 826.784C1519 822.932 1523.86 821 1529.69 821C1538.8 821 1547.52 825.59 1552.12 832.004C1563.21 832.628 1572.04 841.85 1572.04 853.094C1572.04 861.14 1568.64 868.154 1561.99 871.718V948.35C1562 952.328 1564.02 955.562 1568 955.562ZM1502 887C1502 883.688 1499.32 881 1496 881C1492.68 881 1490 883.688 1490 887V935C1490 938.312 1492.68 941 1496 941C1499.32 941 1502 938.312 1502 935V887ZM1526 887C1526 883.688 1523.32 881 1520 881C1516.68 881 1514 883.688 1514 887V935C1514 938.312 1516.68 941 1520 941C1523.32 941 1526 938.312 1526 935V887ZM1550 887C1550 883.688 1547.32 881 1544 881C1540.68 881 1538 883.688 1538 887V935C1538 938.312 1540.68 941 1544 941C1547.32 941 1550 938.312 1550 935V887ZM1562.59 853.094C1562.59 846.65 1557.36 841.43 1550.92 841.43C1549.47 841.43 1548.07 841.7 1546.79 842.186C1544.6 835.382 1538.22 830.456 1530.68 830.456C1524.55 830.456 1519.17 833.72 1516.21 838.61C1513.75 836.42 1510.51 835.094 1506.96 835.094C1501.56 835.094 1496.87 838.184 1494.57 842.69C1492.72 841.454 1490.5 840.734 1488.12 840.734C1471.38 840.734 1471.58 864.068 1488.12 864.068C1492 864.068 1495.44 862.166 1497.56 859.244C1500.03 861.518 1503.34 862.91 1506.96 862.91C1511.2 862.91 1514.98 861.02 1517.54 858.032C1520.64 861.854 1525.38 864.302 1530.67 864.302C1534.88 864.302 1538.73 862.766 1541.69 860.228C1543.82 862.988 1547.16 864.764 1550.92 864.764C1557.36 864.758 1562.59 859.532 1562.59 853.094Z" fill="white"/>
</g>
<g clip-path="url(#clip2_138_926)">
<path d="M485 588.712C485 603.946 474.254 623.212 455 630.49V617.53C473.924 606.55 478.814 580 464.318 580H455V568H466.472C479.336 568 485 577.204 485 588.712ZM455 648.562V658H359V648.562C362.984 648.562 365 645.328 365 641.344V564.442C357.914 561.028 353 553.918 353 545.542C353 532 365.504 522.484 378.428 524.536C384.71 518.926 393.44 517.252 401.198 519.784C406.004 515.932 410.864 514 416.69 514C425.798 514 434.516 518.59 439.118 525.004C450.206 525.628 459.038 534.85 459.038 546.094C459.038 554.14 455.636 561.154 448.994 564.718V641.35C449 645.328 451.016 648.562 455 648.562ZM389 580C389 576.688 386.318 574 383 574C379.682 574 377 576.688 377 580V628C377 631.312 379.682 634 383 634C386.318 634 389 631.312 389 628V580ZM413 580C413 576.688 410.318 574 407 574C403.682 574 401 576.688 401 580V628C401 631.312 403.682 634 407 634C410.318 634 413 631.312 413 628V580ZM437 580C437 576.688 434.318 574 431 574C427.682 574 425 576.688 425 580V628C425 631.312 427.682 634 431 634C434.318 634 437 631.312 437 628V580ZM449.588 546.094C449.588 539.65 444.362 534.43 437.924 534.43C436.466 534.43 435.068 534.7 433.79 535.186C431.6 528.382 425.216 523.456 417.68 523.456C411.554 523.456 406.172 526.72 403.208 531.61C400.748 529.42 397.508 528.094 393.962 528.094C388.556 528.094 383.87 531.184 381.572 535.69C379.724 534.454 377.504 533.734 375.116 533.734C358.376 533.734 358.58 557.068 375.116 557.068C378.998 557.068 382.442 555.166 384.56 552.244C387.032 554.518 390.338 555.91 393.962 555.91C398.198 555.91 401.984 554.02 404.54 551.032C407.642 554.854 412.376 557.302 417.674 557.302C421.88 557.302 425.726 555.766 428.69 553.228C430.82 555.988 434.162 557.764 437.918 557.764C444.362 557.758 449.588 552.532 449.588 546.094Z" fill="white"/>
</g>
<g clip-path="url(#clip3_138_926)">
<path d="M1430 588.712C1430 603.946 1419.25 623.212 1400 630.49V617.53C1418.92 606.55 1423.81 580 1409.32 580H1400V568H1411.47C1424.34 568 1430 577.204 1430 588.712ZM1400 648.562V658H1304V648.562C1307.98 648.562 1310 645.328 1310 641.344V564.442C1302.91 561.028 1298 553.918 1298 545.542C1298 532 1310.5 522.484 1323.43 524.536C1329.71 518.926 1338.44 517.252 1346.2 519.784C1351 515.932 1355.86 514 1361.69 514C1370.8 514 1379.52 518.59 1384.12 525.004C1395.21 525.628 1404.04 534.85 1404.04 546.094C1404.04 554.14 1400.64 561.154 1393.99 564.718V641.35C1394 645.328 1396.02 648.562 1400 648.562ZM1334 580C1334 576.688 1331.32 574 1328 574C1324.68 574 1322 576.688 1322 580V628C1322 631.312 1324.68 634 1328 634C1331.32 634 1334 631.312 1334 628V580ZM1358 580C1358 576.688 1355.32 574 1352 574C1348.68 574 1346 576.688 1346 580V628C1346 631.312 1348.68 634 1352 634C1355.32 634 1358 631.312 1358 628V580ZM1382 580C1382 576.688 1379.32 574 1376 574C1372.68 574 1370 576.688 1370 580V628C1370 631.312 1372.68 634 1376 634C1379.32 634 1382 631.312 1382 628V580ZM1394.59 546.094C1394.59 539.65 1389.36 534.43 1382.92 534.43C1381.47 534.43 1380.07 534.7 1378.79 535.186C1376.6 528.382 1370.22 523.456 1362.68 523.456C1356.55 523.456 1351.17 526.72 1348.21 531.61C1345.75 529.42 1342.51 528.094 1338.96 528.094C1333.56 528.094 1328.87 531.184 1326.57 535.69C1324.72 534.454 1322.5 533.734 1320.12 533.734C1303.38 533.734 1303.58 557.068 1320.12 557.068C1324 557.068 1327.44 555.166 1329.56 552.244C1332.03 554.518 1335.34 555.91 1338.96 555.91C1343.2 555.91 1346.98 554.02 1349.54 551.032C1352.64 554.854 1357.38 557.302 1362.67 557.302C1366.88 557.302 1370.73 555.766 1373.69 553.228C1375.82 555.988 1379.16 557.764 1382.92 557.764C1389.36 557.758 1394.59 552.532 1394.59 546.094Z" fill="white"/>
</g>
<g clip-path="url(#clip4_138_926)">
<path d="M1914 823.712C1914 838.946 1903.25 858.212 1884 865.49V852.53C1902.92 841.55 1907.81 815 1893.32 815H1884V803H1895.47C1908.34 803 1914 812.204 1914 823.712ZM1884 883.562V893H1788V883.562C1791.98 883.562 1794 880.328 1794 876.344V799.442C1786.91 796.028 1782 788.918 1782 780.542C1782 767 1794.5 757.484 1807.43 759.536C1813.71 753.926 1822.44 752.252 1830.2 754.784C1835 750.932 1839.86 749 1845.69 749C1854.8 749 1863.52 753.59 1868.12 760.004C1879.21 760.628 1888.04 769.85 1888.04 781.094C1888.04 789.14 1884.64 796.154 1877.99 799.718V876.35C1878 880.328 1880.02 883.562 1884 883.562ZM1818 815C1818 811.688 1815.32 809 1812 809C1808.68 809 1806 811.688 1806 815V863C1806 866.312 1808.68 869 1812 869C1815.32 869 1818 866.312 1818 863V815ZM1842 815C1842 811.688 1839.32 809 1836 809C1832.68 809 1830 811.688 1830 815V863C1830 866.312 1832.68 869 1836 869C1839.32 869 1842 866.312 1842 863V815ZM1866 815C1866 811.688 1863.32 809 1860 809C1856.68 809 1854 811.688 1854 815V863C1854 866.312 1856.68 869 1860 869C1863.32 869 1866 866.312 1866 863V815ZM1878.59 781.094C1878.59 774.65 1873.36 769.43 1866.92 769.43C1865.47 769.43 1864.07 769.7 1862.79 770.186C1860.6 763.382 1854.22 758.456 1846.68 758.456C1840.55 758.456 1835.17 761.72 1832.21 766.61C1829.75 764.42 1826.51 763.094 1822.96 763.094C1817.56 763.094 1812.87 766.184 1810.57 770.69C1808.72 769.454 1806.5 768.734 1804.12 768.734C1787.38 768.734 1787.58 792.068 1804.12 792.068C1808 792.068 1811.44 790.166 1813.56 787.244C1816.03 789.518 1819.34 790.91 1822.96 790.91C1827.2 790.91 1830.98 789.02 1833.54 786.032C1836.64 789.854 1841.38 792.302 1846.67 792.302C1850.88 792.302 1854.73 790.766 1857.69 788.228C1859.82 790.988 1863.16 792.764 1866.92 792.764C1873.36 792.758 1878.59 787.532 1878.59 781.094Z" fill="white"/>
</g>
</g>
<defs>
<clipPath id="clip0_138_926">
<rect width="144" height="144" fill="white" transform="translate(1174 220.999)"/>
</clipPath>
<clipPath id="clip1_138_926">
<rect width="144" height="144" fill="white" transform="translate(1460 821)"/>
</clipPath>
<clipPath id="clip2_138_926">
<rect width="144" height="144" fill="white" transform="translate(347 514)"/>
</clipPath>
<clipPath id="clip3_138_926">
<rect width="144" height="144" fill="white" transform="translate(1292 514)"/>
</clipPath>
<clipPath id="clip4_138_926">
<rect width="144" height="144" fill="white" transform="translate(1776 749)"/>
</clipPath>
</defs>
</svg>
