<svg width="1920" height="1263" viewBox="0 0 1920 1263" fill="none" xmlns="http://www.w3.org/2000/svg">
<g opacity="0.15">
<path d="M1574.15 628.848C1592.42 623.026 1628.76 604.813 1627.97 578.537C1627.55 564.718 1623.96 555.157 1618.44 548.57C1608.91 537.213 1590.77 534.877 1578.56 543.28C1573.75 546.594 1569.9 551.249 1567.81 557.28C1555.84 591.701 1568.93 628.859 1626.88 628.739" stroke="white" stroke-width="15" stroke-linecap="round"/>
<path d="M1673.57 628.643C1655.27 622.897 1618.85 604.834 1619.54 578.555C1619.91 564.734 1623.45 555.158 1628.95 548.549C1638.43 537.152 1656.56 534.742 1668.8 543.094C1673.63 546.388 1677.49 551.028 1679.62 557.05C1691.72 591.421 1678.79 628.632 1620.84 628.752" stroke="white" stroke-width="15" stroke-linecap="round"/>
<path d="M1414.15 318.847C1432.42 313.025 1468.76 294.813 1467.97 268.537C1467.55 254.718 1463.96 245.156 1458.44 238.57C1448.91 227.212 1430.77 224.877 1418.56 233.28C1413.75 236.594 1409.9 241.249 1407.81 247.279C1395.84 281.7 1408.93 318.858 1466.88 318.739" stroke="white" stroke-width="15" stroke-linecap="round"/>
<path d="M1513.57 318.642C1495.27 312.896 1458.85 294.833 1459.54 268.554C1459.91 254.733 1463.45 245.157 1468.95 238.548C1478.43 227.151 1496.56 224.741 1508.8 233.094C1513.63 236.388 1517.49 241.027 1519.62 247.049C1531.72 281.42 1518.79 318.632 1460.84 318.751" stroke="white" stroke-width="15" stroke-linecap="round"/>
<path d="M235.152 321.847C253.423 316.025 289.765 297.813 288.967 271.537C288.547 257.718 284.961 248.156 279.438 241.57C269.914 230.212 251.773 227.877 239.562 236.28C234.747 239.594 230.904 244.249 228.807 250.279C216.84 284.7 229.931 321.858 287.877 321.739" stroke="white" stroke-width="15" stroke-linecap="round"/>
<path d="M334.566 321.642C316.271 315.896 279.855 297.833 280.544 271.554C280.907 257.733 284.454 248.157 289.949 241.548C299.427 230.151 317.558 227.741 329.803 236.094C334.632 239.388 338.494 244.027 340.616 250.049C352.724 284.42 339.787 321.632 281.84 321.751" stroke="white" stroke-width="15" stroke-linecap="round"/>
<path d="M269.152 914.848C287.423 909.026 323.765 890.813 322.967 864.537C322.547 850.718 318.961 841.157 313.438 834.57C303.914 823.213 285.773 820.877 273.562 829.28C268.747 832.594 264.904 837.249 262.807 843.28C250.84 877.701 263.931 914.859 321.877 914.739" stroke="white" stroke-width="15" stroke-linecap="round"/>
<path d="M368.566 914.643C350.271 908.897 313.855 890.834 314.544 864.555C314.907 850.734 318.454 841.158 323.949 834.549C333.427 823.152 351.558 820.742 363.803 829.094C368.632 832.388 372.494 837.028 374.616 843.05C386.724 877.421 373.787 914.632 315.84 914.752" stroke="white" stroke-width="15" stroke-linecap="round"/>
<path d="M75.1521 1055.85C93.4227 1050.03 129.765 1031.81 128.967 1005.54C128.547 991.718 124.961 982.157 119.438 975.57C109.914 964.213 91.773 961.877 79.5625 970.28C74.747 973.594 70.9038 978.249 68.8072 984.28C56.8404 1018.7 69.931 1055.86 127.877 1055.74" stroke="white" stroke-width="15" stroke-linecap="round"/>
<path d="M174.566 1055.64C156.271 1049.9 119.855 1031.83 120.544 1005.55C120.907 991.734 124.454 982.158 129.949 975.549C139.427 964.152 157.558 961.742 169.803 970.094C174.632 973.388 178.494 978.028 180.616 984.05C192.724 1018.42 179.787 1055.63 121.84 1055.75" stroke="white" stroke-width="15" stroke-linecap="round"/>
<path d="M520.152 1095.85C538.423 1090.03 574.765 1071.81 573.967 1045.54C573.547 1031.72 569.961 1022.16 564.438 1015.57C554.914 1004.21 536.773 1001.88 524.562 1010.28C519.747 1013.59 515.904 1018.25 513.807 1024.28C501.84 1058.7 514.931 1095.86 572.877 1095.74" stroke="white" stroke-width="15" stroke-linecap="round"/>
<path d="M619.566 1095.64C601.271 1089.9 564.855 1071.83 565.544 1045.55C565.907 1031.73 569.454 1022.16 574.949 1015.55C584.427 1004.15 602.558 1001.74 614.803 1010.09C619.632 1013.39 623.494 1018.03 625.616 1024.05C637.724 1058.42 624.787 1095.63 566.84 1095.75" stroke="white" stroke-width="15" stroke-linecap="round"/>
<path d="M1231.15 1020.85C1249.42 1015.03 1285.76 996.813 1284.97 970.537C1284.55 956.718 1280.96 947.157 1275.44 940.57C1265.91 929.213 1247.77 926.877 1235.56 935.28C1230.75 938.594 1226.9 943.249 1224.81 949.28C1212.84 983.701 1225.93 1020.86 1283.88 1020.74" stroke="white" stroke-width="15" stroke-linecap="round"/>
<path d="M1330.57 1020.64C1312.27 1014.9 1275.85 996.834 1276.54 970.555C1276.91 956.734 1280.45 947.158 1285.95 940.549C1295.43 929.152 1313.56 926.742 1325.8 935.094C1330.63 938.388 1334.49 943.028 1336.62 949.05C1348.72 983.421 1335.79 1020.63 1277.84 1020.75" stroke="white" stroke-width="15" stroke-linecap="round"/>
<path d="M889.152 298.848C907.423 293.026 943.765 274.813 942.967 248.537C942.547 234.718 938.961 225.157 933.438 218.57C923.914 207.212 905.773 204.877 893.562 213.28C888.747 216.594 884.904 221.249 882.807 227.28C870.84 261.7 883.931 298.858 941.877 298.739" stroke="white" stroke-width="15" stroke-linecap="round"/>
<path d="M988.566 298.643C970.271 292.896 933.855 274.833 934.544 248.554C934.907 234.734 938.454 225.157 943.949 218.549C953.427 207.152 971.558 204.741 983.803 213.094C988.632 216.388 992.494 221.027 994.616 227.049C1006.72 261.42 993.787 298.632 935.84 298.751" stroke="white" stroke-width="15" stroke-linecap="round"/>
<path d="M1678.15 1020.85C1696.42 1015.03 1732.76 996.813 1731.97 970.537C1731.55 956.718 1727.96 947.157 1722.44 940.57C1712.91 929.213 1694.77 926.877 1682.56 935.28C1677.75 938.594 1673.9 943.249 1671.81 949.28C1659.84 983.701 1672.93 1020.86 1730.88 1020.74" stroke="white" stroke-width="15" stroke-linecap="round"/>
<path d="M1777.57 1020.64C1759.27 1014.9 1722.85 996.834 1723.54 970.555C1723.91 956.734 1727.45 947.158 1732.95 940.549C1742.43 929.152 1760.56 926.742 1772.8 935.094C1777.63 938.388 1781.49 943.028 1783.62 949.05C1795.72 983.421 1782.79 1020.63 1724.84 1020.75" stroke="white" stroke-width="15" stroke-linecap="round"/>
<path d="M564.152 790.848C582.423 785.026 618.765 766.813 617.967 740.537C617.547 726.718 613.961 717.157 608.438 710.57C598.914 699.213 580.773 696.877 568.562 705.28C563.747 708.594 559.904 713.249 557.807 719.28C545.84 753.701 558.931 790.859 616.877 790.739" stroke="white" stroke-width="15" stroke-linecap="round"/>
<path d="M663.566 790.643C645.271 784.897 608.855 766.834 609.544 740.555C609.907 726.734 613.454 717.158 618.949 710.549C628.427 699.152 646.558 696.742 658.803 705.094C663.632 708.388 667.494 713.028 669.616 719.05C681.724 753.421 668.787 790.632 610.84 790.752" stroke="white" stroke-width="15" stroke-linecap="round"/>
<path d="M134.152 680.848C152.423 675.026 188.765 656.813 187.967 630.537C187.547 616.718 183.961 607.157 178.438 600.57C168.914 589.213 150.773 586.877 138.562 595.28C133.747 598.594 129.904 603.249 127.807 609.28C115.84 643.701 128.931 680.859 186.877 680.739" stroke="white" stroke-width="15" stroke-linecap="round"/>
<path d="M233.566 680.643C215.271 674.897 178.855 656.834 179.544 630.555C179.907 616.734 183.454 607.158 188.949 600.549C198.427 589.152 216.558 586.742 228.803 595.094C233.632 598.388 237.494 603.028 239.616 609.05C251.724 643.421 238.787 680.632 180.84 680.752" stroke="white" stroke-width="15" stroke-linecap="round"/>
<path d="M-29.8479 453.847C-11.5773 448.025 24.7645 429.813 23.9667 403.537C23.5471 389.718 19.9609 380.156 14.438 373.57C4.91398 362.212 -13.227 359.877 -25.4375 368.28C-30.253 371.594 -34.0962 376.249 -36.1928 382.279C-48.1596 416.7 -35.069 453.858 22.8773 453.739" stroke="white" stroke-width="15" stroke-linecap="round"/>
<path d="M69.5657 453.642C51.2712 447.896 14.8547 429.833 15.5442 403.554C15.9069 389.733 19.4536 380.157 24.9494 373.548C34.4265 362.151 52.5578 359.741 64.8028 368.094C69.6318 371.388 73.4942 376.027 75.6157 382.049C87.7242 416.42 74.7868 453.632 16.8405 453.751" stroke="white" stroke-width="15" stroke-linecap="round"/>
<path d="M495.152 178.848C513.423 173.026 549.765 154.813 548.967 128.537C548.547 114.718 544.961 105.157 539.438 98.5707C529.914 87.213 511.773 84.8775 499.562 93.2805C494.747 96.5944 490.904 101.249 488.807 107.28C476.84 141.701 489.931 178.859 547.877 178.739" stroke="white" stroke-width="15" stroke-linecap="round"/>
<path d="M594.566 178.643C576.271 172.897 539.855 154.834 540.544 128.555C540.907 114.734 544.454 105.158 549.949 98.549C559.427 87.1521 577.558 84.7418 589.803 93.0945C594.632 96.3885 598.494 101.028 600.616 107.05C612.724 141.421 599.787 178.632 541.84 178.752" stroke="white" stroke-width="15" stroke-linecap="round"/>
<path d="M65.1521 68.8474C83.4227 63.0254 119.765 44.8125 118.967 18.5368C118.547 4.71762 114.961 -4.84372 109.438 -11.43C99.914 -22.7877 81.773 -25.1233 69.5625 -16.7203C64.747 -13.4064 60.9038 -8.75132 58.8072 -2.72066C46.8404 31.7001 59.931 68.8581 117.877 68.7387" stroke="white" stroke-width="15" stroke-linecap="round"/>
<path d="M164.566 68.6425C146.271 62.8958 109.855 44.8328 110.544 18.554C110.907 4.73328 114.454 -4.84276 119.949 -11.4517C129.427 -22.8486 147.558 -25.2589 159.803 -16.9063C164.632 -13.6122 168.494 -8.97307 170.616 -2.9511C182.724 31.4201 169.787 68.6317 111.84 68.7511" stroke="white" stroke-width="15" stroke-linecap="round"/>
<path d="M1808.15 213.848C1826.42 208.026 1862.76 189.813 1861.97 163.537C1861.55 149.718 1857.96 140.157 1852.44 133.571C1842.91 122.213 1824.77 119.877 1812.56 128.28C1807.75 131.594 1803.9 136.249 1801.81 142.28C1789.84 176.701 1802.93 213.859 1860.88 213.739" stroke="white" stroke-width="15" stroke-linecap="round"/>
<path d="M1907.57 213.643C1889.27 207.897 1852.85 189.834 1853.54 163.555C1853.91 149.734 1857.45 140.158 1862.95 133.549C1872.43 122.152 1890.56 119.742 1902.8 128.094C1907.63 131.388 1911.49 136.028 1913.62 142.05C1925.72 176.421 1912.79 213.632 1854.84 213.752" stroke="white" stroke-width="15" stroke-linecap="round"/>
<path d="M1378.15 103.847C1396.42 98.0254 1432.76 79.8125 1431.97 53.5368C1431.55 39.7176 1427.96 30.1563 1422.44 23.57C1412.91 12.2123 1394.77 9.87672 1382.56 18.2797C1377.75 21.5936 1373.9 26.2487 1371.81 32.2793C1359.84 66.7001 1372.93 103.858 1430.88 103.739" stroke="white" stroke-width="15" stroke-linecap="round"/>
<path d="M1477.57 103.642C1459.27 97.8958 1422.85 79.8328 1423.54 53.554C1423.91 39.7333 1427.45 30.1572 1432.95 23.5483C1442.43 12.1514 1460.56 9.7411 1472.8 18.0937C1477.63 21.3878 1481.49 26.0269 1483.62 32.0489C1495.72 66.4201 1482.79 103.632 1424.84 103.751" stroke="white" stroke-width="15" stroke-linecap="round"/>
<path d="M1880.15 601.848C1898.42 596.026 1934.76 577.813 1933.97 551.537C1933.55 537.718 1929.96 528.157 1924.44 521.57C1914.91 510.213 1896.77 507.877 1884.56 516.28C1879.75 519.594 1875.9 524.249 1873.81 530.28C1861.84 564.701 1874.93 601.859 1932.88 601.739" stroke="white" stroke-width="15" stroke-linecap="round"/>
<path d="M1979.57 601.643C1961.27 595.897 1924.85 577.834 1925.54 551.555C1925.91 537.734 1929.45 528.158 1934.95 521.549C1944.43 510.152 1962.56 507.742 1974.8 516.094C1979.63 519.388 1983.49 524.028 1985.62 530.05C1997.72 564.421 1984.79 601.632 1926.84 601.752" stroke="white" stroke-width="15" stroke-linecap="round"/>
<path d="M-39.8479 862.848C-21.5773 857.026 14.7645 838.813 13.9667 812.538C13.5471 798.719 9.96093 789.157 4.43802 782.571C-5.08602 771.213 -23.227 768.878 -35.4375 777.281C-40.253 780.595 -44.0962 785.25 -46.1928 791.28C-58.1596 825.701 -45.069 862.859 12.8773 862.74" stroke="white" stroke-width="15" stroke-linecap="round"/>
<path d="M59.5657 862.644C41.2712 856.897 4.85469 838.834 5.54424 812.555C5.9069 798.734 9.45363 789.158 14.9494 782.549C24.4265 771.153 42.5578 768.742 54.8028 777.095C59.6318 780.389 63.4942 785.028 65.6157 791.05C77.7242 825.421 64.7868 862.633 6.84048 862.752" stroke="white" stroke-width="15" stroke-linecap="round"/>
<path d="M1884.15 1164.85C1902.42 1159.03 1938.76 1140.81 1937.97 1114.54C1937.55 1100.72 1933.96 1091.16 1928.44 1084.57C1918.91 1073.21 1900.77 1070.88 1888.56 1079.28C1883.75 1082.59 1879.9 1087.25 1877.81 1093.28C1865.84 1127.7 1878.93 1164.86 1936.88 1164.74" stroke="white" stroke-width="15" stroke-linecap="round"/>
<path d="M1482.15 1210.85C1500.42 1205.03 1536.76 1186.81 1535.97 1160.54C1535.55 1146.72 1531.96 1137.16 1526.44 1130.57C1516.91 1119.21 1498.77 1116.88 1486.56 1125.28C1481.75 1128.59 1477.9 1133.25 1475.81 1139.28C1463.84 1173.7 1476.93 1210.86 1534.88 1210.74" stroke="white" stroke-width="15" stroke-linecap="round"/>
<path d="M1581.57 1210.64C1563.27 1204.9 1526.85 1186.83 1527.54 1160.56C1527.91 1146.73 1531.45 1137.16 1536.95 1130.55C1546.43 1119.15 1564.56 1116.74 1576.8 1125.09C1581.63 1128.39 1585.49 1133.03 1587.62 1139.05C1599.72 1173.42 1586.79 1210.63 1528.84 1210.75" stroke="white" stroke-width="15" stroke-linecap="round"/>
<path d="M1736 261.712C1736 276.946 1725.25 296.212 1706 303.49V290.53C1724.92 279.55 1729.81 253 1715.32 253H1706V241H1717.47C1730.34 241 1736 250.204 1736 261.712ZM1706 321.562V331H1610V321.562C1613.98 321.562 1616 318.328 1616 314.344V237.442C1608.91 234.028 1604 226.918 1604 218.542C1604 205 1616.5 195.484 1629.43 197.536C1635.71 191.926 1644.44 190.252 1652.2 192.784C1657 188.932 1661.86 187 1667.69 187C1676.8 187 1685.52 191.59 1690.12 198.004C1701.21 198.628 1710.04 207.85 1710.04 219.094C1710.04 227.14 1706.64 234.154 1699.99 237.718V314.35C1700 318.328 1702.02 321.562 1706 321.562ZM1640 253C1640 249.688 1637.32 247 1634 247C1630.68 247 1628 249.688 1628 253V301C1628 304.312 1630.68 307 1634 307C1637.32 307 1640 304.312 1640 301V253ZM1664 253C1664 249.688 1661.32 247 1658 247C1654.68 247 1652 249.688 1652 253V301C1652 304.312 1654.68 307 1658 307C1661.32 307 1664 304.312 1664 301V253ZM1688 253C1688 249.688 1685.32 247 1682 247C1678.68 247 1676 249.688 1676 253V301C1676 304.312 1678.68 307 1682 307C1685.32 307 1688 304.312 1688 301V253ZM1700.59 219.094C1700.59 212.65 1695.36 207.43 1688.92 207.43C1687.47 207.43 1686.07 207.7 1684.79 208.186C1682.6 201.382 1676.22 196.456 1668.68 196.456C1662.55 196.456 1657.17 199.72 1654.21 204.61C1651.75 202.42 1648.51 201.094 1644.96 201.094C1639.56 201.094 1634.87 204.184 1632.57 208.69C1630.72 207.454 1628.5 206.734 1626.12 206.734C1609.38 206.734 1609.58 230.068 1626.12 230.068C1630 230.068 1633.44 228.166 1635.56 225.244C1638.03 227.518 1641.34 228.91 1644.96 228.91C1649.2 228.91 1652.98 227.02 1655.54 224.032C1658.64 227.854 1663.38 230.302 1668.67 230.302C1672.88 230.302 1676.73 228.766 1679.69 226.228C1681.82 228.988 1685.16 230.764 1688.92 230.764C1695.36 230.758 1700.59 225.532 1700.59 219.094Z" fill="white"/>
<g clip-path="url(#clip0_138_926)">
<path d="M1312 245.711C1312 260.945 1301.25 280.211 1282 287.489V274.529C1300.92 263.549 1305.81 236.999 1291.32 236.999H1282V224.999H1293.47C1306.34 224.999 1312 234.203 1312 245.711ZM1282 305.561V314.999H1186V305.561C1189.98 305.561 1192 302.327 1192 298.343V221.441C1184.91 218.027 1180 210.917 1180 202.541C1180 188.999 1192.5 179.483 1205.43 181.535C1211.71 175.925 1220.44 174.251 1228.2 176.783C1233 172.931 1237.86 170.999 1243.69 170.999C1252.8 170.999 1261.52 175.589 1266.12 182.003C1277.21 182.627 1286.04 191.849 1286.04 203.093C1286.04 211.139 1282.64 218.153 1275.99 221.717V298.349C1276 302.327 1278.02 305.561 1282 305.561ZM1216 236.999C1216 233.687 1213.32 230.999 1210 230.999C1206.68 230.999 1204 233.687 1204 236.999V284.999C1204 288.311 1206.68 290.999 1210 290.999C1213.32 290.999 1216 288.311 1216 284.999V236.999ZM1240 236.999C1240 233.687 1237.32 230.999 1234 230.999C1230.68 230.999 1228 233.687 1228 236.999V284.999C1228 288.311 1230.68 290.999 1234 290.999C1237.32 290.999 1240 288.311 1240 284.999V236.999ZM1264 236.999C1264 233.687 1261.32 230.999 1258 230.999C1254.68 230.999 1252 233.687 1252 236.999V284.999C1252 288.311 1254.68 290.999 1258 290.999C1261.32 290.999 1264 288.311 1264 284.999V236.999ZM1276.59 203.093C1276.59 196.649 1271.36 191.429 1264.92 191.429C1263.47 191.429 1262.07 191.699 1260.79 192.185C1258.6 185.381 1252.22 180.455 1244.68 180.455C1238.55 180.455 1233.17 183.719 1230.21 188.609C1227.75 186.419 1224.51 185.093 1220.96 185.093C1215.56 185.093 1210.87 188.183 1208.57 192.689C1206.72 191.453 1204.5 190.733 1202.12 190.733C1185.38 190.733 1185.58 214.067 1202.12 214.067C1206 214.067 1209.44 212.165 1211.56 209.243C1214.03 211.517 1217.34 212.909 1220.96 212.909C1225.2 212.909 1228.98 211.019 1231.54 208.031C1234.64 211.853 1239.38 214.301 1244.67 214.301C1248.88 214.301 1252.73 212.765 1255.69 210.227C1257.82 212.987 1261.16 214.763 1264.92 214.763C1271.36 214.757 1276.59 209.531 1276.59 203.093Z" fill="white"/>
</g>
<g clip-path="url(#clip1_138_926)">
<path d="M1598 845.712C1598 860.946 1587.25 880.212 1568 887.49V874.53C1586.92 863.55 1591.81 837 1577.32 837H1568V825H1579.47C1592.34 825 1598 834.204 1598 845.712ZM1568 905.562V915H1472V905.562C1475.98 905.562 1478 902.328 1478 898.344V821.442C1470.91 818.028 1466 810.918 1466 802.542C1466 789 1478.5 779.484 1491.43 781.536C1497.71 775.926 1506.44 774.252 1514.2 776.784C1519 772.932 1523.86 771 1529.69 771C1538.8 771 1547.52 775.59 1552.12 782.004C1563.21 782.628 1572.04 791.85 1572.04 803.094C1572.04 811.14 1568.64 818.154 1561.99 821.718V898.35C1562 902.328 1564.02 905.562 1568 905.562ZM1502 837C1502 833.688 1499.32 831 1496 831C1492.68 831 1490 833.688 1490 837V885C1490 888.312 1492.68 891 1496 891C1499.32 891 1502 888.312 1502 885V837ZM1526 837C1526 833.688 1523.32 831 1520 831C1516.68 831 1514 833.688 1514 837V885C1514 888.312 1516.68 891 1520 891C1523.32 891 1526 888.312 1526 885V837ZM1550 837C1550 833.688 1547.32 831 1544 831C1540.68 831 1538 833.688 1538 837V885C1538 888.312 1540.68 891 1544 891C1547.32 891 1550 888.312 1550 885V837ZM1562.59 803.094C1562.59 796.65 1557.36 791.43 1550.92 791.43C1549.47 791.43 1548.07 791.7 1546.79 792.186C1544.6 785.382 1538.22 780.456 1530.68 780.456C1524.55 780.456 1519.17 783.72 1516.21 788.61C1513.75 786.42 1510.51 785.094 1506.96 785.094C1501.56 785.094 1496.87 788.184 1494.57 792.69C1492.72 791.454 1490.5 790.734 1488.12 790.734C1471.38 790.734 1471.58 814.068 1488.12 814.068C1492 814.068 1495.44 812.166 1497.56 809.244C1500.03 811.518 1503.34 812.91 1506.96 812.91C1511.2 812.91 1514.98 811.02 1517.54 808.032C1520.64 811.854 1525.38 814.302 1530.67 814.302C1534.88 814.302 1538.73 812.766 1541.69 810.228C1543.82 812.988 1547.16 814.764 1550.92 814.764C1557.36 814.758 1562.59 809.532 1562.59 803.094Z" fill="white"/>
</g>
<g clip-path="url(#clip2_138_926)">
<path d="M485 538.711C485 553.945 474.254 573.211 455 580.489V567.529C473.924 556.549 478.814 529.999 464.318 529.999H455V517.999H466.472C479.336 517.999 485 527.203 485 538.711ZM455 598.561V607.999H359V598.561C362.984 598.561 365 595.327 365 591.343V514.441C357.914 511.027 353 503.917 353 495.541C353 481.999 365.504 472.483 378.428 474.535C384.71 468.925 393.44 467.251 401.198 469.783C406.004 465.931 410.864 463.999 416.69 463.999C425.798 463.999 434.516 468.589 439.118 475.003C450.206 475.627 459.038 484.849 459.038 496.093C459.038 504.139 455.636 511.153 448.994 514.717V591.349C449 595.327 451.016 598.561 455 598.561ZM389 529.999C389 526.687 386.318 523.999 383 523.999C379.682 523.999 377 526.687 377 529.999V577.999C377 581.311 379.682 583.999 383 583.999C386.318 583.999 389 581.311 389 577.999V529.999ZM413 529.999C413 526.687 410.318 523.999 407 523.999C403.682 523.999 401 526.687 401 529.999V577.999C401 581.311 403.682 583.999 407 583.999C410.318 583.999 413 581.311 413 577.999V529.999ZM437 529.999C437 526.687 434.318 523.999 431 523.999C427.682 523.999 425 526.687 425 529.999V577.999C425 581.311 427.682 583.999 431 583.999C434.318 583.999 437 581.311 437 577.999V529.999ZM449.588 496.093C449.588 489.649 444.362 484.429 437.924 484.429C436.466 484.429 435.068 484.699 433.79 485.185C431.6 478.381 425.216 473.455 417.68 473.455C411.554 473.455 406.172 476.719 403.208 481.609C400.748 479.419 397.508 478.093 393.962 478.093C388.556 478.093 383.87 481.183 381.572 485.689C379.724 484.453 377.504 483.733 375.116 483.733C358.376 483.733 358.58 507.067 375.116 507.067C378.998 507.067 382.442 505.165 384.56 502.243C387.032 504.517 390.338 505.909 393.962 505.909C398.198 505.909 401.984 504.019 404.54 501.031C407.642 504.853 412.376 507.301 417.674 507.301C421.88 507.301 425.726 505.765 428.69 503.227C430.82 505.987 434.162 507.763 437.918 507.763C444.362 507.757 449.588 502.531 449.588 496.093Z" fill="white"/>
</g>
<g clip-path="url(#clip3_138_926)">
<path d="M1430 538.711C1430 553.945 1419.25 573.211 1400 580.489V567.529C1418.92 556.549 1423.81 529.999 1409.32 529.999H1400V517.999H1411.47C1424.34 517.999 1430 527.203 1430 538.711ZM1400 598.561V607.999H1304V598.561C1307.98 598.561 1310 595.327 1310 591.343V514.441C1302.91 511.027 1298 503.917 1298 495.541C1298 481.999 1310.5 472.483 1323.43 474.535C1329.71 468.925 1338.44 467.251 1346.2 469.783C1351 465.931 1355.86 463.999 1361.69 463.999C1370.8 463.999 1379.52 468.589 1384.12 475.003C1395.21 475.627 1404.04 484.849 1404.04 496.093C1404.04 504.139 1400.64 511.153 1393.99 514.717V591.349C1394 595.327 1396.02 598.561 1400 598.561ZM1334 529.999C1334 526.687 1331.32 523.999 1328 523.999C1324.68 523.999 1322 526.687 1322 529.999V577.999C1322 581.311 1324.68 583.999 1328 583.999C1331.32 583.999 1334 581.311 1334 577.999V529.999ZM1358 529.999C1358 526.687 1355.32 523.999 1352 523.999C1348.68 523.999 1346 526.687 1346 529.999V577.999C1346 581.311 1348.68 583.999 1352 583.999C1355.32 583.999 1358 581.311 1358 577.999V529.999ZM1382 529.999C1382 526.687 1379.32 523.999 1376 523.999C1372.68 523.999 1370 526.687 1370 529.999V577.999C1370 581.311 1372.68 583.999 1376 583.999C1379.32 583.999 1382 581.311 1382 577.999V529.999ZM1394.59 496.093C1394.59 489.649 1389.36 484.429 1382.92 484.429C1381.47 484.429 1380.07 484.699 1378.79 485.185C1376.6 478.381 1370.22 473.455 1362.68 473.455C1356.55 473.455 1351.17 476.719 1348.21 481.609C1345.75 479.419 1342.51 478.093 1338.96 478.093C1333.56 478.093 1328.87 481.183 1326.57 485.689C1324.72 484.453 1322.5 483.733 1320.12 483.733C1303.38 483.733 1303.58 507.067 1320.12 507.067C1324 507.067 1327.44 505.165 1329.56 502.243C1332.03 504.517 1335.34 505.909 1338.96 505.909C1343.2 505.909 1346.98 504.019 1349.54 501.031C1352.64 504.853 1357.38 507.301 1362.67 507.301C1366.88 507.301 1370.73 505.765 1373.69 503.227C1375.82 505.987 1379.16 507.763 1382.92 507.763C1389.36 507.757 1394.59 502.531 1394.59 496.093Z" fill="white"/>
</g>
<g clip-path="url(#clip4_138_926)">
<path d="M1914 773.712C1914 788.946 1903.25 808.212 1884 815.49V802.53C1902.92 791.55 1907.81 765 1893.32 765H1884V753H1895.47C1908.34 753 1914 762.204 1914 773.712ZM1884 833.562V843H1788V833.562C1791.98 833.562 1794 830.328 1794 826.344V749.442C1786.91 746.028 1782 738.918 1782 730.542C1782 717 1794.5 707.484 1807.43 709.536C1813.71 703.926 1822.44 702.252 1830.2 704.784C1835 700.932 1839.86 699 1845.69 699C1854.8 699 1863.52 703.59 1868.12 710.004C1879.21 710.628 1888.04 719.85 1888.04 731.094C1888.04 739.14 1884.64 746.154 1877.99 749.718V826.35C1878 830.328 1880.02 833.562 1884 833.562ZM1818 765C1818 761.688 1815.32 759 1812 759C1808.68 759 1806 761.688 1806 765V813C1806 816.312 1808.68 819 1812 819C1815.32 819 1818 816.312 1818 813V765ZM1842 765C1842 761.688 1839.32 759 1836 759C1832.68 759 1830 761.688 1830 765V813C1830 816.312 1832.68 819 1836 819C1839.32 819 1842 816.312 1842 813V765ZM1866 765C1866 761.688 1863.32 759 1860 759C1856.68 759 1854 761.688 1854 765V813C1854 816.312 1856.68 819 1860 819C1863.32 819 1866 816.312 1866 813V765ZM1878.59 731.094C1878.59 724.65 1873.36 719.43 1866.92 719.43C1865.47 719.43 1864.07 719.7 1862.79 720.186C1860.6 713.382 1854.22 708.456 1846.68 708.456C1840.55 708.456 1835.17 711.72 1832.21 716.61C1829.75 714.42 1826.51 713.094 1822.96 713.094C1817.56 713.094 1812.87 716.184 1810.57 720.69C1808.72 719.454 1806.5 718.734 1804.12 718.734C1787.38 718.734 1787.58 742.068 1804.12 742.068C1808 742.068 1811.44 740.166 1813.56 737.244C1816.03 739.518 1819.34 740.91 1822.96 740.91C1827.2 740.91 1830.98 739.02 1833.54 736.032C1836.64 739.854 1841.38 742.302 1846.67 742.302C1850.88 742.302 1854.73 740.766 1857.69 738.228C1859.82 740.988 1863.16 742.764 1866.92 742.764C1873.36 742.758 1878.59 737.532 1878.59 731.094Z" fill="white"/>
</g>
</g>
<defs>
<clipPath id="clip0_138_926">
<rect width="144" height="144" fill="white" transform="translate(1174 170.999)"/>
</clipPath>
<clipPath id="clip1_138_926">
<rect width="144" height="144" fill="white" transform="translate(1460 771)"/>
</clipPath>
<clipPath id="clip2_138_926">
<rect width="144" height="144" fill="white" transform="translate(347 463.999)"/>
</clipPath>
<clipPath id="clip3_138_926">
<rect width="144" height="144" fill="white" transform="translate(1292 463.999)"/>
</clipPath>
<clipPath id="clip4_138_926">
<rect width="144" height="144" fill="white" transform="translate(1776 699)"/>
</clipPath>
</defs>
</svg>
