<svg width="1920" height="1243" viewBox="0 0 1920 1243" fill="none" xmlns="http://www.w3.org/2000/svg">
<rect y="81" width="1920" height="1080" rx="50" fill="#FFF799"/>
<g opacity="0.15">
<mask id="mask0_136_512" style="mask-type:alpha" maskUnits="userSpaceOnUse" x="0" y="81" width="1920" height="1080">
<rect y="81" width="1920" height="1080" rx="50" fill="#D9D9D9"/>
</mask>
<g mask="url(#mask0_136_512)">
<path d="M1574.15 585.848C1592.42 580.026 1628.76 561.813 1627.97 535.537C1627.55 521.718 1623.96 512.157 1618.44 505.571C1608.91 494.213 1590.77 491.877 1578.56 500.28C1573.75 503.594 1569.9 508.249 1567.81 514.28C1555.84 548.701 1568.93 585.859 1626.88 585.739" stroke="black" stroke-width="15" stroke-linecap="round"/>
<path d="M1673.57 585.643C1655.27 579.897 1618.85 561.834 1619.54 535.555C1619.91 521.734 1623.45 512.158 1628.95 505.549C1638.43 494.152 1656.56 491.742 1668.8 500.094C1673.63 503.388 1677.49 508.028 1679.62 514.05C1691.72 548.421 1678.79 585.632 1620.84 585.752" stroke="black" stroke-width="15" stroke-linecap="round"/>
<path d="M1414.15 275.848C1432.42 270.026 1468.76 251.813 1467.97 225.538C1467.55 211.718 1463.96 202.157 1458.44 195.571C1448.91 184.213 1430.77 181.878 1418.56 190.281C1413.75 193.594 1409.9 198.25 1407.81 204.28C1395.84 238.701 1408.93 275.859 1466.88 275.74" stroke="black" stroke-width="15" stroke-linecap="round"/>
<path d="M1513.57 275.643C1495.27 269.897 1458.85 251.834 1459.54 225.555C1459.91 211.734 1463.45 202.158 1468.95 195.549C1478.43 184.152 1496.56 181.742 1508.8 190.095C1513.63 193.389 1517.49 198.028 1519.62 204.05C1531.72 238.421 1518.79 275.633 1460.84 275.752" stroke="black" stroke-width="15" stroke-linecap="round"/>
<path d="M235.152 278.848C253.423 273.026 289.765 254.813 288.967 228.538C288.547 214.718 284.961 205.157 279.438 198.571C269.914 187.213 251.773 184.878 239.562 193.281C234.747 196.594 230.904 201.25 228.807 207.28C216.84 241.701 229.931 278.859 287.877 278.74" stroke="black" stroke-width="15" stroke-linecap="round"/>
<path d="M334.566 278.643C316.271 272.897 279.855 254.834 280.544 228.555C280.907 214.734 284.454 205.158 289.949 198.549C299.427 187.152 317.558 184.742 329.803 193.095C334.632 196.389 338.494 201.028 340.616 207.05C352.724 241.421 339.787 278.633 281.84 278.752" stroke="black" stroke-width="15" stroke-linecap="round"/>
<path d="M269.152 871.848C287.423 866.026 323.765 847.813 322.967 821.537C322.547 807.718 318.961 798.157 313.438 791.571C303.914 780.213 285.773 777.877 273.562 786.28C268.747 789.594 264.904 794.249 262.807 800.28C250.84 834.701 263.931 871.859 321.877 871.739" stroke="black" stroke-width="15" stroke-linecap="round"/>
<path d="M368.566 871.643C350.271 865.897 313.855 847.834 314.544 821.555C314.907 807.734 318.454 798.158 323.949 791.549C333.427 780.152 351.558 777.742 363.803 786.094C368.632 789.388 372.494 794.028 374.616 800.05C386.724 834.421 373.787 871.632 315.84 871.752" stroke="black" stroke-width="15" stroke-linecap="round"/>
<path d="M75.1521 1012.85C93.4227 1007.03 129.765 988.813 128.967 962.537C128.547 948.718 124.961 939.157 119.438 932.571C109.914 921.213 91.773 918.877 79.5625 927.28C74.747 930.594 70.9038 935.249 68.8072 941.28C56.8404 975.701 69.931 1012.86 127.877 1012.74" stroke="black" stroke-width="15" stroke-linecap="round"/>
<path d="M174.566 1012.64C156.271 1006.9 119.855 988.834 120.544 962.555C120.907 948.734 124.454 939.158 129.949 932.549C139.427 921.152 157.558 918.742 169.803 927.094C174.632 930.388 178.494 935.028 180.616 941.05C192.724 975.421 179.787 1012.63 121.84 1012.75" stroke="black" stroke-width="15" stroke-linecap="round"/>
<path d="M263.152 1208.85C281.423 1203.03 317.765 1184.81 316.967 1158.54C316.547 1144.72 312.961 1135.16 307.438 1128.57C297.914 1117.21 279.773 1114.88 267.562 1123.28C262.747 1126.59 258.904 1131.25 256.807 1137.28C244.84 1171.7 257.931 1208.86 315.877 1208.74" stroke="black" stroke-width="15" stroke-linecap="round"/>
<path d="M362.566 1208.64C344.271 1202.9 307.855 1184.83 308.544 1158.55C308.907 1144.73 312.454 1135.16 317.949 1128.55C327.427 1117.15 345.558 1114.74 357.803 1123.09C362.632 1126.39 366.494 1131.03 368.616 1137.05C380.724 1171.42 367.787 1208.63 309.84 1208.75" stroke="black" stroke-width="15" stroke-linecap="round"/>
<path d="M520.152 1052.85C538.423 1047.03 574.765 1028.81 573.967 1002.54C573.547 988.718 569.961 979.157 564.438 972.571C554.914 961.213 536.773 958.877 524.562 967.28C519.747 970.594 515.904 975.249 513.807 981.28C501.84 1015.7 514.931 1052.86 572.877 1052.74" stroke="black" stroke-width="15" stroke-linecap="round"/>
<path d="M619.566 1052.64C601.271 1046.9 564.855 1028.83 565.544 1002.55C565.907 988.734 569.454 979.158 574.949 972.549C584.427 961.152 602.558 958.742 614.803 967.094C619.632 970.388 623.494 975.028 625.616 981.05C637.724 1015.42 624.787 1052.63 566.84 1052.75" stroke="black" stroke-width="15" stroke-linecap="round"/>
<path d="M1231.15 977.848C1249.42 972.026 1285.76 953.813 1284.97 927.537C1284.55 913.718 1280.96 904.157 1275.44 897.571C1265.91 886.213 1247.77 883.877 1235.56 892.28C1230.75 895.594 1226.9 900.249 1224.81 906.28C1212.84 940.701 1225.93 977.859 1283.88 977.739" stroke="black" stroke-width="15" stroke-linecap="round"/>
<path d="M1330.57 977.643C1312.27 971.897 1275.85 953.834 1276.54 927.555C1276.91 913.734 1280.45 904.158 1285.95 897.549C1295.43 886.152 1313.56 883.742 1325.8 892.094C1330.63 895.388 1334.49 900.028 1336.62 906.05C1348.72 940.421 1335.79 977.632 1277.84 977.752" stroke="black" stroke-width="15" stroke-linecap="round"/>
<path d="M889.152 255.848C907.423 250.026 943.765 231.813 942.967 205.538C942.547 191.718 938.961 182.157 933.438 175.571C923.914 164.213 905.773 161.878 893.562 170.281C888.747 173.594 884.904 178.25 882.807 184.28C870.84 218.701 883.931 255.859 941.877 255.74" stroke="black" stroke-width="15" stroke-linecap="round"/>
<path d="M988.566 255.643C970.271 249.897 933.855 231.834 934.544 205.555C934.907 191.734 938.454 182.158 943.949 175.549C953.427 164.152 971.558 161.742 983.803 170.095C988.632 173.389 992.494 178.028 994.616 184.05C1006.72 218.421 993.787 255.633 935.84 255.752" stroke="black" stroke-width="15" stroke-linecap="round"/>
<path d="M1678.15 977.848C1696.42 972.026 1732.76 953.813 1731.97 927.537C1731.55 913.718 1727.96 904.157 1722.44 897.571C1712.91 886.213 1694.77 883.877 1682.56 892.28C1677.75 895.594 1673.9 900.249 1671.81 906.28C1659.84 940.701 1672.93 977.859 1730.88 977.739" stroke="black" stroke-width="15" stroke-linecap="round"/>
<path d="M1777.57 977.643C1759.27 971.897 1722.85 953.834 1723.54 927.555C1723.91 913.734 1727.45 904.158 1732.95 897.549C1742.43 886.152 1760.56 883.742 1772.8 892.094C1777.63 895.388 1781.49 900.028 1783.62 906.05C1795.72 940.421 1782.79 977.632 1724.84 977.752" stroke="black" stroke-width="15" stroke-linecap="round"/>
<path d="M564.152 747.848C582.423 742.026 618.765 723.813 617.967 697.537C617.547 683.718 613.961 674.157 608.438 667.571C598.914 656.213 580.773 653.877 568.562 662.28C563.747 665.594 559.904 670.249 557.807 676.28C545.84 710.701 558.931 747.859 616.877 747.739" stroke="black" stroke-width="15" stroke-linecap="round"/>
<path d="M663.566 747.643C645.271 741.897 608.855 723.834 609.544 697.555C609.907 683.734 613.454 674.158 618.949 667.549C628.427 656.152 646.558 653.742 658.803 662.094C663.632 665.388 667.494 670.028 669.616 676.05C681.724 710.421 668.787 747.632 610.84 747.752" stroke="black" stroke-width="15" stroke-linecap="round"/>
<path d="M-29.8479 410.848C-11.5773 405.026 24.7645 386.813 23.9667 360.537C23.5471 346.718 19.9609 337.157 14.438 330.571C4.91398 319.213 -13.227 316.877 -25.4375 325.28C-30.253 328.594 -34.0962 333.249 -36.1928 339.28C-48.1596 373.701 -35.069 410.859 22.8773 410.739" stroke="black" stroke-width="15" stroke-linecap="round"/>
<path d="M69.5657 410.643C51.2712 404.897 14.8547 386.834 15.5442 360.555C15.9069 346.734 19.4536 337.158 24.9494 330.549C34.4265 319.152 52.5578 316.742 64.8028 325.094C69.6318 328.388 73.4942 333.028 75.6157 339.05C87.7242 373.421 74.7868 410.632 16.8405 410.752" stroke="black" stroke-width="15" stroke-linecap="round"/>
<path d="M495.152 135.848C513.423 130.026 549.765 111.813 548.967 85.5376C548.547 71.7185 544.961 62.1571 539.438 55.5709C529.914 44.2131 511.773 41.8776 499.562 50.2806C494.747 53.5945 490.904 58.2495 488.807 64.2802C476.84 98.701 489.931 135.859 547.877 135.74" stroke="black" stroke-width="15" stroke-linecap="round"/>
<path d="M594.566 135.643C576.271 129.897 539.855 111.834 540.544 85.555C540.907 71.7343 544.454 62.1582 549.949 55.5492C559.427 44.1523 577.558 41.7421 589.803 50.0947C594.632 53.3887 598.494 58.0279 600.616 64.0499C612.724 98.421 599.787 135.633 541.84 135.752" stroke="black" stroke-width="15" stroke-linecap="round"/>
<path d="M1808.15 170.848C1826.42 165.026 1862.76 146.813 1861.97 120.538C1861.55 106.718 1857.96 97.1571 1852.44 90.5709C1842.91 79.2131 1824.77 76.8776 1812.56 85.2806C1807.75 88.5945 1803.9 93.2495 1801.81 99.2802C1789.84 133.701 1802.93 170.859 1860.88 170.74" stroke="black" stroke-width="15" stroke-linecap="round"/>
<path d="M1907.57 170.643C1889.27 164.897 1852.85 146.834 1853.54 120.555C1853.91 106.734 1857.45 97.1582 1862.95 90.5492C1872.43 79.1523 1890.56 76.7421 1902.8 85.0947C1907.63 88.3887 1911.49 93.0279 1913.62 99.0499C1925.72 133.421 1912.79 170.633 1854.84 170.752" stroke="black" stroke-width="15" stroke-linecap="round"/>
<path d="M1880.15 558.848C1898.42 553.026 1934.76 534.813 1933.97 508.537C1933.55 494.718 1929.96 485.157 1924.44 478.571C1914.91 467.213 1896.77 464.877 1884.56 473.28C1879.75 476.594 1875.9 481.249 1873.81 487.28C1861.84 521.701 1874.93 558.859 1932.88 558.739" stroke="black" stroke-width="15" stroke-linecap="round"/>
<path d="M1979.57 558.643C1961.27 552.897 1924.85 534.834 1925.54 508.555C1925.91 494.734 1929.45 485.158 1934.95 478.549C1944.43 467.152 1962.56 464.742 1974.8 473.094C1979.63 476.388 1983.49 481.028 1985.62 487.05C1997.72 521.421 1984.79 558.632 1926.84 558.752" stroke="black" stroke-width="15" stroke-linecap="round"/>
<path d="M1884.15 1121.85C1902.42 1116.03 1938.76 1097.81 1937.97 1071.54C1937.55 1057.72 1933.96 1048.16 1928.44 1041.57C1918.91 1030.21 1900.77 1027.88 1888.56 1036.28C1883.75 1039.59 1879.9 1044.25 1877.81 1050.28C1865.84 1084.7 1878.93 1121.86 1936.88 1121.74" stroke="black" stroke-width="15" stroke-linecap="round"/>
</g>
<path d="M1742 312.712C1742 327.946 1731.25 347.212 1712 354.49V341.53C1730.92 330.55 1735.81 304 1721.32 304H1712V292H1723.47C1736.34 292 1742 301.204 1742 312.712ZM1712 372.562V382H1616V372.562C1619.98 372.562 1622 369.328 1622 365.344V288.442C1614.91 285.028 1610 277.918 1610 269.542C1610 256 1622.5 246.484 1635.43 248.536C1641.71 242.926 1650.44 241.252 1658.2 243.784C1663 239.932 1667.86 238 1673.69 238C1682.8 238 1691.52 242.59 1696.12 249.004C1707.21 249.628 1716.04 258.85 1716.04 270.094C1716.04 278.14 1712.64 285.154 1705.99 288.718V365.35C1706 369.328 1708.02 372.562 1712 372.562ZM1646 304C1646 300.688 1643.32 298 1640 298C1636.68 298 1634 300.688 1634 304V352C1634 355.312 1636.68 358 1640 358C1643.32 358 1646 355.312 1646 352V304ZM1670 304C1670 300.688 1667.32 298 1664 298C1660.68 298 1658 300.688 1658 304V352C1658 355.312 1660.68 358 1664 358C1667.32 358 1670 355.312 1670 352V304ZM1694 304C1694 300.688 1691.32 298 1688 298C1684.68 298 1682 300.688 1682 304V352C1682 355.312 1684.68 358 1688 358C1691.32 358 1694 355.312 1694 352V304ZM1706.59 270.094C1706.59 263.65 1701.36 258.43 1694.92 258.43C1693.47 258.43 1692.07 258.7 1690.79 259.186C1688.6 252.382 1682.22 247.456 1674.68 247.456C1668.55 247.456 1663.17 250.72 1660.21 255.61C1657.75 253.42 1654.51 252.094 1650.96 252.094C1645.56 252.094 1640.87 255.184 1638.57 259.69C1636.72 258.454 1634.5 257.734 1632.12 257.734C1615.38 257.734 1615.58 281.068 1632.12 281.068C1636 281.068 1639.44 279.166 1641.56 276.244C1644.03 278.518 1647.34 279.91 1650.96 279.91C1655.2 279.91 1658.98 278.02 1661.54 275.032C1664.64 278.854 1669.38 281.302 1674.67 281.302C1678.88 281.302 1682.73 279.766 1685.69 277.228C1687.82 279.988 1691.16 281.764 1694.92 281.764C1701.36 281.758 1706.59 276.532 1706.59 270.094Z" fill="black"/>
<path d="M1598 802.712C1598 817.946 1587.25 837.212 1568 844.49V831.53C1586.92 820.55 1591.81 794 1577.32 794H1568V782H1579.47C1592.34 782 1598 791.204 1598 802.712ZM1568 862.562V872H1472V862.562C1475.98 862.562 1478 859.328 1478 855.344V778.442C1470.91 775.028 1466 767.918 1466 759.542C1466 746 1478.5 736.484 1491.43 738.536C1497.71 732.926 1506.44 731.252 1514.2 733.784C1519 729.932 1523.86 728 1529.69 728C1538.8 728 1547.52 732.59 1552.12 739.004C1563.21 739.628 1572.04 748.85 1572.04 760.094C1572.04 768.14 1568.64 775.154 1561.99 778.718V855.35C1562 859.328 1564.02 862.562 1568 862.562ZM1502 794C1502 790.688 1499.32 788 1496 788C1492.68 788 1490 790.688 1490 794V842C1490 845.312 1492.68 848 1496 848C1499.32 848 1502 845.312 1502 842V794ZM1526 794C1526 790.688 1523.32 788 1520 788C1516.68 788 1514 790.688 1514 794V842C1514 845.312 1516.68 848 1520 848C1523.32 848 1526 845.312 1526 842V794ZM1550 794C1550 790.688 1547.32 788 1544 788C1540.68 788 1538 790.688 1538 794V842C1538 845.312 1540.68 848 1544 848C1547.32 848 1550 845.312 1550 842V794ZM1562.59 760.094C1562.59 753.65 1557.36 748.43 1550.92 748.43C1549.47 748.43 1548.07 748.7 1546.79 749.186C1544.6 742.382 1538.22 737.456 1530.68 737.456C1524.55 737.456 1519.17 740.72 1516.21 745.61C1513.75 743.42 1510.51 742.094 1506.96 742.094C1501.56 742.094 1496.87 745.184 1494.57 749.69C1492.72 748.454 1490.5 747.734 1488.12 747.734C1471.38 747.734 1471.58 771.068 1488.12 771.068C1492 771.068 1495.44 769.166 1497.56 766.244C1500.03 768.518 1503.34 769.91 1506.96 769.91C1511.2 769.91 1514.98 768.02 1517.54 765.032C1520.64 768.854 1525.38 771.302 1530.67 771.302C1534.88 771.302 1538.73 769.766 1541.69 767.228C1543.82 769.988 1547.16 771.764 1550.92 771.764C1557.36 771.758 1562.59 766.532 1562.59 760.094Z" fill="black"/>
<mask id="mask1_136_512" style="mask-type:alpha" maskUnits="userSpaceOnUse" x="0" y="81" width="1920" height="1080">
<rect y="81" width="1920" height="1080" rx="50" fill="#D9D9D9"/>
</mask>
<g mask="url(#mask1_136_512)">
<path d="M813.152 1229.85C831.423 1224.03 867.765 1205.81 866.967 1179.54C866.547 1165.72 862.961 1156.16 857.438 1149.57C847.914 1138.21 829.773 1135.88 817.562 1144.28C812.747 1147.59 808.904 1152.25 806.807 1158.28C794.84 1192.7 807.931 1229.86 865.877 1229.74" stroke="black" stroke-width="15" stroke-linecap="round"/>
<path d="M912.566 1229.64C894.271 1223.9 857.855 1205.83 858.544 1179.55C858.907 1165.73 862.454 1156.16 867.949 1149.55C877.427 1138.15 895.558 1135.74 907.803 1144.09C912.632 1147.39 916.494 1152.03 918.616 1158.05C930.724 1192.42 917.787 1229.63 859.84 1229.75" stroke="black" stroke-width="15" stroke-linecap="round"/>
<path d="M1444.15 1183.85C1462.42 1178.03 1498.76 1159.81 1497.97 1133.54C1497.55 1119.72 1493.96 1110.16 1488.44 1103.57C1478.91 1092.21 1460.77 1089.88 1448.56 1098.28C1443.75 1101.59 1439.9 1106.25 1437.81 1112.28C1425.84 1146.7 1438.93 1183.86 1496.88 1183.74" stroke="black" stroke-width="15" stroke-linecap="round"/>
<path d="M1543.57 1183.64C1525.27 1177.9 1488.85 1159.83 1489.54 1133.55C1489.91 1119.73 1493.45 1110.16 1498.95 1103.55C1508.43 1092.15 1526.56 1089.74 1538.8 1098.09C1543.63 1101.39 1547.49 1106.03 1549.62 1112.05C1561.72 1146.42 1548.79 1183.63 1490.84 1183.75" stroke="black" stroke-width="15" stroke-linecap="round"/>
</g>
<path d="M485 495.712C485 510.946 474.254 530.212 455 537.49V524.53C473.924 513.55 478.814 487 464.318 487H455V475H466.472C479.336 475 485 484.204 485 495.712ZM455 555.562V565H359V555.562C362.984 555.562 365 552.328 365 548.344V471.442C357.914 468.028 353 460.918 353 452.542C353 439 365.504 429.484 378.428 431.536C384.71 425.926 393.44 424.252 401.198 426.784C406.004 422.932 410.864 421 416.69 421C425.798 421 434.516 425.59 439.118 432.004C450.206 432.628 459.038 441.85 459.038 453.094C459.038 461.14 455.636 468.154 448.994 471.718V548.35C449 552.328 451.016 555.562 455 555.562ZM389 487C389 483.688 386.318 481 383 481C379.682 481 377 483.688 377 487V535C377 538.312 379.682 541 383 541C386.318 541 389 538.312 389 535V487ZM413 487C413 483.688 410.318 481 407 481C403.682 481 401 483.688 401 487V535C401 538.312 403.682 541 407 541C410.318 541 413 538.312 413 535V487ZM437 487C437 483.688 434.318 481 431 481C427.682 481 425 483.688 425 487V535C425 538.312 427.682 541 431 541C434.318 541 437 538.312 437 535V487ZM449.588 453.094C449.588 446.65 444.362 441.43 437.924 441.43C436.466 441.43 435.068 441.7 433.79 442.186C431.6 435.382 425.216 430.456 417.68 430.456C411.554 430.456 406.172 433.72 403.208 438.61C400.748 436.42 397.508 435.094 393.962 435.094C388.556 435.094 383.87 438.184 381.572 442.69C379.724 441.454 377.504 440.734 375.116 440.734C358.376 440.734 358.58 464.068 375.116 464.068C378.998 464.068 382.442 462.166 384.56 459.244C387.032 461.518 390.338 462.91 393.962 462.91C398.198 462.91 401.984 461.02 404.54 458.032C407.642 461.854 412.376 464.302 417.674 464.302C421.88 464.302 425.726 462.766 428.69 460.228C430.82 462.988 434.162 464.764 437.918 464.764C444.362 464.758 449.588 459.532 449.588 453.094Z" fill="black"/>
<path d="M1430 495.712C1430 510.946 1419.25 530.212 1400 537.49V524.53C1418.92 513.55 1423.81 487 1409.32 487H1400V475H1411.47C1424.34 475 1430 484.204 1430 495.712ZM1400 555.562V565H1304V555.562C1307.98 555.562 1310 552.328 1310 548.344V471.442C1302.91 468.028 1298 460.918 1298 452.542C1298 439 1310.5 429.484 1323.43 431.536C1329.71 425.926 1338.44 424.252 1346.2 426.784C1351 422.932 1355.86 421 1361.69 421C1370.8 421 1379.52 425.59 1384.12 432.004C1395.21 432.628 1404.04 441.85 1404.04 453.094C1404.04 461.14 1400.64 468.154 1393.99 471.718V548.35C1394 552.328 1396.02 555.562 1400 555.562ZM1334 487C1334 483.688 1331.32 481 1328 481C1324.68 481 1322 483.688 1322 487V535C1322 538.312 1324.68 541 1328 541C1331.32 541 1334 538.312 1334 535V487ZM1358 487C1358 483.688 1355.32 481 1352 481C1348.68 481 1346 483.688 1346 487V535C1346 538.312 1348.68 541 1352 541C1355.32 541 1358 538.312 1358 535V487ZM1382 487C1382 483.688 1379.32 481 1376 481C1372.68 481 1370 483.688 1370 487V535C1370 538.312 1372.68 541 1376 541C1379.32 541 1382 538.312 1382 535V487ZM1394.59 453.094C1394.59 446.65 1389.36 441.43 1382.92 441.43C1381.47 441.43 1380.07 441.7 1378.79 442.186C1376.6 435.382 1370.22 430.456 1362.68 430.456C1356.55 430.456 1351.17 433.72 1348.21 438.61C1345.75 436.42 1342.51 435.094 1338.96 435.094C1333.56 435.094 1328.87 438.184 1326.57 442.69C1324.72 441.454 1322.5 440.734 1320.12 440.734C1303.38 440.734 1303.58 464.068 1320.12 464.068C1324 464.068 1327.44 462.166 1329.56 459.244C1332.03 461.518 1335.34 462.91 1338.96 462.91C1343.2 462.91 1346.98 461.02 1349.54 458.032C1352.64 461.854 1357.38 464.302 1362.67 464.302C1366.88 464.302 1370.73 462.766 1373.69 460.228C1375.82 462.988 1379.16 464.764 1382.92 464.764C1389.36 464.758 1394.59 459.532 1394.59 453.094Z" fill="black"/>
<path d="M1914 730.712C1914 745.946 1903.25 765.212 1884 772.49V759.53C1902.92 748.55 1907.81 722 1893.32 722H1884V710H1895.47C1908.34 710 1914 719.204 1914 730.712ZM1884 790.562V800H1788V790.562C1791.98 790.562 1794 787.328 1794 783.344V706.442C1786.91 703.028 1782 695.918 1782 687.542C1782 674 1794.5 664.484 1807.43 666.536C1813.71 660.926 1822.44 659.252 1830.2 661.784C1835 657.932 1839.86 656 1845.69 656C1854.8 656 1863.52 660.59 1868.12 667.004C1879.21 667.628 1888.04 676.85 1888.04 688.094C1888.04 696.14 1884.64 703.154 1877.99 706.718V783.35C1878 787.328 1880.02 790.562 1884 790.562ZM1818 722C1818 718.688 1815.32 716 1812 716C1808.68 716 1806 718.688 1806 722V770C1806 773.312 1808.68 776 1812 776C1815.32 776 1818 773.312 1818 770V722ZM1842 722C1842 718.688 1839.32 716 1836 716C1832.68 716 1830 718.688 1830 722V770C1830 773.312 1832.68 776 1836 776C1839.32 776 1842 773.312 1842 770V722ZM1866 722C1866 718.688 1863.32 716 1860 716C1856.68 716 1854 718.688 1854 722V770C1854 773.312 1856.68 776 1860 776C1863.32 776 1866 773.312 1866 770V722ZM1878.59 688.094C1878.59 681.65 1873.36 676.43 1866.92 676.43C1865.47 676.43 1864.07 676.7 1862.79 677.186C1860.6 670.382 1854.22 665.456 1846.68 665.456C1840.55 665.456 1835.17 668.72 1832.21 673.61C1829.75 671.42 1826.51 670.094 1822.96 670.094C1817.56 670.094 1812.87 673.184 1810.57 677.69C1808.72 676.454 1806.5 675.734 1804.12 675.734C1787.38 675.734 1787.58 699.068 1804.12 699.068C1808 699.068 1811.44 697.166 1813.56 694.244C1816.03 696.518 1819.34 697.91 1822.96 697.91C1827.2 697.91 1830.98 696.02 1833.54 693.032C1836.64 696.854 1841.38 699.302 1846.67 699.302C1850.88 699.302 1854.73 697.766 1857.69 695.228C1859.82 697.988 1863.16 699.764 1866.92 699.764C1873.36 699.758 1878.59 694.532 1878.59 688.094Z" fill="black"/>
<path d="M179 632.712C179 647.946 168.254 667.212 149 674.49V661.53C167.924 650.55 172.814 624 158.318 624H149V612H160.472C173.336 612 179 621.204 179 632.712ZM149 692.562V702H53V692.562C56.984 692.562 59 689.328 59 685.344V608.442C51.914 605.028 47 597.918 47 589.542C47 576 59.504 566.484 72.428 568.536C78.71 562.926 87.44 561.252 95.198 563.784C100.004 559.932 104.864 558 110.69 558C119.798 558 128.516 562.59 133.118 569.004C144.206 569.628 153.038 578.85 153.038 590.094C153.038 598.14 149.636 605.154 142.994 608.718V685.35C143 689.328 145.016 692.562 149 692.562ZM83 624C83 620.688 80.318 618 77 618C73.682 618 71 620.688 71 624V672C71 675.312 73.682 678 77 678C80.318 678 83 675.312 83 672V624ZM107 624C107 620.688 104.318 618 101 618C97.682 618 95 620.688 95 624V672C95 675.312 97.682 678 101 678C104.318 678 107 675.312 107 672V624ZM131 624C131 620.688 128.318 618 125 618C121.682 618 119 620.688 119 624V672C119 675.312 121.682 678 125 678C128.318 678 131 675.312 131 672V624ZM143.588 590.094C143.588 583.65 138.362 578.43 131.924 578.43C130.466 578.43 129.068 578.7 127.79 579.186C125.6 572.382 119.216 567.456 111.68 567.456C105.554 567.456 100.172 570.72 97.208 575.61C94.748 573.42 91.508 572.094 87.962 572.094C82.556 572.094 77.87 575.184 75.572 579.69C73.724 578.454 71.504 577.734 69.116 577.734C52.376 577.734 52.58 601.068 69.116 601.068C72.998 601.068 76.442 599.166 78.56 596.244C81.032 598.518 84.338 599.91 87.962 599.91C92.198 599.91 95.984 598.02 98.54 595.032C101.642 598.854 106.376 601.302 111.674 601.302C115.88 601.302 119.726 599.766 122.69 597.228C124.82 599.988 128.162 601.764 131.918 601.764C138.362 601.758 143.588 596.532 143.588 590.094Z" fill="black"/>
</g>
<g opacity="0.58" filter="url(#filter0_f_136_512)">
<path d="M647.66 749.641C647.66 831.515 681.27 912.792 739.14 970.762C797.009 1028.73 878.42 1062.2 960.16 1062.2C1042.02 1062.2 1123.28 1028.43 1181.24 970.762C1239.2 912.792 1272.66 831.515 1272.66 749.641V292.271C1272.66 283.297 1265.39 276.022 1256.41 276.021L663.912 275.95C654.937 275.949 647.66 283.225 647.66 292.2V749.641Z" fill="black" stroke="black" stroke-width="19.4455"/>
<path fill-rule="evenodd" clip-rule="evenodd" d="M1327.52 219.563C984.373 151.41 695.412 191.552 596.897 218.975L551.988 231.476C549.014 232.304 546.007 230.265 545.676 227.195L529.236 74.6873C528.974 72.2552 530.509 69.9905 532.866 69.3345L579.37 56.3894C687.854 26.191 986.966 -14.3376 1340.12 55.8017L1386.72 65.0575C1389.2 65.5506 1390.92 67.8213 1390.73 70.3452L1378.91 224.064C1378.68 227.053 1375.89 229.169 1372.95 228.585L1327.52 219.563Z" fill="black"/>
<path fill-rule="evenodd" clip-rule="evenodd" d="M522.613 149.566C522.289 146.56 519.391 144.527 516.454 145.245L383.849 177.688C379.505 178.75 378.634 184.546 382.475 186.838L461.087 233.756C463.341 235.101 464.171 237.96 462.987 240.304L418.532 328.324C416.608 332.132 420.032 336.445 424.177 335.436L625.283 286.486C627.577 285.928 629.168 283.841 629.098 281.481L627.666 232.764C627.574 229.641 624.672 227.366 621.622 228.043C609.653 230.703 599.064 233.342 589.941 235.883L539.284 249.992C536.31 250.821 533.302 248.781 532.972 245.711L522.613 149.566Z" fill="black"/>
<path fill-rule="evenodd" clip-rule="evenodd" d="M1292.14 234.293C1292.23 231.243 1295.01 228.983 1298.01 229.525C1310.27 231.739 1322.6 234.075 1335 236.538L1386.21 246.716C1389.15 247.3 1391.94 245.184 1392.17 242.195L1399.24 150.213C1399.48 147.136 1402.42 145.006 1405.42 145.74L1536 177.688C1540.35 178.75 1541.22 184.546 1537.38 186.838L1458.76 233.756C1456.51 235.101 1455.68 237.961 1456.86 240.304L1501.32 328.324C1503.24 332.132 1499.82 336.445 1495.67 335.436L1294.57 286.486C1292.27 285.928 1290.68 283.841 1290.75 281.481L1292.14 234.293Z" fill="black"/>
<path fill-rule="evenodd" clip-rule="evenodd" d="M1268.8 1069.87C979.502 1122.26 735.886 1091.41 652.831 1070.33L615.707 1060.9C612.779 1060.16 609.866 1062.16 609.511 1065.16L595.919 1180.13C595.625 1182.62 597.222 1184.94 599.655 1185.56L638.054 1195.31C729.514 1218.52 981.687 1249.67 1279.42 1195.76L1317.9 1188.79C1320.44 1188.33 1322.21 1186.02 1322 1183.45L1312.22 1067.57C1311.97 1064.64 1309.25 1062.55 1306.35 1063.07L1268.8 1069.87Z" fill="black"/>
<path fill-rule="evenodd" clip-rule="evenodd" d="M590.339 1122.55C589.992 1125.49 587.177 1127.48 584.285 1126.84L476.235 1102.74C471.726 1101.73 470.876 1095.67 474.933 1093.46L537.282 1059.54C539.721 1058.21 540.611 1055.15 539.266 1052.72L503.714 988.539C501.627 984.77 504.965 980.302 509.172 981.235L676.032 1018.27C678.38 1018.79 680.024 1020.91 679.946 1023.31L678.813 1058.46C678.714 1061.54 675.878 1063.8 672.859 1063.19C663.103 1061.2 654.45 1059.23 646.967 1057.33L604.998 1046.67C602.07 1045.93 599.156 1047.93 598.802 1050.93L590.339 1122.55Z" fill="black"/>
<path fill-rule="evenodd" clip-rule="evenodd" d="M1238.93 1057.32C1239.03 1060.33 1241.75 1062.57 1244.73 1062.08C1254.8 1060.42 1264.93 1058.67 1275.11 1056.83L1317.53 1049.14C1320.44 1048.61 1323.16 1050.7 1323.41 1053.64L1329.17 1121.99C1329.42 1125.01 1332.28 1127.11 1335.24 1126.45L1441.55 1102.74C1446.06 1101.73 1446.91 1095.67 1442.85 1093.47L1380.5 1059.54C1378.06 1058.21 1377.17 1055.15 1378.52 1052.72L1414.07 988.54C1416.16 984.771 1412.82 980.302 1408.61 981.236L1241.75 1018.27C1239.4 1018.79 1237.76 1020.91 1237.84 1023.31L1238.93 1057.32Z" fill="black"/>
<path d="M1297.43 246.755C1299.73 245.554 1302.57 246.498 1303.69 248.837L1361.28 368.781C1362.33 370.972 1361.49 373.604 1359.36 374.781L1281.48 417.89C1279.15 419.179 1276.21 418.221 1275.09 415.806L1218.16 293.084C1217.13 290.861 1218.03 288.22 1220.2 287.086L1297.43 246.755Z" fill="black"/>
<path fill-rule="evenodd" clip-rule="evenodd" d="M1357.14 370.767L1299.56 250.823L1222.32 291.153L1279.26 413.875L1357.14 370.767ZM1303.69 248.837C1302.57 246.498 1299.73 245.554 1297.43 246.755L1220.2 287.086C1218.03 288.22 1217.13 290.861 1218.16 293.084L1275.09 415.806C1276.21 418.221 1279.15 419.179 1281.48 417.89L1359.36 374.781C1361.49 373.604 1362.33 370.972 1361.28 368.781L1303.69 248.837Z" fill="black"/>
<path d="M1300.75 263.055L1331.03 323.596L1259.91 362.474L1230.08 299.855L1300.75 263.055Z" fill="black"/>
<path d="M1255.32 300.049L1262.2 283.864C1267.55 280.781 1280.56 274.616 1285.14 272.304C1290.95 269.379 1296.62 283.864 1301.2 286.176C1305.79 288.488 1305.79 304.673 1305.79 306.985C1305.79 308.834 1292.03 320.086 1285.14 325.481H1269.08L1259.91 327.793C1258.38 324.711 1255.32 318.083 1255.32 316.233V300.049Z" fill="black"/>
<path fill-rule="evenodd" clip-rule="evenodd" d="M1275.9 291.467L1269.54 282.922L1273.22 280.182L1280.63 290.133L1278.3 315.92L1285 333.929L1280.7 335.529L1273.64 316.545L1275.9 291.467Z" fill="black"/>
<path d="M1333.33 327.793L1353.97 369.838L1282.85 408.715L1262.66 364.593L1333.33 327.793Z" fill="black"/>
<path d="M1292.84 255.773C1294.82 254.742 1297.25 255.731 1297.95 257.852L-nan -nanL-nan -nanL1297.95 257.852C1298.51 259.524 1297.78 261.351 1296.23 262.185L1233.39 295.96C1231.51 296.966 1229.18 296.38 1228.01 294.608L-nan -nanL-nan -nanL1228.01 294.608C1226.66 292.573 1227.38 289.819 1229.54 288.693L1292.84 255.773Z" fill="black"/>
<path d="M1258.86 275.184C1259.48 274.847 1260.25 274.96 1260.75 275.461L-nan -nanL-nan -nanL1260.75 275.461C1261.48 276.202 1261.32 277.438 1260.41 277.959L1233.06 293.707C1231.74 294.471 1230.08 293.514 1230.08 291.984L-nan -nanL-nan -nanL1230.08 291.984C1230.08 291.254 1230.48 290.583 1231.12 290.236L1258.86 275.184Z" fill="black"/>
<path d="M1329.99 346.858C1330.61 346.522 1331.37 346.633 1331.87 347.132L-nan -nanL-nan -nanL1331.87 347.132C1332.6 347.872 1332.43 349.107 1331.52 349.62L1278.96 379.283C1277.62 380.037 1275.97 379.071 1275.97 377.537L-nan -nanL-nan -nanL1275.97 377.537C1275.97 376.803 1276.37 376.128 1277.01 375.776L1329.99 346.858Z" fill="black"/>
<path d="M1309.34 369.978C1309.96 369.642 1310.72 369.755 1311.22 370.256L-nan -nanL-nan -nanL1311.22 370.256C1311.96 370.996 1311.79 372.232 1310.89 372.753L1283.54 388.502C1282.21 389.265 1280.56 388.308 1280.56 386.778L-nan -nanL-nan -nanL1280.56 386.778C1280.56 386.049 1280.96 385.378 1281.6 385.03L1309.34 369.978Z" fill="black"/>
<path d="M-nan -nanL1290.55 258.646C1291.19 258.51 1291.87 258.679 1292.37 259.102L-nan -nanL-nan -nanL1292.37 259.102C1293.39 259.959 1293.39 261.528 1292.37 262.385L-nan -nanL-nan -nanL1292.37 262.385C1291.87 262.808 1291.19 262.977 1290.55 262.841L-nan -nanL-nan -nanL1290.55 262.841C1288.28 262.364 1288.28 259.122 1290.55 258.646L-nan -nanL-nan -nanZ" fill="black"/>
<path fill-rule="evenodd" clip-rule="evenodd" d="M1285.76 320.211L1274.78 313.572L1277.16 309.645L1289.12 316.878L1295.86 328.201L1301.94 330.242L1300.48 334.592L1292.79 332.009L1285.76 320.211Z" fill="black"/>
<path d="M621.279 246.578C618.979 245.377 616.141 246.32 615.018 248.659L557.434 368.603C556.382 370.794 557.222 373.426 559.349 374.603L637.234 417.712C639.563 419.001 642.498 418.043 643.618 415.628L700.552 292.906C701.584 290.683 700.686 288.042 698.514 286.908L621.279 246.578Z" fill="black"/>
<path fill-rule="evenodd" clip-rule="evenodd" d="M561.571 370.589L619.155 250.645L696.39 290.975L639.456 413.697L561.571 370.589ZM615.018 248.659C616.141 246.32 618.979 245.377 621.279 246.578L698.514 286.908C700.686 288.042 701.584 290.683 700.552 292.906L643.618 415.628C642.498 418.043 639.563 419.001 637.234 417.712L559.349 374.603C557.222 373.426 556.382 370.794 557.434 368.603L615.018 248.659Z" fill="black"/>
<path d="M617.963 262.878L587.682 323.419L658.804 362.296L688.63 299.677L617.963 262.878Z" fill="black"/>
<path fill-rule="evenodd" clip-rule="evenodd" d="M658.005 316.828C657.982 316.793 657.958 316.759 657.933 316.724C655.351 313.027 650.672 308.467 644.365 304.312C638.058 300.157 632.021 297.658 627.605 296.745C627.563 296.737 627.522 296.728 627.481 296.72C627.505 296.754 627.529 296.789 627.553 296.824C630.135 300.521 634.814 305.081 641.121 309.236C647.428 313.391 653.466 315.89 657.881 316.803C657.923 316.811 657.964 316.82 658.005 316.828ZM636.073 316.9C650.129 326.16 664.511 329.133 668.195 323.54C671.879 317.948 663.47 305.908 649.414 296.648C635.357 287.388 620.975 284.415 617.291 290.008C613.607 295.6 622.016 307.64 636.073 316.9Z" fill="black"/>
<path d="M644.608 279.881L658.599 286.748L647.555 309.251L633.564 302.385L644.608 279.881Z" fill="black"/>
<path d="M585.383 327.615L564.736 369.66L635.858 408.537L656.051 364.415L585.383 327.615Z" fill="black"/>
<path d="M625.873 255.595C623.891 254.564 621.457 255.553 620.756 257.674L-nan -nanL-nan -nanL620.756 257.674C620.203 259.346 620.931 261.174 622.482 262.007L685.324 295.782C687.196 296.788 689.525 296.202 690.698 294.43L-nan -nanL-nan -nanL690.698 294.43C692.044 292.395 691.331 289.642 689.166 288.516L625.873 255.595Z" fill="black"/>
<path d="M627.729 258.822C627.109 258.485 626.34 258.598 625.843 259.099L-nan -nanL-nan -nanL625.843 259.099C625.108 259.84 625.274 261.076 626.178 261.596L653.526 277.345C654.852 278.109 656.508 277.152 656.508 275.622L-nan -nanL-nan -nanL656.508 275.622C656.508 274.892 656.109 274.221 655.467 273.873L627.729 258.822Z" fill="black"/>
<path d="M588.722 346.68C588.105 346.344 587.339 346.455 586.844 346.954L-nan -nanL-nan -nanL586.844 346.954C586.11 347.694 586.281 348.929 587.189 349.442L639.752 379.105C641.089 379.859 642.743 378.894 642.743 377.359L-nan -nanL-nan -nanL642.743 377.359C642.743 376.625 642.343 375.95 641.699 375.599L588.722 346.68Z" fill="black"/>
<path fill-rule="evenodd" clip-rule="evenodd" d="M626.637 270.254L631.226 293.197L626.726 294.097L622.138 271.154L626.637 270.254Z" fill="black"/>
<path fill-rule="evenodd" clip-rule="evenodd" d="M680.009 305.019L657.63 311.849L656.291 307.461L678.669 300.63L680.009 305.019Z" fill="black"/>
<path fill-rule="evenodd" clip-rule="evenodd" d="M601.132 300.543L624.31 297.349L624.937 301.895L601.759 305.089L601.132 300.543Z" fill="black"/>
<path fill-rule="evenodd" clip-rule="evenodd" d="M616.179 327.298L632.376 310.413L635.687 313.59L619.49 330.474L616.179 327.298Z" fill="black"/>
<path fill-rule="evenodd" clip-rule="evenodd" d="M653.937 344.672L648.121 322.009L652.565 320.868L658.381 343.531L653.937 344.672Z" fill="black"/>
<path d="M-nan -nanL687.182 291.034C686.395 290.786 685.536 291.049 685.023 291.696L-nan -nanL-nan -nanL685.023 291.696C684.447 292.421 684.447 293.448 685.023 294.173L-nan -nanL-nan -nanL685.023 294.173C685.536 294.82 686.395 295.083 687.182 294.835L-nan -nanL-nan -nanL687.182 294.835C689.041 294.249 689.041 291.619 687.182 291.034L-nan -nanL-nan -nanZ" fill="black"/>
<path d="M-nan -nanL678.637 286.212C677.993 286.077 677.322 286.245 676.818 286.669L-nan -nanL-nan -nanL676.818 286.669C675.798 287.525 675.798 289.095 676.818 289.952L-nan -nanL-nan -nanL676.818 289.952C677.322 290.375 677.993 290.543 678.637 290.408L-nan -nanL-nan -nanL678.637 290.408C680.908 289.931 680.908 286.689 678.637 286.212L-nan -nanL-nan -nanZ" fill="black"/>
<path d="M1218.15 431.951H1253.94L1284.23 414.611L1266.33 376.416L1297.99 354.497L1293.86 344.093L1253.94 367.214" fill="black"/>
<path d="M701.476 431.951H665.685L635.4 414.611L653.295 376.416L621.634 354.497L625.764 344.093L665.685 367.214" fill="black"/>
<path d="M891.536 220.629C888.599 226.594 907.229 222.386 909.523 228.906C911.817 235.472 930.126 357.919 930.126 357.919L919.618 369.387V398.981H970.138V227.519C946.736 225.762 927.923 211.381 891.765 220.629H891.536Z" fill="black"/>
<path d="M893.509 222.109C892.362 222.201 891.169 222.386 890.068 222.663C851.523 239.935 873.365 270.662 863.087 322.082L874.008 324.394C874.008 335.353 872.172 341.665 874.008 355.607C904.43 358.474 924.941 354.451 927.235 355.607C935.036 362.543 946.966 387.421 946.966 387.421L949.261 386.265C949.261 386.265 953.39 273.529 950.178 264.281C947.425 249.853 931.365 236.536 919.343 229.045C911.267 224.976 901.631 221.369 893.509 222.109ZM1285.1 334.66C1284.18 334.614 1282.35 335.03 1280.51 335.955L1252.52 350.151C1241.05 357.087 1233.25 361.249 1233.25 361.249C1222.24 367.26 1241.97 386.635 1226.82 392.323C1219.94 395.005 1213.52 397.872 1208.93 399.12V460.159L1275.46 419.512L1264.91 397.363C1259.86 413.085 1251.6 418.171 1236.92 420.946L1234.62 411.698C1246.56 407.998 1254.36 405.27 1257.57 392.323C1259.4 382.612 1252.98 377.988 1257.11 369.202C1257.57 366.89 1274.09 355.746 1285.1 348.81C1288.77 346.498 1292.44 344.694 1293.82 343.769C1290.61 338.822 1288.77 334.799 1285.1 334.66Z" fill="black"/>
<path d="M633.199 334.66C634.116 334.613 635.952 335.03 637.787 335.954L665.778 350.151C677.249 357.087 685.05 361.248 685.05 361.248C696.062 367.26 676.331 386.635 691.474 392.323C698.357 395.005 704.781 397.872 709.369 399.12V460.158L642.835 419.512L653.388 397.363C658.436 413.085 666.695 418.171 681.379 420.946L683.673 411.698C671.743 407.998 663.942 405.27 660.73 392.323C658.895 382.612 665.319 377.988 661.189 369.202C660.73 366.89 644.211 355.746 633.199 348.81C629.528 346.497 625.857 344.694 624.48 343.769C627.692 338.821 629.528 334.798 633.199 334.66Z" fill="black"/>
<path d="M921.27 217.484C947.425 229.97 951.096 235.01 961.191 248.42C967.156 260.442 966.697 271.54 966.697 319.631C966.697 350.613 963.944 380.254 964.403 381.641L933.201 390.427C930.447 389.502 924.941 375.213 919.894 369.202C892.362 400.646 850.285 409.339 813.209 412.114C792.285 414.888 731.899 402.403 707.672 391.768C707.672 391.768 706.433 792.171 706.387 976.257C759.795 976.257 850.652 898.794 850.652 844.278C850.652 788.788 850.652 972.558 850.652 972.558L1071.32 973.482C1071.32 973.482 1065.36 849.345 1065.36 854.432C1068.11 907.327 1164.88 977.486 1213.1 981.806V397.779C1170.43 412.206 1119.96 417.709 1080.95 409.848C1047.46 403.837 1024.51 378.404 1022.22 373.317C1004.78 337.712 1086 346.544 1120.87 346.544C1116.29 320.186 1112.16 313.25 1102.52 293.366C1083.25 260.073 1066.27 245.275 1035.07 231.403C1007.54 220.767 948.802 217.531 921.27 217.531V217.484Z" fill="black"/>
<path d="M882.773 982.509C876.854 984.344 874.009 1002.24 867.126 1010.96C858.224 1022.43 818.212 1046.75 818.212 1094.93C844.78 1077.95 856.205 1069.69 883.737 1049.96C890.02 1045.58 895.306 1042.25 899.704 1039.67C910.981 1033.04 916.424 1031.29 917.876 1029.31V982.509H882.773ZM996.066 982.509C996.524 1012.33 996.066 1024.27 998.819 1029.31C1003.87 1036.2 1014.42 1037.11 1038.28 1055.01C1060.31 1072.45 1072.24 1082.08 1094.72 1094.93C1090.59 1041.24 1078.2 1044.91 1058.47 1022.43C1047.92 1012.79 1033.23 983.427 1032.32 982.509H996.066Z" fill="black"/>
<path d="M932.741 260.859C933.2 250.454 897.409 258.431 888.232 249.183C884.791 260.188 919.893 255.078 932.741 260.859ZM901.997 282.176C906.586 279.917 908.88 284.47 922.188 286.291C917.599 277.598 909.523 271.818 899.245 274.13C893.464 276.997 891.169 280.465 890.619 286.8L901.997 282.176Z" fill="black"/>
<path d="M901.859 337.911C893.706 331.432 887.339 339.827 874.465 341.827C869.877 353.299 889.637 344.919 901.859 337.911Z" fill="black"/>
<path d="M1076.34 599.881C1074.31 546.499 1069.72 526.229 1066.67 526.229C1063.58 526.229 1062.61 555.796 1058.55 581.925C1054.49 607.993 1047.34 637.555 1047.34 637.555L1029.07 630.595C1029.07 630.595 1023.94 592.874 1021.91 547.669C1019.93 502.462 1018.38 462.981 1012.73 462.981C1007.21 462.934 1006.16 500.101 1004.13 548.264C1002.09 596.399 994.99 623.059 994.99 623.059L978.217 620.722C978.217 620.722 970.095 578.971 967.048 451.437C966.341 421.253 958.972 415.196 958.972 415.196C958.972 415.196 951.6 421.253 950.894 451.437C947.85 578.971 939.682 620.722 939.682 620.722L922.952 623.059C922.952 623.059 915.804 596.399 913.774 548.264C911.743 500.101 910.725 462.934 905.168 462.981C899.561 462.981 898.014 502.462 895.938 547.669C893.955 592.874 888.876 630.595 888.876 630.595L870.601 637.555C870.601 637.555 863.454 607.993 859.392 581.925C855.333 555.796 854.315 526.229 851.271 526.229C848.224 526.229 843.636 546.499 841.604 599.881C839.573 653.196 839.089 663.618 839.089 663.618C839.089 663.618 899.075 689.173 922.425 755.305C945.819 821.399 951.734 878.788 951.91 885.159C952.216 895.048 958.972 896.307 958.972 896.307C958.972 896.307 964.844 895.048 966.035 885.159C966.783 878.833 972.125 821.399 995.516 755.305C1018.87 689.173 1078.86 663.618 1078.86 663.618C1078.86 663.618 1078.37 653.196 1076.34 599.881Z" fill="black"/>
</g>
<path d="M647.66 734.641C647.66 816.515 681.27 897.792 739.14 955.762C797.009 1013.73 878.42 1047.2 960.16 1047.2C1042.02 1047.2 1123.28 1013.43 1181.24 955.762C1239.2 897.792 1272.66 816.515 1272.66 734.641V277.271C1272.66 268.297 1265.39 261.022 1256.41 261.021L663.912 260.95C654.937 260.949 647.66 268.225 647.66 277.2V734.641Z" fill="white" stroke="black" stroke-width="19.4455"/>
<path fill-rule="evenodd" clip-rule="evenodd" d="M1327.52 204.563C984.373 136.41 695.412 176.552 596.897 203.975L551.988 216.476C549.014 217.304 546.007 215.265 545.676 212.195L529.236 59.6873C528.974 57.2552 530.509 54.9905 532.866 54.3345L579.37 41.3894C687.854 11.191 986.966 -29.3376 1340.12 40.8017L1386.72 50.0575C1389.2 50.5506 1390.92 52.8213 1390.73 55.3452L1378.91 209.064C1378.68 212.053 1375.89 214.169 1372.95 213.585L1327.52 204.563Z" fill="white"/>
<path fill-rule="evenodd" clip-rule="evenodd" d="M522.613 134.566C522.289 131.56 519.391 129.527 516.454 130.245L383.849 162.688C379.505 163.751 378.634 169.546 382.475 171.838L461.087 218.756C463.341 220.101 464.171 222.961 462.987 225.304L418.532 313.324C416.608 317.132 420.032 321.445 424.177 320.436L625.283 271.486C627.577 270.928 629.168 268.841 629.098 266.481L627.666 217.764C627.574 214.641 624.672 212.366 621.622 213.043C609.653 215.703 599.064 218.342 589.941 220.883L539.284 234.992C536.31 235.821 533.302 233.781 532.972 230.711L522.613 134.566Z" fill="white"/>
<path fill-rule="evenodd" clip-rule="evenodd" d="M1292.14 219.293C1292.23 216.243 1295.01 213.983 1298.01 214.525C1310.27 216.739 1322.6 219.075 1335 221.538L1386.21 231.716C1389.15 232.3 1391.94 230.184 1392.17 227.195L1399.24 135.213C1399.48 132.136 1402.42 130.006 1405.42 130.74L1536 162.688C1540.35 163.75 1541.22 169.546 1537.38 171.838L1458.76 218.756C1456.51 220.101 1455.68 222.96 1456.86 225.304L1501.32 313.324C1503.24 317.132 1499.82 321.445 1495.67 320.436L1294.57 271.486C1292.27 270.928 1290.68 268.841 1290.75 266.481L1292.14 219.293Z" fill="white"/>
<path fill-rule="evenodd" clip-rule="evenodd" d="M1268.8 1054.87C979.501 1107.26 735.886 1076.41 652.831 1055.33L615.707 1045.9C612.779 1045.16 609.866 1047.16 609.511 1050.16L595.919 1165.13C595.625 1167.62 597.222 1169.94 599.655 1170.56L638.054 1180.31C729.514 1203.52 981.687 1234.67 1279.42 1180.76L1317.9 1173.79C1320.44 1173.33 1322.21 1171.02 1322 1168.45L1312.22 1052.57C1311.97 1049.64 1309.25 1047.55 1306.35 1048.07L1268.8 1054.87Z" fill="white"/>
<path fill-rule="evenodd" clip-rule="evenodd" d="M590.339 1107.55C589.992 1110.49 587.176 1112.48 584.285 1111.84L476.235 1087.74C471.726 1086.73 470.876 1080.67 474.933 1078.46L537.282 1044.54C539.721 1043.21 540.611 1040.15 539.266 1037.72L503.714 973.539C501.627 969.77 504.965 965.302 509.172 966.235L676.032 1003.27C678.38 1003.79 680.024 1005.91 679.946 1008.31L678.813 1043.46C678.714 1046.54 675.878 1048.8 672.859 1048.19C663.103 1046.2 654.45 1044.23 646.967 1042.33L604.998 1031.67C602.07 1030.93 599.156 1032.93 598.801 1035.93L590.339 1107.55Z" fill="white"/>
<path fill-rule="evenodd" clip-rule="evenodd" d="M1238.93 1042.32C1239.03 1045.33 1241.75 1047.57 1244.73 1047.08C1254.8 1045.42 1264.93 1043.67 1275.11 1041.83L1317.53 1034.14C1320.44 1033.61 1323.16 1035.7 1323.41 1038.64L1329.17 1106.99C1329.42 1110.01 1332.28 1112.11 1335.24 1111.45L1441.55 1087.74C1446.06 1086.73 1446.91 1080.67 1442.85 1078.47L1380.5 1044.54C1378.06 1043.21 1377.17 1040.15 1378.52 1037.72L1414.07 973.54C1416.16 969.771 1412.82 965.302 1408.61 966.236L1241.75 1003.27C1239.4 1003.79 1237.76 1005.91 1237.84 1008.31L1238.93 1042.32Z" fill="white"/>
<path d="M1297.43 231.755C1299.73 230.554 1302.57 231.498 1303.69 233.837L1361.28 353.781C1362.33 355.972 1361.49 358.604 1359.36 359.781L1281.48 402.89C1279.15 404.179 1276.21 403.221 1275.09 400.806L1218.16 278.084C1217.13 275.861 1218.03 273.22 1220.2 272.086L1297.43 231.755Z" fill="#E0464C"/>
<path fill-rule="evenodd" clip-rule="evenodd" d="M1357.14 355.767L1299.56 235.823L1222.32 276.153L1279.26 398.875L1357.14 355.767ZM1303.69 233.837C1302.57 231.498 1299.73 230.554 1297.43 231.755L1220.2 272.086C1218.03 273.22 1217.13 275.861 1218.16 278.084L1275.09 400.806C1276.21 403.221 1279.15 404.179 1281.48 402.89L1359.36 359.781C1361.49 358.604 1362.33 355.972 1361.28 353.781L1303.69 233.837Z" fill="black"/>
<path d="M1300.75 248.055L1331.03 308.596L1259.91 347.474L1230.08 284.855L1300.75 248.055Z" fill="#FE9C9C"/>
<path d="M1255.32 285.049L1262.2 268.864C1267.55 265.781 1280.56 259.616 1285.14 257.304C1290.95 254.379 1296.62 268.864 1301.2 271.176C1305.79 273.488 1305.79 289.673 1305.79 291.985C1305.79 293.834 1292.03 305.086 1285.14 310.481H1269.08L1259.91 312.793C1258.38 309.711 1255.32 303.083 1255.32 301.233V285.049Z" fill="#9C4040"/>
<path fill-rule="evenodd" clip-rule="evenodd" d="M1275.9 276.467L1269.54 267.922L1273.22 265.182L1280.63 275.133L1278.3 300.92L1285 318.929L1280.7 320.529L1273.64 301.545L1275.9 276.467Z" fill="white"/>
<path d="M1333.33 312.793L1353.97 354.838L1282.85 393.715L1262.66 349.593L1333.33 312.793Z" fill="#FFBCBC"/>
<path d="M1292.84 240.773C1294.82 239.742 1297.25 240.731 1297.95 242.852L-nan -nanL1297.95 242.852C1298.51 244.524 1297.78 246.351 1296.23 247.185L1233.39 280.96C1231.51 281.966 1229.18 281.38 1228.01 279.608L-nan -nanL1228.01 279.608C1226.66 277.573 1227.38 274.819 1229.54 273.693L1292.84 240.773Z" fill="#FFBCBC"/>
<path d="M1258.86 260.184C1259.48 259.847 1260.25 259.96 1260.75 260.461L-nan -nanL1260.75 260.461C1261.48 261.202 1261.32 262.438 1260.41 262.959L1233.06 278.707C1231.74 279.471 1230.08 278.514 1230.08 276.984L-nan -nanL1230.08 276.984C1230.08 276.254 1230.48 275.583 1231.12 275.236L1258.86 260.184Z" fill="#070707"/>
<path d="M1329.99 331.858C1330.61 331.522 1331.37 331.633 1331.87 332.132L-nan -nanL1331.87 332.132C1332.6 332.872 1332.43 334.107 1331.52 334.62L1278.96 364.283C1277.62 365.037 1275.97 364.071 1275.97 362.537L-nan -nanL1275.97 362.537C1275.97 361.803 1276.37 361.128 1277.01 360.776L1329.99 331.858Z" fill="#070707"/>
<path d="M1309.34 354.978C1309.96 354.642 1310.72 354.755 1311.22 355.256L-nan -nanL1311.22 355.256C1311.96 355.996 1311.79 357.232 1310.89 357.753L1283.54 373.502C1282.21 374.265 1280.56 373.308 1280.56 371.778L-nan -nanL1280.56 371.778C1280.56 371.049 1280.96 370.378 1281.6 370.03L1309.34 354.978Z" fill="#070707"/>
<path d="M-nan -nanL1290.55 243.646C1291.19 243.51 1291.87 243.679 1292.37 244.102L-nan -nanL1292.37 244.102C1293.39 244.959 1293.39 246.528 1292.37 247.385L-nan -nanL1292.37 247.385C1291.87 247.808 1291.19 247.977 1290.55 247.841L-nan -nanL1290.55 247.841C1288.28 247.364 1288.28 244.122 1290.55 243.646L-nan -nanZ" fill="#E0464C"/>
<path fill-rule="evenodd" clip-rule="evenodd" d="M1285.76 305.211L1274.78 298.572L1277.16 294.645L1289.12 301.878L1295.86 313.201L1301.94 315.242L1300.48 319.592L1292.79 317.009L1285.76 305.211Z" fill="white"/>
<path d="M621.279 231.578C618.979 230.377 616.141 231.32 615.018 233.659L557.434 353.603C556.382 355.794 557.222 358.426 559.349 359.603L637.234 402.712C639.563 404.001 642.498 403.043 643.618 400.628L700.552 277.906C701.584 275.683 700.686 273.042 698.514 271.908L621.279 231.578Z" fill="#4671E0"/>
<path fill-rule="evenodd" clip-rule="evenodd" d="M561.571 355.589L619.155 235.645L696.39 275.975L639.456 398.697L561.571 355.589ZM615.018 233.659C616.141 231.32 618.979 230.377 621.279 231.578L698.514 271.908C700.686 273.042 701.584 275.683 700.552 277.906L643.618 400.628C642.498 403.043 639.563 404.001 637.234 402.712L559.349 359.603C557.222 358.426 556.382 355.794 557.434 353.603L615.018 233.659Z" fill="black"/>
<path d="M617.963 247.878L587.682 308.419L658.804 347.296L688.63 284.677L617.963 247.878Z" fill="#191B59"/>
<path fill-rule="evenodd" clip-rule="evenodd" d="M658.005 301.828C657.982 301.793 657.958 301.759 657.933 301.724C655.351 298.027 650.672 293.467 644.365 289.312C638.058 285.157 632.021 282.658 627.605 281.745C627.563 281.737 627.522 281.728 627.481 281.72C627.505 281.754 627.529 281.789 627.553 281.824C630.135 285.521 634.814 290.081 641.121 294.236C647.428 298.391 653.466 300.89 657.881 301.803C657.923 301.811 657.964 301.82 658.005 301.828ZM636.073 301.9C650.129 311.16 664.511 314.133 668.195 308.54C671.879 302.948 663.47 290.908 649.414 281.648C635.357 272.388 620.975 269.415 617.291 275.008C613.607 280.6 622.016 292.64 636.073 301.9Z" fill="#8AE3FF"/>
<path d="M644.608 264.881L658.599 271.748L647.555 294.251L633.564 287.385L644.608 264.881Z" fill="#191B59"/>
<path d="M585.383 312.615L564.736 354.66L635.858 393.537L656.051 349.415L585.383 312.615Z" fill="#8AABFF"/>
<path d="M625.873 240.595C623.891 239.564 621.457 240.553 620.756 242.674L-nan -nanL620.756 242.674C620.203 244.346 620.931 246.174 622.482 247.007L685.324 280.782C687.196 281.788 689.525 281.202 690.698 279.43L-nan -nanL690.698 279.43C692.044 277.395 691.331 274.642 689.166 273.516L625.873 240.595Z" fill="#8AABFF"/>
<path d="M627.729 243.822C627.109 243.485 626.34 243.598 625.843 244.099L-nan -nanL625.843 244.099C625.108 244.84 625.274 246.076 626.178 246.596L653.526 262.345C654.852 263.109 656.508 262.152 656.508 260.622L-nan -nanL656.508 260.622C656.508 259.892 656.109 259.221 655.467 258.873L627.729 243.822Z" fill="#070707"/>
<path d="M588.722 331.68C588.105 331.344 587.339 331.455 586.844 331.954L-nan -nanL586.844 331.954C586.11 332.694 586.281 333.929 587.189 334.442L639.752 364.105C641.089 364.859 642.743 363.894 642.743 362.359L-nan -nanL642.743 362.359C642.743 361.625 642.343 360.95 641.699 360.599L588.722 331.68Z" fill="#070707"/>
<path fill-rule="evenodd" clip-rule="evenodd" d="M626.637 255.254L631.226 278.197L626.726 279.097L622.138 256.154L626.637 255.254Z" fill="#8AE3FF"/>
<path fill-rule="evenodd" clip-rule="evenodd" d="M680.009 290.019L657.63 296.849L656.291 292.461L678.669 285.63L680.009 290.019Z" fill="#8AE3FF"/>
<path fill-rule="evenodd" clip-rule="evenodd" d="M601.132 285.543L624.31 282.349L624.937 286.895L601.759 290.089L601.132 285.543Z" fill="#8AE3FF"/>
<path fill-rule="evenodd" clip-rule="evenodd" d="M616.179 312.298L632.376 295.413L635.687 298.59L619.49 315.474L616.179 312.298Z" fill="#8AE3FF"/>
<path fill-rule="evenodd" clip-rule="evenodd" d="M653.937 329.672L648.121 307.009L652.565 305.868L658.381 328.531L653.937 329.672Z" fill="#8AE3FF"/>
<path d="M-nan -nanL687.182 276.034C686.395 275.786 685.536 276.049 685.023 276.696L-nan -nanL685.023 276.696C684.447 277.421 684.447 278.448 685.023 279.173L-nan -nanL685.023 279.173C685.536 279.82 686.395 280.083 687.182 279.835L-nan -nanL687.182 279.835C689.041 279.249 689.041 276.619 687.182 276.034L-nan -nanZ" fill="#4671E0"/>
<path d="M-nan -nanL678.637 271.212C677.993 271.077 677.322 271.245 676.818 271.669L-nan -nanL676.818 271.669C675.798 272.525 675.798 274.095 676.818 274.952L-nan -nanL676.818 274.952C677.322 275.375 677.993 275.543 678.637 275.408L-nan -nanL678.637 275.408C680.908 274.931 680.908 271.689 678.637 271.212L-nan -nanZ" fill="#4671E0"/>
<path d="M1218.15 416.951H1253.94L1284.23 399.611L1266.33 361.416L1297.99 339.497L1293.86 329.093L1253.94 352.214" fill="black"/>
<path d="M701.476 416.951H665.685L635.4 399.611L653.295 361.416L621.634 339.497L625.764 329.093L665.685 352.214" fill="black"/>
<path d="M891.536 205.629C888.599 211.594 907.229 207.386 909.523 213.906C911.817 220.472 930.126 342.919 930.126 342.919L919.618 354.387V383.981H970.138V212.519C946.736 210.762 927.923 196.381 891.765 205.629H891.536Z" fill="#FFF799"/>
<path d="M893.509 207.109C892.362 207.201 891.169 207.386 890.068 207.663C851.523 224.935 873.365 255.662 863.087 307.082L874.008 309.394C874.008 320.353 872.172 326.665 874.008 340.607C904.43 343.474 924.941 339.451 927.235 340.607C935.036 347.543 946.966 372.421 946.966 372.421L949.261 371.265C949.261 371.265 953.39 258.529 950.178 249.281C947.425 234.853 931.365 221.536 919.343 214.045C911.267 209.976 901.631 206.369 893.509 207.109ZM1285.1 319.66C1284.18 319.614 1282.35 320.03 1280.51 320.955L1252.52 335.151C1241.05 342.087 1233.25 346.249 1233.25 346.249C1222.24 352.26 1241.97 371.635 1226.82 377.323C1219.94 380.005 1213.52 382.872 1208.93 384.12V445.159L1275.46 404.512L1264.91 382.363C1259.86 398.085 1251.6 403.171 1236.92 405.946L1234.62 396.698C1246.56 392.998 1254.36 390.27 1257.57 377.323C1259.4 367.612 1252.98 362.988 1257.11 354.202C1257.57 351.89 1274.09 340.746 1285.1 333.81C1288.77 331.498 1292.44 329.694 1293.82 328.769C1290.61 323.822 1288.77 319.799 1285.1 319.66Z" fill="#F39B88"/>
<path d="M633.199 319.66C634.116 319.613 635.952 320.03 637.787 320.954L665.778 335.151C677.249 342.087 685.05 346.248 685.05 346.248C696.062 352.26 676.331 371.635 691.474 377.323C698.357 380.005 704.781 382.872 709.369 384.12V445.158L642.835 404.512L653.388 382.363C658.436 398.085 666.695 403.171 681.379 405.946L683.673 396.698C671.743 392.998 663.942 390.27 660.73 377.323C658.895 367.612 665.319 362.988 661.189 354.202C660.73 351.89 644.211 340.746 633.199 333.81C629.528 331.497 625.857 329.694 624.48 328.769C627.692 323.821 629.528 319.798 633.199 319.66Z" fill="#F39B88"/>
<path d="M921.27 202.484C947.425 214.97 951.096 220.01 961.191 233.42C967.156 245.442 966.697 256.54 966.697 304.631C966.697 335.613 963.944 365.254 964.403 366.641L933.201 375.427C930.447 374.502 924.941 360.213 919.894 354.202C892.362 385.646 850.285 394.339 813.209 397.114C792.285 399.888 731.899 387.403 707.672 376.768C707.672 376.768 706.433 777.171 706.387 961.257C759.795 961.257 850.652 883.794 850.652 829.278C850.652 773.788 850.652 957.558 850.652 957.558L1071.32 958.482C1071.32 958.482 1065.36 834.345 1065.36 839.432C1068.11 892.327 1164.88 962.486 1213.1 966.806V382.779C1170.43 397.206 1119.96 402.709 1080.95 394.848C1047.46 388.837 1024.51 363.404 1022.22 358.317C1004.78 322.712 1086 331.544 1120.87 331.544C1116.29 305.186 1112.16 298.25 1102.52 278.366C1083.25 245.073 1066.27 230.275 1035.07 216.403C1007.54 205.767 948.802 202.531 921.27 202.531V202.484Z" fill="black"/>
<path d="M882.773 967.509C876.854 969.344 874.009 987.24 867.126 995.958C858.224 1007.43 818.212 1031.75 818.212 1079.93C844.78 1062.95 856.205 1054.69 883.737 1034.96C890.02 1030.58 895.306 1027.25 899.704 1024.67C910.981 1018.04 916.424 1016.29 917.876 1014.31V967.509H882.773ZM996.066 967.509C996.524 997.335 996.066 1009.27 998.819 1014.31C1003.87 1021.2 1014.42 1022.11 1038.28 1040.01C1060.31 1057.45 1072.24 1067.08 1094.72 1079.93C1090.59 1026.24 1078.2 1029.91 1058.47 1007.43C1047.92 997.794 1033.23 968.427 1032.32 967.509H996.066Z" fill="#FFF799"/>
<path d="M932.741 245.859C933.2 235.454 897.409 243.431 888.232 234.183C884.791 245.188 919.893 240.078 932.741 245.859ZM901.997 267.176C906.586 264.917 908.88 269.47 922.188 271.291C917.599 262.598 909.523 256.818 899.245 259.13C893.464 261.997 891.169 265.465 890.619 271.8L901.997 267.176Z" fill="#231F20"/>
<path d="M901.859 322.911C893.706 316.432 887.339 324.827 874.465 326.827C869.877 338.299 889.637 329.919 901.859 322.911Z" fill="#231F20"/>
<path d="M1076.34 584.881C1074.31 531.499 1069.72 511.229 1066.67 511.229C1063.58 511.229 1062.61 540.796 1058.55 566.925C1054.49 592.993 1047.34 622.555 1047.34 622.555L1029.07 615.595C1029.07 615.595 1023.94 577.874 1021.91 532.669C1019.93 487.462 1018.38 447.981 1012.73 447.981C1007.21 447.934 1006.16 485.101 1004.13 533.264C1002.09 581.399 994.99 608.059 994.99 608.059L978.217 605.722C978.217 605.722 970.095 563.971 967.048 436.437C966.341 406.253 958.972 400.196 958.972 400.196C958.972 400.196 951.6 406.253 950.894 436.437C947.85 563.971 939.682 605.722 939.682 605.722L922.952 608.059C922.952 608.059 915.804 581.399 913.774 533.264C911.743 485.101 910.725 447.934 905.168 447.981C899.561 447.981 898.014 487.462 895.938 532.669C893.955 577.874 888.876 615.595 888.876 615.595L870.601 622.555C870.601 622.555 863.454 592.993 859.392 566.925C855.333 540.796 854.315 511.229 851.271 511.229C848.224 511.229 843.636 531.499 841.604 584.881C839.573 638.196 839.089 648.618 839.089 648.618C839.089 648.618 899.075 674.173 922.425 740.305C945.819 806.399 951.734 863.788 951.91 870.159C952.216 880.048 958.972 881.307 958.972 881.307C958.972 881.307 964.844 880.048 966.035 870.159C966.783 863.833 972.125 806.399 995.516 740.305C1018.87 674.173 1078.86 648.618 1078.86 648.618C1078.86 648.618 1078.37 638.196 1076.34 584.881Z" fill="#FFF799"/>
<path d="M596.662 88.1766L612.777 84.3505C617.135 83.3158 620.56 82.8638 623.054 82.9944C625.573 83.1191 627.568 83.6891 629.041 84.7046C630.538 85.714 631.709 87.0955 632.554 88.8488C633.418 90.5708 634.307 93.3575 635.221 97.2088L636.494 102.568C637.426 106.495 637.7 109.454 637.317 111.446C636.933 113.437 635.766 115.173 633.816 116.653C631.891 118.127 629.18 119.279 625.683 120.11L621.389 121.129L627.272 145.909L611.272 149.708L596.662 88.1766ZM615.162 94.9052L618.88 110.564C619.342 110.481 619.738 110.4 620.067 110.322C621.537 109.973 622.466 109.378 622.855 108.536C623.263 107.663 623.197 106.086 622.655 103.806L621.455 98.7508C620.956 96.6478 620.302 95.3578 619.492 94.8808C618.683 94.4038 617.24 94.4119 615.162 94.9052Z" fill="black"/>
<path d="M663.552 72.5334L686.724 132.126L670.305 135.85L666.991 124.946L661.238 126.251L662.801 137.553L646.192 141.321L640.352 77.7964L663.552 72.5334ZM664.053 114.117C661.656 107.317 658.888 98.8797 655.747 88.8039C656.795 100.957 657.735 109.809 658.568 115.361L664.053 114.117Z" fill="black"/>
<path d="M713.336 62.4406L721.417 103.926C722.333 108.63 722.825 111.97 722.892 113.947C722.953 115.898 722.427 118.03 721.312 120.343C720.192 122.631 718.495 124.54 716.219 126.071C713.965 127.571 711.163 128.648 707.815 129.3C704.108 130.022 700.717 130.046 697.641 129.372C694.564 128.697 692.132 127.513 690.342 125.819C688.553 124.124 687.319 122.216 686.64 120.093C685.956 117.944 684.932 113.368 683.568 106.364L676.413 69.6329L692.555 66.4886L701.622 113.036C702.15 115.745 702.629 117.456 703.059 118.168C703.511 118.849 704.183 119.103 705.078 118.929C706.1 118.73 706.673 118.194 706.794 117.321C706.937 116.418 706.707 114.42 706.104 111.327L697.194 65.5849L713.336 62.4406Z" fill="black"/>
<path d="M721.049 61.093L737.42 58.5815C741.848 57.9023 745.299 57.7285 747.774 58.0602C750.274 58.3879 752.217 59.1174 753.602 60.2485C755.014 61.3757 756.069 62.8472 756.769 64.6631C757.491 66.4492 758.152 69.2986 758.753 73.2112L759.588 78.6553C760.2 82.6451 760.234 85.6169 759.691 87.5709C759.148 89.5248 757.844 91.1607 755.781 92.4784C753.743 93.7922 750.948 94.7216 747.395 95.2665L743.032 95.9359L746.894 121.11L730.639 123.604L721.049 61.093ZM738.945 69.2944L741.386 85.2021C741.853 85.1567 742.254 85.1084 742.589 85.0571C744.082 84.828 745.056 84.3097 745.512 83.5021C745.989 82.6648 746.05 81.0878 745.695 78.7712L744.907 73.6359C744.579 71.4995 744.031 70.1608 743.263 69.62C742.495 69.0791 741.056 68.9706 738.945 69.2944Z" fill="black"/>
<path d="M762.807 54.8867L790.048 51.7359L791.502 64.3084L780.598 65.5696L781.976 77.4823L792.181 76.3019L793.564 88.2535L783.358 89.4339L784.956 103.248L796.946 101.861L798.401 114.434L770.074 117.71L762.807 54.8867Z" fill="black"/>
<path d="M797.111 50.9478L808.715 50.0296C816.451 49.4175 821.706 49.3021 824.479 49.6835C827.278 50.0628 829.632 51.4178 831.541 53.7485C833.473 56.0512 834.652 59.8894 835.077 65.2632C835.465 70.1698 835.116 73.515 834.03 75.299C832.943 77.083 830.622 78.2855 827.066 78.9064C830.375 79.4544 832.641 80.3593 833.864 81.6209C835.087 82.8825 835.873 84.0742 836.223 85.1959C836.597 86.2896 836.985 89.3806 837.388 94.4688L838.704 111.097L823.478 112.301L821.82 91.3512C821.553 87.9763 821.115 85.9081 820.506 85.1464C819.923 84.3827 818.503 84.0903 816.244 84.269L818.494 112.696L802.099 113.993L797.111 50.9478ZM814.358 60.4372L815.468 74.4559C817.311 74.31 818.576 73.9617 819.264 73.411C819.976 72.8322 820.222 71.1539 820.002 68.3761L819.728 64.9104C819.57 62.9114 819.103 61.6292 818.326 61.0637C817.576 60.4961 816.254 60.2873 814.358 60.4372Z" fill="black"/>
<path d="M895.969 45.6024L896.336 58.2534L886.574 58.536L888.038 109.101L871.6 109.577L870.136 59.0119L860.413 59.2934L860.047 46.6425L895.969 45.6024Z" fill="black"/>
<path d="M938.859 82.5248C938.862 88.879 938.708 93.3842 938.397 96.0406C938.112 98.671 937.175 101.08 935.588 103.269C934.026 105.457 931.905 107.137 929.223 108.311C926.541 109.484 923.416 110.071 919.849 110.073C916.463 110.075 913.416 109.529 910.707 108.437C908.025 107.318 905.862 105.652 904.221 103.44C902.579 101.227 901.601 98.8186 901.287 96.2146C900.974 93.6105 900.815 89.0533 900.812 82.5429L900.807 71.7226C900.804 65.3684 900.945 60.8762 901.23 58.2458C901.542 55.5894 902.478 53.1671 904.039 50.9789C905.627 48.7906 907.761 47.1099 910.443 45.9368C913.125 44.7636 916.25 44.1762 919.817 44.1745C923.203 44.1729 926.237 44.7313 928.92 45.8498C931.629 46.9423 933.804 48.5949 935.446 50.8077C937.087 53.0204 938.065 55.4288 938.379 58.0328C938.692 60.6368 938.851 65.1941 938.854 71.7045L938.859 82.5248ZM922.404 61.7514C922.402 58.8087 922.232 56.9337 921.893 56.1266C921.58 55.2934 920.916 54.8771 919.901 54.8776C919.041 54.878 918.377 55.2168 917.909 55.8941C917.467 56.5454 917.246 58.4986 917.248 61.7538L917.262 91.2851C917.263 94.9569 917.408 97.2225 917.695 98.0817C918.008 98.941 918.711 99.3703 919.805 99.3698C920.924 99.3693 921.64 98.8741 921.952 97.8844C922.264 96.8947 922.42 94.5378 922.418 90.8139L922.404 61.7514Z" fill="black"/>
<path d="M998.299 47.1813L997.856 59.8298L988.097 59.4885L986.329 110.044L969.893 109.469L971.661 58.9138L961.941 58.5738L962.383 45.9253L998.299 47.1813Z" fill="black"/>
<path d="M1040.77 49.2259L1037.66 112.392L1021.23 111.583L1022.54 85.0528L1017.62 84.8108L1016.32 111.341L999.894 110.533L1003 47.367L1019.43 48.1755L1018.32 70.7653L1023.23 71.0073L1024.34 48.4174L1040.77 49.2259Z" fill="black"/>
<path d="M1049.76 49.7443L1077.12 51.5018L1076.31 64.1321L1065.36 63.4286L1064.59 75.3961L1074.84 76.0545L1074.07 88.061L1063.82 87.4026L1062.93 101.28L1074.97 102.054L1074.16 114.684L1045.7 112.856L1049.76 49.7443Z" fill="black"/>
<path d="M1105.83 53.6435L1122.33 55.168C1126.79 55.5803 1130.18 56.2468 1132.5 57.1674C1134.84 58.0905 1136.55 59.2684 1137.62 60.7011C1138.72 62.1363 1139.39 63.8195 1139.63 65.7508C1139.9 67.6586 1139.85 70.5833 1139.48 74.5248L1138.98 80.0092C1138.61 84.0286 1137.92 86.9204 1136.92 88.6848C1135.92 90.4492 1134.26 91.7211 1131.94 92.5003C1129.64 93.282 1126.71 93.5074 1123.13 93.1766L1118.73 92.7703L1116.39 118.131L1100.01 116.617L1105.83 53.6435ZM1121.21 65.9316L1119.73 81.957C1120.2 82.0261 1120.6 82.0762 1120.93 82.1074C1122.44 82.2464 1123.51 81.9793 1124.15 81.3059C1124.81 80.609 1125.25 79.0937 1125.47 76.7599L1125.95 71.5867C1126.15 69.4344 1125.94 68.0029 1125.32 67.2923C1124.71 66.5817 1123.34 66.1282 1121.21 65.9316Z" fill="black"/>
<path d="M1147.94 57.6537L1175.17 60.8325L1173.71 73.4034L1162.8 72.131L1161.41 84.0424L1171.62 85.2332L1170.22 97.1834L1160.02 95.9925L1158.41 109.805L1170.4 111.204L1168.93 123.775L1140.61 120.47L1147.94 57.6537Z" fill="black"/>
<path d="M1214.64 103.928C1213.71 110.213 1212.89 114.646 1212.19 117.227C1211.52 119.786 1210.23 122.031 1208.34 123.96C1206.47 125.893 1204.12 127.241 1201.3 128.005C1198.47 128.768 1195.3 128.887 1191.77 128.36C1188.42 127.861 1185.49 126.871 1182.97 125.39C1180.48 123.886 1178.59 121.919 1177.29 119.488C1176 117.057 1175.39 114.53 1175.46 111.908C1175.54 109.286 1176.05 104.756 1177.01 98.3167L1178.61 87.6147C1179.55 81.3301 1180.35 76.9081 1181.02 74.3489C1181.72 71.7678 1183.01 69.5107 1184.88 67.5776C1186.77 65.6483 1189.13 64.302 1191.96 63.5385C1194.78 62.7751 1197.96 62.6565 1201.49 63.1827C1204.84 63.6821 1207.75 64.6833 1210.24 66.1865C1212.76 67.6677 1214.67 69.624 1215.96 72.0553C1217.26 74.4866 1217.87 77.0132 1217.79 79.635C1217.72 82.2567 1217.2 86.7872 1216.24 93.2265L1214.64 103.928ZM1201.44 80.9489C1201.88 78.0383 1201.99 76.1589 1201.77 75.3105C1201.59 74.4402 1200.99 73.9301 1199.99 73.7803C1199.14 73.6536 1198.43 73.8905 1197.87 74.491C1197.33 75.0696 1196.82 76.9687 1196.34 80.1883L1191.99 109.397C1191.45 113.028 1191.25 115.29 1191.41 116.183C1191.59 117.079 1192.23 117.607 1193.31 117.769C1194.41 117.934 1195.2 117.55 1195.65 116.617C1196.11 115.685 1196.61 113.377 1197.16 109.693L1201.44 80.9489Z" fill="black"/>
<path d="M1225.98 68.2903L1242.24 71.4521C1246.63 72.3071 1249.94 73.3085 1252.16 74.456C1254.4 75.6085 1255.98 76.951 1256.91 78.4834C1257.85 80.0207 1258.35 81.7622 1258.4 83.7079C1258.47 85.6329 1258.14 88.5382 1257.38 92.4237L1256.33 97.8302C1255.56 101.792 1254.59 104.602 1253.42 106.257C1252.24 107.913 1250.47 109.013 1248.08 109.557C1245.72 110.106 1242.77 110.037 1239.24 109.351L1234.91 108.508L1230.05 133.509L1213.91 130.369L1225.98 68.2903ZM1240.06 82.051L1236.98 97.8488C1237.44 97.9638 1237.83 98.0537 1238.17 98.1183C1239.65 98.4066 1240.74 98.2476 1241.44 97.6412C1242.17 97.0143 1242.76 95.5504 1243.21 93.2498L1244.2 88.15C1244.62 86.0283 1244.55 84.5833 1244.01 83.815C1243.47 83.0467 1242.15 82.4587 1240.06 82.051Z" fill="black"/>
<path d="M1284.36 80.7641L1272.26 129.881L1281.97 132.273L1278.94 144.562L1253.27 138.236L1268.4 76.8298L1284.36 80.7641Z" fill="black"/>
<path d="M1299.83 84.7123L1326.09 92.6103L1322.45 104.73L1311.93 101.569L1308.48 113.053L1318.32 116.012L1314.85 127.533L1305.01 124.574L1301.01 137.891L1312.57 141.368L1308.92 153.488L1281.62 145.275L1299.83 84.7123Z" fill="black"/>
<path d="M763.939 1109.79L755.384 1170.18L741.657 1168.23L747.433 1127.46L736.174 1167.46L726.438 1166.08L726.3 1125.42L720.656 1165.26L706.93 1163.31L715.485 1102.92L735.814 1105.8C735.896 1109.52 735.924 1113.88 735.898 1118.9L735.885 1134.58L743.461 1106.89L763.939 1109.79Z" fill="black"/>
<path d="M806.986 1114.25L802.799 1154.8C802.325 1159.4 801.841 1162.62 801.347 1164.46C800.857 1166.28 799.772 1168.1 798.095 1169.92C796.419 1171.72 794.317 1173 791.788 1173.78C789.287 1174.53 786.399 1174.73 783.127 1174.4C779.504 1174.02 776.368 1173.09 773.719 1171.61C771.07 1170.12 769.157 1168.35 767.982 1166.28C766.807 1164.22 766.204 1162.11 766.173 1159.96C766.145 1157.78 766.484 1153.27 767.191 1146.43L770.898 1110.53L786.675 1112.16L781.977 1157.65C781.704 1160.3 781.666 1162.01 781.863 1162.79C782.088 1163.55 782.638 1163.97 783.512 1164.06C784.512 1164.16 785.19 1163.83 785.547 1163.06C785.932 1162.26 786.281 1160.36 786.593 1157.33L791.209 1112.63L806.986 1114.25Z" fill="black"/>
<path d="M846.3 1117.2L841.847 1178.04L827.982 1177.02L821.778 1148.76L819.754 1176.42L806.528 1175.45L810.981 1114.62L824.207 1115.59L831.069 1143.63L833.074 1116.24L846.3 1117.2Z" fill="black"/>
<path d="M866.953 1118.24L863.831 1179.16L847.992 1178.35L851.113 1117.43L866.953 1118.24Z" fill="black"/>
<path d="M913.282 1146.4L897.428 1145.96L897.722 1135.34C897.808 1132.25 897.685 1130.33 897.355 1129.56C897.05 1128.78 896.32 1128.37 895.165 1128.33C893.86 1128.3 893.018 1128.74 892.641 1129.66C892.264 1130.58 892.032 1132.58 891.947 1135.67L891.161 1163.99C891.079 1166.95 891.201 1168.89 891.528 1169.8C891.854 1170.72 892.632 1171.19 893.863 1171.22C895.043 1171.26 895.821 1170.83 896.197 1169.93C896.599 1169.04 896.846 1166.92 896.939 1163.58L897.151 1155.94L913.005 1156.38L912.939 1158.75C912.765 1165.05 912.189 1169.51 911.212 1172.12C910.26 1174.73 908.225 1176.99 905.107 1178.89C902.014 1180.79 898.233 1181.67 893.765 1181.55C889.12 1181.42 885.315 1180.47 882.349 1178.71C879.383 1176.94 877.451 1174.56 876.554 1171.57C875.658 1168.56 875.293 1164.06 875.458 1158.09L875.952 1140.28C876.074 1135.88 876.316 1132.6 876.678 1130.42C877.041 1128.22 877.991 1126.12 879.528 1124.13C881.091 1122.14 883.207 1120.6 885.875 1119.52C888.569 1118.42 891.635 1117.91 895.075 1118.01C899.745 1118.13 903.573 1119.15 906.561 1121.04C909.549 1122.93 911.482 1125.24 912.361 1127.98C913.24 1130.7 913.601 1134.9 913.443 1140.6L913.282 1146.4Z" fill="black"/>
<path d="M955.083 1119.87L955.1 1180.86L939.239 1180.87L939.232 1155.25L934.485 1155.25L934.492 1180.87L918.632 1180.87L918.615 1119.88L934.475 1119.88L934.481 1141.69L939.228 1141.69L939.222 1119.87L955.083 1119.87Z" fill="black"/>
<path d="M978.092 1119.4L1004.52 1118.45L1004.96 1130.64L994.382 1131.02L994.798 1142.58L1004.7 1142.23L1005.12 1153.82L995.215 1154.18L995.698 1167.58L1007.33 1167.16L1007.77 1179.36L980.287 1180.35L978.092 1119.4Z" fill="black"/>
<path d="M1012.94 1118.12L1024.78 1117.4C1032.43 1116.93 1037.61 1116.97 1040.34 1117.51C1043.09 1118.05 1045.21 1119.07 1046.72 1120.59C1048.22 1122.11 1049.2 1123.85 1049.67 1125.81C1050.14 1127.74 1050.55 1131.59 1050.91 1137.36L1052.2 1158.68C1052.54 1164.15 1052.49 1167.82 1052.08 1169.71C1051.69 1171.57 1050.89 1173.07 1049.67 1174.2C1048.46 1175.3 1046.92 1176.13 1045.07 1176.67C1043.21 1177.18 1040.39 1177.55 1036.61 1177.78L1016.64 1179L1012.94 1118.12ZM1029.4 1127.57L1031.84 1167.62C1034.12 1167.48 1035.49 1166.94 1035.97 1166.01C1036.44 1165.05 1036.55 1162.54 1036.3 1158.48L1034.86 1134.83C1034.69 1132.07 1034.5 1130.31 1034.28 1129.54C1034.05 1128.77 1033.62 1128.23 1032.97 1127.92C1032.32 1127.58 1031.13 1127.47 1029.4 1127.57Z" fill="black"/>
<path d="M1067.38 1114.41L1072.25 1175.21L1056.44 1176.48L1051.57 1115.68L1067.38 1114.41Z" fill="black"/>
<path d="M1110.37 1110.31L1111.58 1122.46L1102.21 1123.39L1107.06 1171.94L1091.28 1173.52L1086.43 1124.97L1077.1 1125.9L1075.88 1113.76L1110.37 1110.31Z" fill="black"/>
<path d="M1125.53 1108.48L1132.6 1169.06L1116.85 1170.9L1109.77 1110.32L1125.53 1108.48Z" fill="black"/>
<path d="M1173.36 1138.18C1174.19 1144.25 1174.63 1148.57 1174.68 1151.15C1174.75 1153.7 1174.17 1156.13 1172.94 1158.43C1171.74 1160.72 1169.93 1162.6 1167.52 1164.07C1165.11 1165.55 1162.2 1166.52 1158.79 1166.98C1155.56 1167.43 1152.57 1167.3 1149.84 1166.61C1147.13 1165.89 1144.85 1164.58 1142.99 1162.68C1141.13 1160.78 1139.89 1158.61 1139.25 1156.16C1138.61 1153.72 1137.86 1149.38 1137.01 1143.16L1135.59 1132.82C1134.76 1126.75 1134.31 1122.44 1134.23 1119.89C1134.19 1117.31 1134.76 1114.87 1135.97 1112.58C1137.2 1110.28 1139.02 1108.39 1141.43 1106.92C1143.84 1105.45 1146.75 1104.48 1150.16 1104.02C1153.39 1103.57 1156.37 1103.71 1159.08 1104.43C1161.81 1105.12 1164.1 1106.41 1165.96 1108.31C1167.82 1110.21 1169.07 1112.39 1169.7 1114.84C1170.34 1117.28 1171.09 1121.62 1171.94 1127.84L1173.36 1138.18ZM1154.93 1120.47C1154.54 1117.66 1154.13 1115.89 1153.7 1115.17C1153.3 1114.41 1152.61 1114.1 1151.64 1114.23C1150.81 1114.35 1150.22 1114.76 1149.87 1115.46C1149.53 1116.14 1149.57 1118.04 1150 1121.15L1153.87 1149.37C1154.35 1152.88 1154.78 1155.02 1155.17 1155.81C1155.58 1156.59 1156.31 1156.9 1157.35 1156.76C1158.42 1156.61 1159.04 1156.05 1159.21 1155.06C1159.38 1154.07 1159.22 1151.8 1158.73 1148.24L1154.93 1120.47Z" fill="black"/>
<path d="M1211.81 1095.81L1221.7 1155.99L1207.99 1158.25L1195.35 1132.22L1199.84 1159.58L1186.76 1161.73L1176.87 1101.55L1189.96 1099.4L1203.18 1125.06L1198.73 1097.96L1211.81 1095.81Z" fill="black"/>
<defs>
<filter id="filter0_f_136_512" x="363.535" y="0.5" width="1192.78" height="1241.58" filterUnits="userSpaceOnUse" color-interpolation-filters="sRGB">
<feFlood flood-opacity="0" result="BackgroundImageFix"/>
<feBlend mode="normal" in="SourceGraphic" in2="BackgroundImageFix" result="shape"/>
<feGaussianBlur stdDeviation="8.25" result="effect1_foregroundBlur_136_512"/>
</filter>
</defs>
</svg>
