<svg width="1276" height="1136" viewBox="0 0 1276 1136" fill="none" xmlns="http://www.w3.org/2000/svg">
<path fill-rule="evenodd" clip-rule="evenodd" d="M1024.28 940.506C662.653 1005.99 358.133 967.421 254.314 941.07L207.909 929.292C204.25 928.363 200.608 930.867 200.165 934.616L183.175 1078.32C182.807 1081.44 184.804 1084.34 187.844 1085.11L235.844 1097.3C350.169 1126.31 665.385 1165.26 1037.55 1097.86L1085.66 1089.15C1088.83 1088.58 1091.04 1085.68 1090.77 1082.47L1078.55 937.631C1078.24 933.958 1074.84 931.349 1071.21 932.006L1024.28 940.506Z" fill="#0098D4"/>
<path fill-rule="evenodd" clip-rule="evenodd" d="M176.199 1006.35C175.764 1010.02 172.246 1012.52 168.631 1011.71L33.5693 981.584C27.9337 980.327 26.8708 972.754 31.9426 969.994L109.879 927.583C112.927 925.924 114.04 922.1 112.359 919.065L67.9191 838.838C65.3094 834.126 69.4827 828.541 74.7405 829.708L283.316 875.997C286.251 876.649 288.306 879.296 288.209 882.3L286.792 926.244C286.668 930.094 283.124 932.918 279.35 932.149C267.155 929.664 256.338 927.199 246.984 924.823L194.522 911.5C190.862 910.571 187.22 913.074 186.777 916.825L176.199 1006.35Z" fill="#0098D4"/>
<path fill-rule="evenodd" clip-rule="evenodd" d="M986.94 924.809C987.062 928.577 990.466 931.381 994.185 930.767C1006.78 928.69 1019.43 926.5 1032.16 924.195L1085.19 914.585C1088.82 913.928 1092.22 916.537 1092.53 920.21L1099.74 1005.65C1100.05 1009.43 1103.63 1012.05 1107.33 1011.23L1240.21 981.585C1245.85 980.328 1246.91 972.755 1241.84 969.995L1163.9 927.584C1160.85 925.925 1159.74 922.101 1161.42 919.065L1205.86 838.838C1208.47 834.127 1204.3 828.541 1199.04 829.708L990.462 875.998C987.528 876.649 985.473 879.297 985.57 882.301L986.94 924.809Z" fill="#0098D4"/>
<path d="M393.271 1008.65L382.577 1084.14L365.418 1081.71L372.638 1030.75L358.564 1080.74L346.395 1079.01L346.222 1028.19L339.167 1077.99L322.009 1075.56L332.703 1000.07L358.114 1003.67C358.217 1008.31 358.253 1013.77 358.22 1020.05L358.203 1039.64L367.673 1005.02L393.271 1008.65Z" fill="white"/>
<path d="M446.687 1014.2L441.454 1064.88C440.86 1070.63 440.255 1074.65 439.639 1076.95C439.025 1079.23 437.67 1081.5 435.573 1083.78C433.479 1086.02 430.851 1087.63 427.69 1088.6C424.563 1089.54 420.954 1089.8 416.863 1089.37C412.335 1088.91 408.415 1087.74 405.103 1085.89C401.792 1084.03 399.401 1081.81 397.932 1079.23C396.463 1076.65 395.709 1074.01 395.671 1071.32C395.636 1068.61 396.06 1062.97 396.944 1054.41L401.577 1009.54L421.298 1011.57L415.426 1068.44C415.084 1071.75 415.037 1073.89 415.284 1074.86C415.565 1075.81 416.252 1076.34 417.345 1076.45C418.594 1076.58 419.442 1076.16 419.889 1075.2C420.37 1074.21 420.806 1071.82 421.196 1068.04L426.966 1012.16L446.687 1014.2Z" fill="white"/>
<path d="M496.437 1017.94L490.871 1093.98L473.541 1092.71L465.785 1057.39L463.255 1091.95L446.723 1090.74L452.289 1014.71L468.821 1015.92L477.399 1050.97L479.905 1016.73L496.437 1017.94Z" fill="white"/>
<path d="M524.62 1019.2L520.718 1095.34L500.918 1094.33L504.82 1018.18L524.62 1019.2Z" fill="white"/>
<path d="M580.019 1054.42L560.201 1053.87L560.569 1040.59C560.677 1036.73 560.523 1034.32 560.11 1033.37C559.729 1032.39 558.817 1031.87 557.373 1031.83C555.741 1031.79 554.69 1032.34 554.218 1033.49C553.747 1034.64 553.457 1037.14 553.35 1041L552.368 1076.4C552.266 1080.11 552.418 1082.53 552.826 1083.67C553.234 1084.81 554.207 1085.41 555.745 1085.45C557.22 1085.49 558.193 1084.95 558.663 1083.83C559.165 1082.72 559.474 1080.07 559.59 1075.9L559.855 1066.34L579.673 1066.89L579.591 1069.86C579.373 1077.73 578.653 1083.3 577.432 1086.57C576.242 1089.83 573.698 1092.65 569.801 1095.02C565.935 1097.4 561.209 1098.51 555.622 1098.35C549.817 1098.19 545.06 1097.01 541.352 1094.8C537.645 1092.59 535.23 1089.62 534.109 1085.88C532.989 1082.12 532.532 1076.5 532.739 1069.03L533.357 1046.76C533.509 1041.27 533.812 1037.16 534.264 1034.44C534.717 1031.69 535.905 1029.07 537.827 1026.58C539.78 1024.09 542.425 1022.17 545.76 1020.82C549.128 1019.44 552.961 1018.8 557.26 1018.92C563.098 1019.09 567.883 1020.35 571.618 1022.71C575.353 1025.08 577.769 1027.97 578.868 1031.39C579.967 1034.79 580.418 1040.04 580.22 1047.17L580.019 1054.42Z" fill="white"/>
<path d="M632.255 1021.25L632.276 1097.49L612.45 1097.5L612.441 1065.47L606.508 1065.48L606.517 1097.5L586.691 1097.5L586.67 1021.26L606.496 1021.26L606.503 1048.52L612.437 1048.52L612.429 1021.26L632.255 1021.25Z" fill="white"/>
<path d="M660.748 1020.66L693.785 1019.47L694.334 1034.72L681.11 1035.2L681.63 1049.65L694.007 1049.2L694.529 1063.7L682.152 1064.14L682.755 1080.89L697.297 1080.37L697.846 1095.62L663.491 1096.86L660.748 1020.66Z" fill="white"/>
<path d="M704.539 1019.05L719.345 1018.15C728.903 1017.57 735.385 1017.62 738.791 1018.29C742.229 1018.96 744.887 1020.25 746.763 1022.15C748.64 1024.05 749.873 1026.22 750.463 1028.67C751.05 1031.09 751.563 1035.9 752.002 1043.11L753.623 1069.76C754.039 1076.59 753.988 1081.18 753.471 1083.54C752.984 1085.87 751.981 1087.74 750.463 1089.15C748.943 1090.53 747.024 1091.56 744.706 1092.24C742.386 1092.88 738.86 1093.35 734.128 1093.64L709.169 1095.16L704.539 1019.05ZM725.12 1030.87L728.166 1080.93C731.017 1080.76 732.738 1080.09 733.327 1078.92C733.915 1077.72 734.054 1074.58 733.745 1069.5L731.946 1039.94C731.737 1036.49 731.493 1034.29 731.214 1033.33C730.936 1032.37 730.391 1031.7 729.581 1031.31C728.769 1030.88 727.282 1030.74 725.12 1030.87Z" fill="white"/>
<path d="M776.081 1014.46L782.175 1090.45L762.413 1092.04L756.319 1016.04L776.081 1014.46Z" fill="white"/>
<path d="M826.19 1009.31L827.706 1024.49L815.991 1025.66L822.05 1086.34L802.322 1088.31L796.263 1027.63L784.595 1028.79L783.08 1013.61L826.19 1009.31Z" fill="white"/>
<path d="M848.755 1007.06L857.597 1082.78L837.905 1085.08L829.063 1009.36L848.755 1007.06Z" fill="white"/>
<path d="M904.537 1044.19C905.578 1051.78 906.129 1057.18 906.19 1060.41C906.279 1063.6 905.554 1066.63 904.015 1069.5C902.506 1072.37 900.247 1074.72 897.235 1076.56C894.223 1078.4 890.587 1079.61 886.325 1080.2C882.282 1080.75 878.553 1080.6 875.139 1079.73C871.752 1078.84 868.898 1077.2 866.576 1074.82C864.254 1072.45 862.693 1069.73 861.893 1066.67C861.093 1063.61 860.161 1058.2 859.095 1050.42L857.323 1037.5C856.282 1029.91 855.718 1024.52 855.629 1021.33C855.567 1018.11 856.291 1015.06 857.799 1012.19C859.338 1009.32 861.613 1006.96 864.625 1005.12C867.637 1003.28 871.273 1002.07 875.534 1001.49C879.578 1000.93 883.293 1001.11 886.68 1002C890.094 1002.87 892.962 1004.49 895.284 1006.86C897.606 1009.24 899.167 1011.95 899.967 1015.01C900.766 1018.07 901.699 1023.49 902.765 1031.27L904.537 1044.19ZM881.492 1022.06C881.01 1018.55 880.501 1016.33 879.964 1015.43C879.455 1014.48 878.593 1014.09 877.38 1014.26C876.354 1014.4 875.616 1014.91 875.167 1015.8C874.745 1016.65 874.801 1019.02 875.334 1022.91L880.169 1058.18C880.771 1062.56 881.313 1065.25 881.796 1066.22C882.309 1067.2 883.22 1067.6 884.526 1067.42C885.863 1067.24 886.638 1066.53 886.849 1065.29C887.06 1064.06 886.861 1061.22 886.251 1056.77L881.492 1022.06Z" fill="white"/>
<path d="M953.211 991.135L965.572 1066.37L948.425 1069.19L932.629 1036.66L938.248 1070.86L921.891 1073.55L909.53 998.312L925.887 995.624L942.42 1027.7L936.854 993.822L953.211 991.135Z" fill="white"/>
<path fill-rule="evenodd" clip-rule="evenodd" d="M1042.28 222.89C664.815 147.922 346.958 192.078 238.591 222.243L189.192 235.995C185.92 236.905 182.612 234.662 182.248 231.286L164.164 63.5266C163.876 60.8513 165.565 58.3602 168.157 57.6386L219.312 43.3989C338.644 10.1807 667.667 -34.4008 1056.13 42.7524L1107.4 52.9338C1110.13 53.4763 1112.02 55.9741 1111.81 58.7503L1098.8 227.842C1098.55 231.129 1095.48 233.457 1092.25 232.814L1042.28 222.89Z" fill="#0098D4"/>
<path fill-rule="evenodd" clip-rule="evenodd" d="M156.878 145.894C156.522 142.587 153.334 140.35 150.103 141.141L4.23798 176.827C-0.54064 177.996 -1.49807 184.371 2.72631 186.892L89.1999 238.502C91.6794 239.982 92.5923 243.127 91.2906 245.705L42.3893 342.527C40.2734 346.716 44.0392 351.46 48.5994 350.351L269.816 296.506C272.339 295.892 274.089 293.596 274.013 291L272.437 237.411C272.336 233.976 269.143 231.473 265.789 232.218C252.623 235.144 240.974 238.047 230.938 240.842L175.216 256.362C171.944 257.274 168.636 255.03 168.272 251.653L156.878 145.894Z" fill="#0098D4"/>
<path fill-rule="evenodd" clip-rule="evenodd" d="M1003.36 239.093C1003.46 235.737 1006.51 233.251 1009.82 233.848C1023.31 236.283 1036.87 238.853 1050.5 241.562L1106.84 252.758C1110.08 253.401 1113.14 251.073 1113.4 247.785L1121.18 146.605C1121.44 143.221 1124.67 140.878 1127.97 141.685L1271.61 176.827C1276.39 177.996 1277.34 184.371 1273.12 186.892L1186.65 238.502C1184.17 239.982 1183.25 243.127 1184.55 245.705L1233.46 342.527C1235.57 346.716 1231.81 351.46 1227.25 350.35L1006.03 296.506C1003.51 295.891 1001.76 293.596 1001.83 291L1003.36 239.093Z" fill="#0098D4"/>
<path d="M238.261 94.779L255.987 90.5704C260.781 89.4322 264.549 88.9349 267.292 89.0787C270.063 89.2158 272.258 89.8428 273.878 90.9598C275.525 92.0702 276.813 93.5898 277.742 95.5185C278.692 97.4127 279.671 100.478 280.676 104.714L282.076 110.609C283.102 114.929 283.403 118.184 282.981 120.375C282.559 122.566 281.276 124.475 279.13 126.103C277.013 127.725 274.031 128.992 270.185 129.905L265.46 131.027L271.932 158.285L254.332 162.464L238.261 94.779ZM258.611 102.181L262.701 119.405C263.209 119.314 263.645 119.225 264.007 119.139C265.623 118.755 266.646 118.1 267.073 117.174C267.523 116.214 267.449 114.479 266.854 111.971L265.534 106.411C264.984 104.097 264.265 102.678 263.375 102.154C262.485 101.629 260.897 101.638 258.611 102.181Z" fill="white"/>
<path d="M311.84 77.5707L337.33 143.122L319.269 147.22L315.623 135.225L309.295 136.661L311.014 149.092L292.744 153.237L286.321 83.36L311.84 77.5707ZM312.392 123.313C309.755 115.833 306.709 106.552 303.255 95.4683C304.408 108.836 305.442 118.574 306.357 124.682L312.392 123.313Z" fill="white"/>
<path d="M366.947 66.3997L375.836 112.034C376.844 117.208 377.384 120.882 377.458 123.056C377.526 125.203 376.947 127.548 375.72 130.093C374.489 132.609 372.621 134.709 370.119 136.393C367.638 138.044 364.557 139.228 360.873 139.945C356.796 140.739 353.066 140.766 349.682 140.024C346.298 139.282 343.622 137.979 341.654 136.116C339.685 134.252 338.328 132.152 337.581 129.817C336.829 127.454 335.703 122.42 334.202 114.716L326.331 74.3113L344.087 70.8525L354.061 122.054C354.642 125.035 355.169 126.917 355.642 127.7C356.139 128.449 356.879 128.728 357.863 128.537C358.988 128.318 359.617 127.728 359.751 126.768C359.908 125.775 359.655 123.577 358.992 120.174L349.191 69.8584L366.947 66.3997Z" fill="white"/>
<path d="M375.094 64.9815L393.102 62.2189C397.972 61.4718 401.768 61.2806 404.49 61.6455C407.241 62.006 409.378 62.8084 410.902 64.0526C412.454 65.2925 413.616 66.9112 414.386 68.9086C415.18 70.8734 415.907 74.0077 416.567 78.3116L417.486 84.3001C418.159 88.6889 418.197 91.9579 417.599 94.1072C417.002 96.2566 415.568 98.056 413.298 99.5055C411.056 100.951 407.982 101.973 404.074 102.572L399.275 103.309L403.523 131L385.643 133.744L375.094 64.9815ZM394.779 74.0031L397.464 91.5016C397.978 91.4517 398.419 91.3985 398.787 91.342C400.429 91.0901 401.501 90.5199 402.002 89.6316C402.527 88.7105 402.595 86.9759 402.204 84.4276L401.337 78.7788C400.976 76.4287 400.374 74.9562 399.529 74.3612C398.684 73.7663 397.101 73.647 394.779 74.0031Z" fill="white"/>
<path d="M420.882 58.1695L450.846 54.7036L452.445 68.5333L440.451 69.9206L441.967 83.0247L453.193 81.7262L454.713 94.8729L443.488 96.1714L445.245 111.367L458.435 109.841L460.034 123.671L428.875 127.275L420.882 58.1695Z" fill="white"/>
<path d="M458.618 53.8293L471.383 52.8192C479.893 52.1459 485.673 52.019 488.724 52.4385C491.803 52.8558 494.392 54.3463 496.491 56.91C498.617 59.443 499.914 63.665 500.381 69.5763C500.808 74.9735 500.424 78.6532 499.229 80.6156C498.034 82.578 495.48 83.9007 491.569 84.5838C495.209 85.1866 497.701 86.1819 499.047 87.5697C500.392 88.9574 501.257 90.2683 501.642 91.5022C502.053 92.7052 502.481 96.1053 502.923 101.702L504.371 119.993L487.622 121.318L485.799 98.273C485.505 94.5607 485.023 92.2856 484.354 91.4478C483.712 90.6077 482.15 90.286 479.665 90.4826L482.139 121.752L464.106 123.179L458.618 53.8293ZM477.591 64.2676L478.811 79.6882C480.839 79.5277 482.231 79.1446 482.987 78.5388C483.77 77.9021 484.041 76.056 483.799 73.0004L483.497 69.1881C483.323 66.9893 482.809 65.5788 481.956 64.9567C481.13 64.3324 479.675 64.1027 477.591 64.2676Z" fill="white"/>
<path d="M567.715 47.9288L568.118 61.8449L557.381 62.1558L558.991 117.777L540.909 118.301L539.298 62.6793L528.604 62.9889L528.201 49.0729L567.715 47.9288Z" fill="white"/>
<path d="M615.048 88.5477C615.052 95.5373 614.882 100.493 614.54 103.415C614.226 106.309 613.196 108.959 611.45 111.366C609.732 113.773 607.398 115.622 604.448 116.912C601.498 118.203 598.061 118.849 594.137 118.851C590.413 118.852 587.061 118.252 584.081 117.051C581.13 115.82 578.752 113.988 576.946 111.554C575.14 109.12 574.065 106.471 573.719 103.606C573.374 100.742 573.2 95.7291 573.197 88.5676L573.191 76.6653C573.188 69.6757 573.343 64.7342 573.657 61.8408C573.999 58.9188 575.029 56.2543 576.746 53.8472C578.493 51.4401 580.841 49.5913 583.791 48.3009C586.741 47.0104 590.178 46.3642 594.102 46.3624C597.826 46.3606 601.164 46.9749 604.115 48.2052C607.095 49.407 609.487 51.2248 611.293 53.6589C613.099 56.0929 614.175 58.7421 614.52 61.6065C614.865 64.471 615.039 69.4839 615.043 76.6454L615.048 88.5477ZM596.947 65.6969C596.946 62.46 596.759 60.3976 596.386 59.5097C596.042 58.5932 595.311 58.1352 594.194 58.1358C593.249 58.1362 592.518 58.5089 592.003 59.254C591.516 59.9704 591.274 62.1189 591.276 65.6996L591.291 98.184C591.293 102.223 591.452 104.715 591.767 105.66C592.111 106.606 592.885 107.078 594.088 107.077C595.32 107.077 596.108 106.532 596.451 105.443C596.794 104.355 596.965 101.762 596.963 97.6657L596.947 65.6969Z" fill="white"/>
<path d="M680.286 49.6751L679.8 63.5884L669.064 63.213L667.12 118.824L649.041 118.191L650.986 62.5808L640.293 62.2069L640.779 48.2935L680.286 49.6751Z" fill="white"/>
<path d="M726.605 51.9067L723.185 121.389L705.117 120.5L706.554 91.3163L701.146 91.0502L699.71 120.234L681.642 119.344L685.062 49.862L703.13 50.7513L701.907 75.6001L707.314 75.8663L708.537 51.0174L726.605 51.9067Z" fill="white"/>
<path d="M736.542 52.4766L766.644 54.4098L765.751 68.3031L753.702 67.5292L752.856 80.6935L764.134 81.4178L763.286 94.625L752.008 93.9007L751.028 109.166L764.278 110.017L763.386 123.91L732.083 121.9L736.542 52.4766Z" fill="white"/>
<path d="M798.382 56.7741L816.523 58.4511C821.429 58.9046 825.159 59.6377 827.712 60.6504C830.293 61.6658 832.173 62.9615 833.351 64.5375C834.557 66.1162 835.292 67.9677 835.556 70.0922C835.851 72.1908 835.798 75.4079 835.397 79.7436L834.84 85.7765C834.431 90.1977 833.677 93.3788 832.577 95.3196C831.477 97.2605 829.65 98.6595 827.097 99.5166C824.572 100.376 821.341 100.624 817.405 100.261L812.57 99.8136L809.992 127.71L791.978 126.045L798.382 56.7741ZM815.299 70.291L813.67 87.919C814.18 87.995 814.621 88.0501 814.992 88.0844C816.647 88.2373 817.824 87.9435 818.526 87.2028C819.258 86.4362 819.743 84.7694 819.981 82.2022L820.507 76.5116C820.725 74.1441 820.497 72.5695 819.821 71.7878C819.146 71.0062 817.638 70.5072 815.299 70.291Z" fill="white"/>
<path d="M844.546 61.1672L874.507 64.6638L872.893 78.4918L860.9 77.0922L859.371 90.1947L870.595 91.5046L869.061 104.65L857.837 103.34L856.063 118.534L869.251 120.073L867.637 133.901L836.482 130.265L844.546 61.1672Z" fill="white"/>
<path d="M918.426 112.137C917.395 119.05 916.494 123.927 915.723 126.766C914.985 129.581 913.574 132.05 911.491 134.172C909.436 136.298 906.854 137.781 903.746 138.621C900.638 139.461 897.143 139.591 893.261 139.012C889.578 138.463 886.352 137.374 883.583 135.744C880.846 134.091 878.765 131.927 877.339 129.253C875.913 126.578 875.241 123.799 875.324 120.915C875.407 118.031 875.976 113.047 877.032 105.964L878.788 94.1922C879.819 87.279 880.703 82.4149 881.442 79.5998C882.213 76.7606 883.626 74.2777 885.68 72.1513C887.764 70.0291 890.359 68.5481 893.468 67.7083C896.576 66.8686 900.071 66.7381 903.953 67.3169C907.636 67.8662 910.846 68.9676 913.582 70.6211C916.352 72.2504 918.449 74.4024 919.875 77.0768C921.301 79.7513 921.972 82.5305 921.89 85.4144C921.807 88.2984 921.238 93.2819 920.182 100.365L918.426 112.137ZM903.906 86.8597C904.383 83.6581 904.503 81.5907 904.266 80.6575C904.061 79.7001 903.406 79.1391 902.301 78.9743C901.366 78.8349 900.589 79.0954 899.969 79.756C899.382 80.3925 898.824 82.4816 898.296 86.0231L893.505 118.152C892.909 122.147 892.697 124.635 892.869 125.617C893.07 126.602 893.765 127.184 894.955 127.361C896.173 127.543 897.033 127.121 897.533 126.095C898.034 125.069 898.586 122.53 899.19 118.479L903.906 86.8597Z" fill="white"/>
<path d="M930.55 72.8823L948.434 76.3603C953.27 77.3009 956.908 78.4024 959.347 79.6647C961.815 80.9325 963.556 82.4092 964.57 84.0948C965.613 85.7859 966.16 87.7015 966.211 89.8417C966.295 91.9592 965.921 95.155 965.09 99.4291L963.934 105.376C963.086 109.735 962.018 112.825 960.73 114.646C959.442 116.468 957.485 117.677 954.859 118.276C952.261 118.879 949.022 118.804 945.141 118.049L940.375 117.122L935.027 144.623L917.27 141.169L930.55 72.8823ZM946.035 88.0192L942.656 105.397C943.156 105.523 943.589 105.622 943.955 105.693C945.586 106.01 946.787 105.835 947.559 105.168C948.364 104.479 949.013 102.869 949.505 100.338L950.596 94.7281C951.05 92.3942 950.98 90.8047 950.385 89.9595C949.791 89.1144 948.341 88.4676 946.035 88.0192Z" fill="white"/>
<path d="M994.782 86.602L981.47 140.631L992.151 143.262L988.82 156.78L960.575 149.821L977.218 82.2743L994.782 86.602Z" fill="white"/>
<path d="M1011.65 90.9007L1040.54 99.5885L1036.53 112.92L1024.97 109.443L1021.17 122.075L1031.99 125.33L1028.18 138.004L1017.36 134.749L1012.95 149.398L1025.67 153.222L1021.66 166.554L991.617 157.519L1011.65 90.9007Z" fill="white"/>
<path d="M334 676.877C334 756.019 366.696 834.582 422.991 890.616C479.286 946.65 558.483 979 638 979C717.633 979 796.685 946.362 853.067 890.616C909.449 834.582 942 756.019 942 676.877V235.32C942 226.346 934.726 219.071 925.752 219.07L350.252 219.002C341.277 219.001 334 226.277 334 235.252V676.877Z" fill="white" stroke="black" stroke-width="19.4455"/>
<path d="M975.435 155.755C977.735 154.554 980.573 155.498 981.696 157.837L1039.28 277.781C1040.33 279.972 1039.49 282.604 1037.36 283.781L959.48 326.89C957.15 328.179 954.216 327.221 953.096 324.806L896.161 202.084C895.13 199.861 896.028 197.22 898.2 196.086L975.435 155.755Z" fill="#E0464C"/>
<path fill-rule="evenodd" clip-rule="evenodd" d="M1035.14 279.767L977.559 159.823L900.324 200.153L957.258 322.875L1035.14 279.767ZM981.696 157.837C980.573 155.498 977.735 154.554 975.435 155.755L898.2 196.086C896.028 197.22 895.13 199.861 896.161 202.084L953.096 324.806C954.216 327.221 957.15 328.179 959.48 326.89L1037.36 283.781C1039.49 282.604 1040.33 279.972 1039.28 277.781L981.696 157.837Z" fill="black"/>
<path d="M978.751 172.055L1009.03 232.596L937.91 271.474L908.084 208.855L978.751 172.055Z" fill="#FE9C9C"/>
<path d="M933.32 209.048L940.203 192.864C945.557 189.781 958.558 183.616 963.146 181.304C968.95 178.379 974.618 192.864 979.206 195.176C983.795 197.488 983.795 213.673 983.795 215.985C983.795 217.834 970.029 229.086 963.146 234.481H947.086L937.909 236.793C936.379 233.71 933.32 227.083 933.32 225.233V209.048Z" fill="#9C4040"/>
<path fill-rule="evenodd" clip-rule="evenodd" d="M953.901 200.467L947.541 191.921L951.222 189.182L958.628 199.133L956.302 224.92L963.003 242.929L958.703 244.529L951.638 225.545L953.901 200.467Z" fill="white"/>
<path d="M1011.33 236.793L1031.97 278.838L960.853 317.715L940.66 273.593L1011.33 236.793Z" fill="#FFBCBC"/>
<path d="M970.838 164.773C972.82 163.742 975.254 164.731 975.955 166.852L-nan -nanL-nan -nanL975.955 166.852C976.508 168.524 975.78 170.351 974.229 171.185L911.387 204.96C909.515 205.966 907.186 205.38 906.013 203.608L-nan -nanL-nan -nanL906.013 203.608C904.667 201.573 905.38 198.819 907.545 197.693L970.838 164.773Z" fill="#FFBCBC"/>
<path d="M936.863 184.184V184.184C-nan -nan -nan -nan 938.749 184.461Lnan nanCnan nan -nan -nan -nan -nanL-nan -nanC-nan -nan nan nan nan nanL938.749 184.461C-nan -nan -nan -nan 938.414 186.959V186.959L911.065 202.707C909.74 203.471 908.084 202.514 908.084 200.984C-nan -nan -nan -nan 908.084 200.984Lnan nanCnan nan -nan -nan -nan -nanL-nan -nanC-nan -nan nan nan nan nanL908.084 200.984C-nan -nan -nan -nan 909.124 199.236V199.236L936.863 184.184Z" fill="#070707"/>
<path d="M1007.99 255.858V255.858C-nan -nan -nan -nan 1009.87 256.132Lnan nanCnan nan -nan -nan -nan -nanL-nan -nanC-nan -nan nan nan nan nanL1009.87 256.132C-nan -nan -nan -nan 1009.52 258.62V258.62L956.961 288.283C955.625 289.037 953.971 288.071 953.971 286.537C-nan -nan -nan -nan 953.971 286.537Lnan nanCnan nan -nan -nan -nan -nanL-nan -nanC-nan -nan nan nan nan nanL953.971 286.537C-nan -nan -nan -nan 955.015 284.776V284.776L1007.99 255.858Z" fill="#070707"/>
<path d="M987.337 278.978V278.978C-nan -nan -nan -nan 989.224 279.256Lnan nanCnan nan -nan -nan -nan -nanL-nan -nanC-nan -nan nan nan nan nanL989.224 279.256C-nan -nan -nan -nan 988.889 281.753V281.753L961.54 297.502C960.214 298.265 958.559 297.308 958.559 295.778C-nan -nan -nan -nan 958.559 295.778Lnan nanCnan nan -nan -nan -nan -nanL-nan -nanC-nan -nan nan nan nan nanL958.559 295.778C-nan -nan -nan -nan 959.599 294.03V294.03L987.337 278.978Z" fill="#070707"/>
<path d="M-nan -nanL968.553 167.646C969.197 167.51 969.868 167.679 970.372 168.102L-nan -nanL-nan -nanL970.372 168.102C971.392 168.959 971.392 170.528 970.372 171.385L-nan -nanL-nan -nanL970.372 171.385C969.868 171.808 969.197 171.977 968.553 171.841L-nan -nanL-nan -nanL968.553 171.841C966.282 171.364 966.282 168.122 968.553 167.646L-nan -nanL-nan -nanZ" fill="#E0464C"/>
<path fill-rule="evenodd" clip-rule="evenodd" d="M963.764 229.212L952.783 222.572L955.157 218.646L967.12 225.878L973.861 237.201L979.938 239.243L978.477 243.592L970.788 241.009L963.764 229.212Z" fill="white"/>
<path d="M299.28 155.577C296.98 154.376 294.142 155.32 293.019 157.659L235.435 277.603C234.383 279.794 235.223 282.426 237.35 283.603L315.235 326.712C317.564 328.001 320.499 327.043 321.619 324.628L378.553 201.906C379.585 199.683 378.687 197.042 376.515 195.908L299.28 155.577Z" fill="#4671E0"/>
<path fill-rule="evenodd" clip-rule="evenodd" d="M239.572 279.589L297.156 159.645L374.391 199.975L317.457 322.697L239.572 279.589ZM293.019 157.659C294.142 155.32 296.98 154.376 299.28 155.577L376.515 195.908C378.687 197.042 379.585 199.683 378.553 201.906L321.619 324.628C320.499 327.043 317.564 328.001 315.235 326.712L237.35 283.603C235.223 282.426 234.383 279.794 235.435 277.603L293.019 157.659Z" fill="black"/>
<path d="M295.964 171.877L265.683 232.418L336.805 271.296L366.631 208.677L295.964 171.877Z" fill="#191B59"/>
<path fill-rule="evenodd" clip-rule="evenodd" d="M336.006 225.828C335.983 225.793 335.959 225.759 335.934 225.724C333.352 222.027 328.673 217.466 322.366 213.311C316.059 209.157 310.022 206.658 305.606 205.745C305.564 205.737 305.523 205.728 305.482 205.72C305.506 205.754 305.53 205.789 305.554 205.824C308.136 209.52 312.815 214.081 319.122 218.236C325.429 222.391 331.467 224.89 335.882 225.802C335.924 225.811 335.965 225.819 336.006 225.828ZM314.074 225.9C328.13 235.16 342.512 238.133 346.196 232.54C349.88 226.948 341.471 214.908 327.415 205.648C313.358 196.388 298.976 193.415 295.292 199.007C291.608 204.6 300.017 216.64 314.074 225.9Z" fill="#8AE3FF"/>
<path d="M322.609 188.881L336.6 195.748L325.556 218.251L311.565 211.385L322.609 188.881Z" fill="#191B59"/>
<path d="M263.383 236.615L242.736 278.66L313.858 317.537L334.051 273.415L263.383 236.615Z" fill="#8AABFF"/>
<path d="M303.875 164.595C301.893 163.564 299.459 164.553 298.758 166.674L-nan -nanL-nan -nanL298.758 166.674C298.205 168.346 298.933 170.174 300.484 171.007L363.326 204.782C365.197 205.788 367.527 205.202 368.7 203.43L-nan -nanL-nan -nanL368.7 203.43C370.046 201.395 369.333 198.642 367.168 197.516L303.875 164.595Z" fill="#8AABFF"/>
<path d="M305.731 167.822V167.822C-nan -nan -nan -nan 303.845 168.099Lnan nanCnan nan -nan -nan -nan -nanL-nan -nanC-nan -nan nan nan nan nanL303.845 168.099C-nan -nan -nan -nan 304.18 170.596V170.596L331.528 186.345C332.854 187.109 334.51 186.152 334.51 184.621C-nan -nan -nan -nan 334.51 184.621Lnan nanCnan nan -nan -nan -nan -nanL-nan -nanC-nan -nan nan nan nan nanL334.51 184.621C-nan -nan -nan -nan 333.469 182.873V182.873L305.731 167.822Z" fill="#070707"/>
<path d="M266.723 255.68V255.68C-nan -nan -nan -nan 264.845 255.954Lnan nanCnan nan -nan -nan -nan -nanL-nan -nanC-nan -nan nan nan nan nanL264.845 255.954C-nan -nan -nan -nan 265.19 258.442V258.442L317.753 288.105C319.09 288.859 320.744 287.894 320.744 286.359C-nan -nan -nan -nan 320.744 286.359Lnan nanCnan nan -nan -nan -nan -nanL-nan -nanC-nan -nan nan nan nan nanL320.744 286.359C-nan -nan -nan -nan 319.7 284.599V284.599L266.723 255.68Z" fill="#070707"/>
<path fill-rule="evenodd" clip-rule="evenodd" d="M304.638 179.254L309.227 202.197L304.727 203.097L300.139 180.154L304.638 179.254Z" fill="#8AE3FF"/>
<path fill-rule="evenodd" clip-rule="evenodd" d="M358.01 214.019L335.632 220.849L334.293 216.461L356.671 209.63L358.01 214.019Z" fill="#8AE3FF"/>
<path fill-rule="evenodd" clip-rule="evenodd" d="M279.133 209.543L302.311 206.349L302.938 210.895L279.76 214.089L279.133 209.543Z" fill="#8AE3FF"/>
<path fill-rule="evenodd" clip-rule="evenodd" d="M294.179 236.298L310.376 219.413L313.687 222.59L297.49 239.474L294.179 236.298Z" fill="#8AE3FF"/>
<path fill-rule="evenodd" clip-rule="evenodd" d="M331.937 253.671L326.121 231.009L330.565 229.868L336.381 252.531L331.937 253.671Z" fill="#8AE3FF"/>
<path d="M-nan -nanL365.182 200.034C364.395 199.786 363.536 200.049 363.023 200.695L-nan -nanL-nan -nanL363.023 200.695C362.447 201.421 362.447 202.448 363.023 203.173L-nan -nanL-nan -nanL363.023 203.173C363.536 203.819 364.395 204.083 365.182 203.835L-nan -nanL-nan -nanL365.182 203.835C367.041 203.249 367.041 200.619 365.182 200.034L-nan -nanL-nan -nanZ" fill="#4671E0"/>
<path d="M-nan -nanL356.639 195.212C355.994 195.077 355.324 195.245 354.82 195.669L-nan -nanL-nan -nanL354.82 195.669C353.8 196.525 353.8 198.095 354.82 198.952L-nan -nanL-nan -nanL354.82 198.952C355.324 199.375 355.994 199.543 356.639 199.408L-nan -nanL-nan -nanL356.639 199.408C358.91 198.931 358.91 195.689 356.639 195.212L-nan -nanL-nan -nanZ" fill="#4671E0"/>
<path d="M896.152 340.951H931.943L962.228 323.611L944.333 285.416L975.994 263.497L971.864 253.093L931.943 276.214" fill="black"/>
<path d="M379.477 340.951H343.686L313.401 323.611L331.296 285.416L299.635 263.497L303.765 253.093L343.686 276.214" fill="black"/>
<path d="M569.538 129.629C566.601 135.594 585.231 131.386 587.525 137.906C589.819 144.472 608.128 266.919 608.128 266.919L597.62 278.387V307.981H648.14V136.519C624.738 134.762 605.925 120.381 569.767 129.629H569.538Z" fill="#FFF799"/>
<path d="M571.51 131.109C570.363 131.201 569.17 131.386 568.069 131.664C529.524 148.935 551.366 179.662 541.088 231.082L552.009 233.394C552.009 244.354 550.173 250.665 552.009 264.607C582.431 267.474 602.942 263.451 605.236 264.607C613.037 271.543 624.967 296.421 624.967 296.421L627.262 295.265C627.262 295.265 631.391 182.529 628.179 173.281C625.426 158.853 609.366 145.536 597.344 138.045C589.268 133.976 579.632 130.369 571.51 131.109ZM963.1 243.66C962.183 243.614 960.347 244.03 958.512 244.955L930.521 259.151C919.05 266.087 911.249 270.249 911.249 270.249C900.237 276.26 919.968 295.635 904.825 301.323C897.942 304.005 891.518 306.872 886.93 308.12V369.159L953.464 328.513L942.911 306.363C937.863 322.085 929.604 327.172 914.92 329.946L912.626 320.698C924.556 316.999 932.357 314.27 935.569 301.323C937.404 291.612 930.98 286.988 935.11 278.202C935.569 275.89 952.088 264.746 963.1 257.81C966.771 255.498 970.442 253.694 971.819 252.769C968.607 247.822 966.771 243.799 963.1 243.66Z" fill="#F39B88"/>
<path d="M311.199 243.66C312.116 243.613 313.952 244.03 315.787 244.954L343.778 259.151C355.249 266.087 363.05 270.248 363.05 270.248C374.062 276.26 354.331 295.635 369.474 301.323C376.357 304.005 382.781 306.872 387.369 308.12V369.158L320.835 328.512L331.388 306.363C336.436 322.085 344.695 327.171 359.379 329.946L361.673 320.698C349.743 316.998 341.942 314.27 338.73 301.323C336.895 291.612 343.319 286.988 339.189 278.202C338.73 275.89 322.211 264.746 311.199 257.81C307.528 255.497 303.857 253.694 302.48 252.769C305.692 247.821 307.528 243.798 311.199 243.66Z" fill="#F39B88"/>
<path d="M599.27 126.484C625.425 138.97 629.096 144.01 639.191 157.42C645.156 169.442 644.697 180.54 644.697 228.631C644.697 259.613 641.944 289.254 642.403 290.641L611.201 299.427C608.447 298.502 602.941 284.213 597.894 278.202C570.362 309.646 528.285 318.339 491.209 321.114C470.285 323.888 409.899 311.403 385.672 300.768C385.672 300.768 384.433 701.171 384.387 885.257C437.795 885.257 528.652 807.794 528.652 753.278C528.652 697.788 528.652 881.558 528.652 881.558L749.317 882.482C749.317 882.482 743.363 758.345 743.363 763.432C746.108 816.327 842.878 886.486 891.104 890.806V306.779C848.431 321.206 797.956 326.709 758.953 318.848C725.456 312.837 702.514 287.404 700.219 282.317C682.783 246.712 764.001 255.544 798.874 255.544C794.285 229.186 790.156 222.25 780.52 202.366C761.247 169.073 744.27 154.275 713.067 140.403C685.536 129.767 626.802 126.531 599.27 126.531V126.484Z" fill="black"/>
<path d="M560.774 891.509C554.855 893.344 552.01 911.24 545.127 919.958C536.225 931.429 496.213 955.749 496.213 1003.93C522.781 986.951 534.206 978.692 561.738 958.961C568.021 954.584 573.307 951.254 577.705 948.667C588.982 942.036 594.425 940.293 595.877 938.312V891.509H560.774ZM674.067 891.509C674.525 921.335 674.067 933.265 676.82 938.312C681.867 945.195 692.421 946.113 716.282 964.008C738.307 981.445 750.237 991.081 772.721 1003.93C768.591 950.243 756.202 953.914 736.471 931.429C725.918 921.793 711.234 892.427 710.316 891.509H674.067Z" fill="black"/>
<path d="M610.743 169.859C611.202 159.454 575.411 167.431 566.234 158.183C562.793 169.188 597.895 164.078 610.743 169.859ZM579.999 191.176C584.588 188.917 586.882 193.47 600.19 195.291C595.601 186.598 587.525 180.818 577.247 183.13C571.466 185.997 569.171 189.465 568.621 195.8L579.999 191.176Z" fill="#231F20"/>
<path d="M579.86 246.911C571.707 240.432 565.34 248.827 552.466 250.827C547.878 262.299 567.638 253.919 579.86 246.911Z" fill="#231F20"/>
<path d="M754.342 508.881C752.311 455.499 747.718 435.229 744.674 435.229C741.585 435.229 740.613 464.796 736.553 490.925C732.492 516.993 725.341 546.555 725.341 546.555L707.067 539.595C707.067 539.595 701.944 501.874 699.915 456.669C697.931 411.462 696.385 371.981 690.732 371.981C685.215 371.934 684.157 409.101 682.126 457.264C680.094 505.399 672.991 532.059 672.991 532.059L656.218 529.722C656.218 529.722 648.096 487.971 645.049 360.437C644.342 330.253 636.973 324.196 636.973 324.196C636.973 324.196 629.601 330.253 628.895 360.437C625.851 487.971 617.683 529.722 617.683 529.722L600.953 532.059C600.953 532.059 593.805 505.399 591.775 457.264C589.744 409.101 588.726 371.934 583.169 371.981C577.562 371.981 576.015 411.462 573.939 456.669C571.956 501.874 566.877 539.595 566.877 539.595L548.602 546.555C548.602 546.555 541.455 516.993 537.393 490.925C533.334 464.796 532.316 435.229 529.272 435.229C526.225 435.229 521.637 455.499 519.605 508.881C517.574 562.196 517.09 572.618 517.09 572.618C517.09 572.618 577.076 598.173 600.426 664.305C623.82 730.399 629.735 787.788 629.911 794.159C630.217 804.048 636.973 805.307 636.973 805.307C636.973 805.307 642.845 804.048 644.036 794.159C644.784 787.833 650.126 730.399 673.517 664.305C696.871 598.173 756.857 572.618 756.857 572.618C756.857 572.618 756.369 562.196 754.342 508.881Z" fill="#FFF799"/>
</svg>
