<svg width="488" height="447" viewBox="0 0 488 447" fill="none" xmlns="http://www.w3.org/2000/svg">
<path d="M100.888 366.848C139.442 376.635 253.177 391.076 388.316 366.599L405.899 363.415C408.71 362.906 411.349 364.927 411.589 367.774L416.167 422.05C416.376 424.539 414.66 426.779 412.203 427.224L394.181 430.488C254.384 455.808 135.917 441.201 92.737 430.24L74.754 425.674C72.398 425.076 70.8502 422.825 71.1355 420.411L77.501 366.561C77.8445 363.655 80.6667 361.715 83.5031 362.435L100.888 366.848Z" fill="white" stroke="black" stroke-width="5" stroke-linecap="square"/>
<path d="M111.251 414.365L114.15 393.737C114.276 392.838 114.194 392.035 113.905 391.328C113.616 390.621 113.185 390.227 112.613 390.147L112.739 389.248C112.934 389.247 114.535 388.625 117.542 387.382C117.725 387.463 117.945 387.577 118.202 387.725C118.463 387.845 118.78 388.153 119.155 388.65C119.557 389.151 119.717 389.687 119.637 390.259C119.812 390.2 120.311 390.007 121.135 389.678C123.311 388.818 124.63 388.42 125.093 388.485C125.583 388.554 126.08 388.874 126.583 389.444C127.113 390.019 127.48 390.667 127.684 391.39C127.742 391.371 128.341 391.163 129.479 390.768C131.757 389.977 133.113 389.612 133.549 389.674C134.42 389.796 135.157 390.483 135.759 391.734C136.36 392.985 136.594 394.087 136.46 395.04L133.573 415.587C133.363 417.085 133.906 418.063 135.202 418.523L135.076 419.422L130.273 421.288C129.708 420.959 129.205 420.485 128.765 419.868C128.328 419.223 128.143 418.656 128.212 418.166L131.025 398.15C131.254 396.516 131.141 395.347 130.684 394.644C130.259 393.918 129.355 393.43 127.974 393.18L124.995 414.381C124.785 415.879 125.327 416.858 126.624 417.317L126.497 418.216L121.695 420.082C121.13 419.753 120.627 419.279 120.186 418.662C119.749 418.017 119.565 417.45 119.634 416.96L122.447 396.944C122.688 395.228 122.593 394.021 122.164 393.322C121.762 392.627 120.839 392.178 119.396 391.975L116.451 412.93C116.31 413.938 116.317 414.675 116.474 415.141C116.631 415.607 117.049 415.888 117.73 415.984L117.552 417.25L108.685 419.586L108.215 418.187C108.814 418.271 109.435 417.998 110.08 417.366C110.665 416.754 111.056 415.754 111.251 414.365Z" fill="black"/>
<path d="M143.817 416.424C143.74 417.135 143.881 417.745 144.24 418.254C144.63 418.74 145.084 419.01 145.604 419.067C146.123 419.124 146.692 418.978 147.311 418.631L148.701 405.877C148.882 404.21 148.425 403.206 147.328 402.865L147.426 401.963L151.822 400.077C152.397 400.388 152.913 400.859 153.37 401.49C153.829 402.093 154.033 402.641 153.979 403.133L152.464 417.035C152.366 417.937 152.472 418.737 152.784 419.435C153.095 420.133 153.538 420.513 154.112 420.575L154.013 421.477C153.819 421.484 152.238 422.155 149.271 423.492C148.672 423.15 148.141 422.691 147.678 422.115C147.246 421.514 147.056 420.968 147.11 420.476L141.685 422.665C141.609 422.601 141.493 422.519 141.338 422.42C141.186 422.292 140.921 422.056 140.544 421.711C140.197 421.341 139.892 420.962 139.63 420.574C138.909 419.582 138.61 418.512 138.735 417.364L140.089 404.939C140.253 403.435 139.68 402.474 138.37 402.054L138.469 401.152L143.211 399.138C143.785 399.449 144.301 399.921 144.758 400.551C145.218 401.155 145.421 401.702 145.367 402.195L143.817 416.424ZM141.601 394.108L141.843 391.893C141.851 391.811 142.383 391.634 143.436 391.361C144.516 391.092 145.139 390.966 145.303 390.984C145.467 391.002 145.677 391.232 145.933 391.675C146.189 392.118 146.291 392.572 146.241 393.037L145.95 395.702C145.941 395.784 145.424 395.963 144.398 396.238C143.4 396.517 142.777 396.642 142.531 396.616C142.313 396.592 142.077 396.345 141.824 395.875C141.598 395.407 141.524 394.818 141.601 394.108ZM150.09 395.033L150.331 392.818C150.34 392.736 150.871 392.559 151.924 392.287C153.005 392.017 153.627 391.891 153.791 391.909C153.955 391.927 154.165 392.158 154.421 392.6C154.677 393.043 154.78 393.497 154.729 393.962L154.439 396.627C154.43 396.709 153.913 396.888 152.887 397.163C151.888 397.442 151.266 397.568 151.02 397.541C150.801 397.517 150.565 397.27 150.312 396.8C150.086 396.333 150.012 395.744 150.09 395.033Z" fill="black"/>
<path d="M157.807 421.571L158.982 407.636C159.058 406.732 158.932 405.935 158.604 405.245C158.276 404.555 157.824 404.185 157.248 404.137L157.325 403.233C157.519 403.221 159.083 402.512 162.016 401.103C162.204 401.174 162.43 401.276 162.694 401.409C162.961 401.514 163.296 401.805 163.697 402.28C164.126 402.758 164.316 403.284 164.268 403.86C164.439 403.791 164.927 403.57 165.731 403.197C167.856 402.217 169.11 401.743 169.494 401.775C170.371 401.849 171.144 402.494 171.814 403.71C172.485 404.926 172.779 406.013 172.698 406.972L171.648 419.427C171.521 420.934 172.117 421.881 173.437 422.268L173.361 423.172L168.669 425.302C168.087 425.004 167.559 424.56 167.084 423.968C166.612 423.348 166.397 422.792 166.438 422.299L167.444 410.379C167.573 408.844 167.493 407.664 167.204 406.84C166.944 405.99 166.376 405.528 165.499 405.454L164.122 405.586L163.016 418.698C162.875 420.37 163.357 421.363 164.462 421.677L164.386 422.581L160.037 424.574C159.455 424.276 158.927 423.831 158.452 423.239C157.98 422.62 157.765 422.064 157.807 421.571Z" fill="black"/>
<path d="M184.083 406.864C183.808 406.847 183.553 406.97 183.317 407.231L182.624 418.595C182.495 420.708 183.321 422.067 185.103 422.672C186.022 422.948 187.127 423.126 188.418 423.205L188.345 424.399C183.751 425.634 181.303 426.242 181.001 426.224C180.178 426.173 179.376 425.546 178.595 424.341C177.816 423.109 177.474 421.711 177.57 420.146L178.414 406.312C178.425 406.119 180.031 405.542 183.23 404.58C186.459 403.593 188.307 403.113 188.773 403.142C188.938 403.152 189.106 403.561 189.277 404.371C189.448 405.18 189.636 406.156 189.842 407.298C190.076 408.442 190.326 409.298 190.595 409.865C190.892 410.407 191.48 410.704 192.359 410.758L192.309 411.581C191.688 411.819 190.628 412.25 189.13 412.875C187.661 413.474 186.871 413.77 186.762 413.764C186.35 413.739 185.896 412.595 185.4 410.333C184.906 408.044 184.467 406.888 184.083 406.864Z" fill="black"/>
<path d="M197.667 424.388L198.431 403.984C198.459 403.242 198.355 402.715 198.119 402.403C197.884 402.064 197.464 401.883 196.859 401.861L196.902 400.706C200.545 398.972 203.799 397.332 206.663 395.789L207.273 397.132C206.994 397.259 206.598 397.52 206.088 397.913C205.579 398.28 205.152 398.663 204.807 399.063C203.943 400.076 203.487 401.242 203.438 402.561L203.306 406.065C206.191 404.715 207.868 404.048 208.335 404.066C209.214 404.099 210.032 404.68 210.787 405.809C211.543 406.938 211.896 408.162 211.847 409.481L211.393 421.6C211.336 423.111 211.976 424.03 213.312 424.355L213.278 425.262L208.691 427.608C208.096 427.338 207.547 426.918 207.046 426.349C206.545 425.753 206.304 425.207 206.323 424.712L206.771 412.758C206.872 410.065 206.434 408.521 205.458 408.127C204.997 407.945 204.258 407.834 203.241 407.796L202.737 421.276C202.674 422.952 203.202 423.921 204.32 424.183L204.286 425.09L200.035 427.284C199.439 427.014 198.891 426.594 198.389 426.025C197.889 425.428 197.648 424.883 197.667 424.388Z" fill="black"/>
<path d="M227.359 404.533C227.496 404.535 227.837 404.76 228.38 405.208C228.924 405.629 229.465 406.229 230.003 407.007C230.542 407.757 230.806 408.49 230.795 409.205L230.691 416.134C230.683 416.629 229.945 417.223 228.477 417.916C227.009 418.609 225.584 419.179 224.202 419.626C222.848 420.045 222.116 420.254 222.006 420.253C221.974 422.37 222.876 423.69 224.711 424.213C225.615 424.446 226.699 424.573 227.964 424.592L227.946 425.788C223.414 427.232 220.996 427.952 220.694 427.947C219.869 427.935 219.039 427.345 218.204 426.177C217.369 424.982 216.964 423.601 216.988 422.033L217.196 408.175C217.199 407.983 218.777 407.332 221.929 406.225C225.081 405.09 226.891 404.526 227.359 404.533ZM225.816 411.069C225.828 410.299 225.659 409.65 225.309 409.122C224.96 408.567 224.511 408.285 223.961 408.277C223.411 408.269 222.803 408.466 222.137 408.868L221.993 418.396C224.478 417.746 225.738 416.28 225.772 413.997L225.816 411.069Z" fill="black"/>
<path d="M237.481 425.357L237.375 411.374C237.368 410.466 237.17 409.684 236.78 409.027C236.39 408.37 235.906 408.044 235.329 408.048L235.322 407.141C235.514 407.112 237.006 406.261 239.799 404.59C239.992 404.644 240.226 404.724 240.502 404.832C240.777 404.913 241.137 405.171 241.58 405.608C242.051 406.044 242.289 406.551 242.293 407.129C242.457 407.045 242.923 406.78 243.69 406.334C245.716 405.164 246.921 404.577 247.306 404.574C248.186 404.568 249.016 405.139 249.794 406.288C250.573 407.437 250.966 408.493 250.974 409.455L251.068 421.954C251.08 423.466 251.76 424.355 253.11 424.62L253.117 425.527L248.64 428.077C248.033 427.835 247.466 427.44 246.94 426.894C246.413 426.321 246.147 425.786 246.144 425.291L246.053 413.329C246.041 411.789 245.854 410.622 245.49 409.827C245.154 409.005 244.546 408.597 243.666 408.603L242.306 408.861L242.406 422.02C242.419 423.697 242.99 424.642 244.119 424.853L244.126 425.76L239.978 428.143C239.371 427.9 238.804 427.506 238.277 426.96C237.75 426.386 237.485 425.852 237.481 425.357Z" fill="black"/>
<path d="M273.565 399.694C273.29 399.706 273.049 399.854 272.841 400.138L273.301 411.018L279.112 410.772L279.153 411.761L277.136 412.879L273.386 413.037L273.56 417.159C273.689 420.208 274.067 421.982 274.693 422.478C275.633 423.209 276.64 423.607 277.716 423.671C278.793 423.736 279.949 423.742 281.185 423.69L281.236 424.885C281.098 424.891 280.098 425.319 278.235 426.168C276.37 426.99 275.232 427.41 274.82 427.427C273.968 427.463 272.759 426.854 271.192 425.599C269.653 424.343 268.85 422.945 268.785 421.407L267.869 399.729C267.861 399.536 269.398 398.797 272.482 397.51C275.592 396.195 277.38 395.528 277.847 395.508C278.012 395.501 278.221 395.892 278.475 396.679C278.728 397.467 279.016 398.418 279.338 399.533C279.688 400.646 280.026 401.472 280.351 402.008C280.703 402.516 281.319 402.752 282.198 402.715L282.233 403.539C281.64 403.839 280.63 404.377 279.204 405.153C277.805 405.901 277.05 406.277 276.94 406.281C276.528 406.299 275.959 405.208 275.233 403.009C274.506 400.783 273.95 399.678 273.565 399.694Z" fill="black"/>
<path d="M295.6 394.549C296.341 394.501 297.623 396.223 299.446 399.716C301.27 403.208 302.226 405.64 302.314 407.013L303.123 419.568C303.164 420.199 303.368 420.806 303.736 421.388C304.132 421.969 304.648 422.28 305.284 422.322L305.343 423.228C305.152 423.267 303.711 424.201 301.018 426.028C300.369 425.794 299.767 425.433 299.212 424.945C298.682 424.428 298.403 423.937 298.373 423.47C295.553 425.471 293.896 426.487 293.402 426.519C293.21 426.531 292.826 426.349 292.251 425.973C291.701 425.567 291.126 424.984 290.526 424.224C289.952 423.434 289.637 422.614 289.582 421.763L288.635 407.067C288.618 406.793 290.876 405.697 295.409 403.779C294.282 401.674 293.388 400.203 292.727 399.363C292.067 398.524 291.449 398.123 290.872 398.16L289.514 398.248L289.434 397.013C292.392 395.444 294.447 394.623 295.6 394.549ZM296.698 422.503C297.22 422.47 297.741 422.216 298.261 421.741L297.338 407.416C297.328 407.251 297.182 406.916 296.902 406.411C296.647 405.876 296.464 405.612 296.355 405.619C295.559 405.67 294.765 405.97 293.974 406.517L293.578 406.79L294.403 419.592C294.534 421.623 295.299 422.594 296.698 422.503Z" fill="black"/>
<path d="M312.464 404.405L313.642 418.96C313.778 420.632 314.416 421.532 315.558 421.66L315.631 422.565L311.668 425.245C311.045 425.047 310.451 424.695 309.886 424.189C309.318 423.655 309.015 423.142 308.975 422.649L307.797 408.094C307.661 406.422 307.023 405.522 305.881 405.393L305.808 404.489L309.771 401.809C310.394 402.007 310.989 402.372 311.557 402.906C312.122 403.412 312.424 403.912 312.464 404.405ZM306.272 396.919L306.069 394.411C306.062 394.329 306.604 394.037 307.695 393.534C308.81 393.003 309.45 392.73 309.615 392.717C309.807 392.701 310.086 392.913 310.453 393.353C310.847 393.79 311.064 394.255 311.104 394.748L311.346 397.75C311.353 397.832 310.826 398.137 309.765 398.664C308.702 399.164 308.047 399.424 307.8 399.444C307.554 399.464 307.247 399.254 306.88 398.815C306.539 398.346 306.336 397.714 306.272 396.919Z" fill="black"/>
<path d="M322.887 396.368L323.342 401.255L325.437 401.06L325.213 403.111L323.529 403.268L324.898 417.972C325.054 419.642 325.703 420.534 326.846 420.649L326.93 421.552L323 424.28C322.374 424.09 321.776 423.745 321.205 423.246C320.631 422.719 320.321 422.209 320.275 421.716L318.605 403.768L316.921 403.925L317.171 402.161C317.992 402.085 318.927 401.445 319.975 400.243C321.048 399.011 321.635 397.755 321.737 396.475L322.887 396.368Z" fill="black"/>
<path d="M334.895 402.296L336.425 416.818C336.601 418.486 337.261 419.37 338.405 419.471L338.501 420.373L334.604 423.148C333.976 422.966 333.374 422.628 332.796 422.136C332.216 421.617 331.9 421.111 331.848 420.618L330.318 406.096C330.142 404.428 329.482 403.544 328.338 403.443L328.243 402.54L332.14 399.765C332.767 399.948 333.371 400.299 333.951 400.819C334.529 401.311 334.843 401.803 334.895 402.296ZM328.523 394.962L328.259 392.459C328.251 392.377 328.785 392.072 329.863 391.544C330.966 390.985 331.599 390.697 331.763 390.68C331.955 390.66 332.239 390.865 332.616 391.295C333.021 391.723 333.249 392.182 333.301 392.675L333.616 395.669C333.625 395.751 333.105 396.069 332.057 396.622C331.007 397.147 330.358 397.423 330.112 397.449C329.866 397.475 329.554 397.273 329.177 396.842C328.825 396.382 328.606 395.755 328.523 394.962Z" fill="black"/>
<path d="M342.946 416.222L341.281 402.628C341.258 402.437 342.732 401.578 345.703 400.05C348.671 398.495 350.387 397.689 350.851 397.632C351.315 397.575 352.08 398.05 353.145 399.055C354.237 400.057 354.838 401.009 354.949 401.909L356.764 416.731C356.791 416.949 355.375 417.829 352.516 419.371C349.681 420.882 347.923 421.679 347.24 421.763C346.585 421.843 345.749 421.35 344.732 420.283C343.742 419.213 343.147 417.859 342.946 416.222ZM350.218 417.575C350.737 417.511 351.242 417.228 351.735 416.724L350.255 404.645C350.008 402.626 349.188 401.701 347.796 401.871C347.25 401.938 346.743 402.208 346.275 402.681L347.759 414.801C348.006 416.821 348.826 417.745 350.218 417.575Z" fill="black"/>
<path d="M361.633 417.167L359.652 403.324C359.524 402.426 359.222 401.677 358.748 401.078C358.273 400.479 357.75 400.221 357.178 400.303L357.05 399.404C357.236 399.35 358.601 398.307 361.144 396.277C361.342 396.304 361.586 396.352 361.873 396.422C362.157 396.465 362.548 396.673 363.046 397.046C363.571 397.415 363.875 397.886 363.956 398.458C364.108 398.353 364.534 398.028 365.234 397.483C367.085 396.051 368.201 395.308 368.582 395.254C369.453 395.129 370.351 395.584 371.277 396.618C372.203 397.652 372.734 398.646 372.87 399.599L374.64 411.972C374.855 413.469 375.648 414.258 377.021 414.339L377.15 415.238L373.055 418.366C372.421 418.206 371.807 417.891 371.211 417.421C370.612 416.923 370.278 416.43 370.208 415.94L368.514 404.098C368.295 402.573 367.953 401.441 367.486 400.703C367.043 399.933 366.385 399.61 365.514 399.735L364.202 400.173L366.065 413.199C366.303 414.859 366.995 415.719 368.143 415.777L368.271 416.675L364.48 419.593C363.846 419.434 363.231 419.119 362.636 418.648C362.037 418.151 361.703 417.657 361.633 417.167Z" fill="black"/>
<mask id="path-16-outside-1_163_558" maskUnits="userSpaceOnUse" x="9.73438" y="321.801" width="109" height="80" fill="black">
<rect fill="white" x="9.73438" y="321.801" width="109" height="80"/>
<path fill-rule="evenodd" clip-rule="evenodd" d="M71.0045 393.731C70.8415 395.11 69.5219 396.046 68.1665 395.744L17.5686 384.455C15.4554 383.983 15.0568 381.144 16.9585 380.109L46.1549 364.218C47.2977 363.596 47.7151 362.162 47.0847 361.023L30.4364 330.963C29.4579 329.196 31.023 327.101 32.9946 327.539L111.138 344.885C112.238 345.129 113.009 346.122 112.973 347.248L112.442 363.713C112.396 365.157 111.066 366.216 109.651 365.927C105.082 364.996 101.03 364.073 97.526 363.183L77.8719 358.19C76.4994 357.842 75.1335 358.781 74.9674 360.187L71.0045 393.731Z"/>
</mask>
<path fill-rule="evenodd" clip-rule="evenodd" d="M71.0045 393.731C70.8415 395.11 69.5219 396.046 68.1665 395.744L17.5686 384.455C15.4554 383.983 15.0568 381.144 16.9585 380.109L46.1549 364.218C47.2977 363.596 47.7151 362.162 47.0847 361.023L30.4364 330.963C29.4579 329.196 31.023 327.101 32.9946 327.539L111.138 344.885C112.238 345.129 113.009 346.122 112.973 347.248L112.442 363.713C112.396 365.157 111.066 366.216 109.651 365.927C105.082 364.996 101.03 364.073 97.526 363.183L77.8719 358.19C76.4994 357.842 75.1335 358.781 74.9674 360.187L71.0045 393.731Z" fill="white"/>
<path d="M97.526 363.183L98.757 358.337L97.526 363.183ZM77.8719 358.19L79.1029 353.344L77.8719 358.19ZM74.9674 360.187L70.0019 359.6L74.9674 360.187ZM112.442 363.713L117.44 363.874L112.442 363.713ZM109.651 365.927L108.652 370.827L109.651 365.927ZM111.138 344.885L110.055 349.766L111.138 344.885ZM112.973 347.248L117.97 347.41L112.973 347.248ZM30.4364 330.963L26.0624 333.385L30.4364 330.963ZM32.9946 327.539L31.9111 332.42L32.9946 327.539ZM46.1549 364.218L43.7646 359.826L46.1549 364.218ZM47.0847 361.023L51.4587 358.601L47.0847 361.023ZM16.9585 380.109L14.5682 375.717L16.9585 380.109ZM68.1665 395.744L67.0777 400.624L68.1665 395.744ZM67.0777 400.624L16.4798 389.335L18.6574 379.575L69.2553 390.864L67.0777 400.624ZM14.5682 375.717L43.7646 359.826L48.5452 368.609L19.3488 384.5L14.5682 375.717ZM42.7107 363.446L26.0624 333.385L34.8104 328.54L51.4587 358.601L42.7107 363.446ZM34.0781 322.658L112.222 340.004L110.055 349.766L31.9111 332.42L34.0781 322.658ZM117.97 347.41L117.44 363.874L107.445 363.552L107.975 347.087L117.97 347.41ZM108.652 370.827C104.019 369.882 99.8883 368.942 96.2951 368.029L98.757 358.337C102.172 359.204 106.146 360.11 110.65 361.028L108.652 370.827ZM96.2951 368.029L76.641 363.037L79.1029 353.344L98.757 358.337L96.2951 368.029ZM79.9328 360.774L75.9699 394.318L66.039 393.145L70.0019 359.6L79.9328 360.774ZM76.641 363.037C78.1966 363.432 79.7445 362.368 79.9328 360.774L70.0019 359.6C70.5225 355.194 74.8021 352.252 79.1029 353.344L76.641 363.037ZM117.44 363.874C117.294 368.387 113.129 371.739 108.652 370.827L110.65 361.028C109.004 360.693 107.497 361.927 107.445 363.552L117.44 363.874ZM112.222 340.004C115.669 340.769 118.084 343.88 117.97 347.41L107.975 347.087C107.934 348.364 108.808 349.489 110.055 349.766L112.222 340.004ZM26.0624 333.385C22.9965 327.849 27.9004 321.287 34.0781 322.658L31.9111 332.42C34.1456 332.916 35.9193 330.543 34.8104 328.54L26.0624 333.385ZM43.7646 359.826C42.4694 360.531 41.9963 362.156 42.7107 363.446L51.4587 358.601C53.4339 362.168 52.126 366.66 48.5452 368.609L43.7646 359.826ZM16.4798 389.335C9.85851 387.857 8.60957 378.96 14.5682 375.717L19.3488 384.5C21.5041 383.327 21.0523 380.109 18.6574 379.575L16.4798 389.335ZM69.2553 390.864C67.7192 390.521 66.2237 391.582 66.039 393.145L75.9699 394.318C75.4594 398.639 71.3247 401.571 67.0777 400.624L69.2553 390.864Z" fill="black" mask="url(#path-16-outside-1_163_558)"/>
<mask id="path-18-outside-2_163_558" maskUnits="userSpaceOnUse" x="369.26" y="321.619" width="108" height="80" fill="black">
<rect fill="white" x="369.26" y="321.619" width="108" height="80"/>
<path fill-rule="evenodd" clip-rule="evenodd" d="M374.774 363.176C374.82 364.588 376.097 365.64 377.491 365.41C382.208 364.631 386.95 363.811 391.716 362.947L411.585 359.346C412.945 359.1 414.222 360.078 414.338 361.456L417.037 393.471C417.156 394.887 418.496 395.871 419.883 395.562L469.665 384.455C471.778 383.983 472.177 381.144 470.275 380.109L441.079 364.218C439.936 363.596 439.519 362.162 440.149 361.024L456.797 330.963C457.776 329.196 456.211 327.102 454.239 327.539L376.096 344.885C374.995 345.129 374.225 346.122 374.261 347.249L374.774 363.176Z"/>
</mask>
<path fill-rule="evenodd" clip-rule="evenodd" d="M374.774 363.176C374.82 364.588 376.097 365.64 377.491 365.41C382.208 364.631 386.95 363.811 391.716 362.947L411.585 359.346C412.945 359.1 414.222 360.078 414.338 361.456L417.037 393.471C417.156 394.887 418.496 395.871 419.883 395.562L469.665 384.455C471.778 383.983 472.177 381.144 470.275 380.109L441.079 364.218C439.936 363.596 439.519 362.162 440.149 361.024L456.797 330.963C457.776 329.196 456.211 327.102 454.239 327.539L376.096 344.885C374.995 345.129 374.225 346.122 374.261 347.249L374.774 363.176Z" fill="white"/>
<path d="M391.716 362.947L392.607 367.867H392.607L391.716 362.947ZM376.096 344.885L377.179 349.766L376.096 344.885ZM456.797 330.963L461.171 333.385L456.797 330.963ZM454.239 327.539L453.156 322.658L454.239 327.539ZM440.149 361.024L435.775 358.601L440.149 361.024ZM469.665 384.455L468.576 379.575L469.665 384.455ZM470.275 380.109L472.666 375.717L470.275 380.109ZM417.037 393.471L422.019 393.051L417.037 393.471ZM419.883 395.562L418.794 390.682L419.883 395.562ZM411.585 359.346L412.476 364.266L411.585 359.346ZM414.338 361.456L409.356 361.876L414.338 361.456ZM377.491 365.41L378.306 370.343L377.491 365.41ZM392.607 367.867C387.815 368.735 383.048 369.56 378.306 370.343L376.677 360.477C381.368 359.702 386.084 358.886 390.824 358.027L392.607 367.867ZM412.476 364.266L392.607 367.867L390.824 358.027L410.693 354.426L412.476 364.266ZM412.054 393.891L409.356 361.876L419.32 361.036L422.019 393.051L412.054 393.891ZM418.794 390.682L468.576 379.575L470.754 389.335L420.971 400.442L418.794 390.682ZM467.885 384.5L438.689 368.609L443.469 359.826L472.666 375.717L467.885 384.5ZM435.775 358.601L452.423 328.54L461.171 333.385L444.523 363.446L435.775 358.601ZM455.323 332.42L377.179 349.766L375.012 340.004L453.156 322.658L455.323 332.42ZM379.258 347.088L379.772 363.014L369.777 363.337L369.264 347.41L379.258 347.088ZM377.179 349.766C378.426 349.489 379.3 348.364 379.258 347.088L369.264 347.41C369.15 343.88 371.565 340.769 375.012 340.004L377.179 349.766ZM452.423 328.54C451.314 330.543 453.088 332.916 455.323 332.42L453.156 322.658C459.333 321.287 464.237 327.849 461.171 333.385L452.423 328.54ZM438.689 368.609C435.108 366.66 433.8 362.168 435.775 358.601L444.523 363.446C445.238 362.156 444.764 360.531 443.469 359.826L438.689 368.609ZM468.576 379.575C466.181 380.109 465.73 383.327 467.885 384.5L472.666 375.717C478.624 378.96 477.375 387.858 470.754 389.335L468.576 379.575ZM422.019 393.051C421.884 391.448 420.365 390.332 418.794 390.682L420.971 400.442C416.628 401.411 412.428 398.326 412.054 393.891L422.019 393.051ZM410.693 354.426C414.955 353.654 418.957 356.719 419.32 361.036L409.356 361.876C409.487 363.437 410.935 364.546 412.476 364.266L410.693 354.426ZM378.306 370.343C373.92 371.067 369.92 367.76 369.777 363.337L379.772 363.014C379.72 361.417 378.273 360.213 376.677 360.477L378.306 370.343Z" fill="black" mask="url(#path-18-outside-2_163_558)"/>
<path d="M67.319 25.8046L67.9615 28.1123L67.319 25.8046C65.1688 26.4033 63.7673 28.4697 64.0065 30.6889L70.7821 93.5534C71.084 96.3547 73.8277 98.2155 76.542 97.4598L95.0489 92.3072C135.278 81.1067 253.976 64.576 395.016 92.5931L413.737 96.3119C416.42 96.8448 418.965 94.9138 419.175 92.1867L424.048 28.8228C424.225 26.5199 422.653 24.4479 420.388 23.9979L401.182 20.1827C255.244 -8.80728 131.569 7.91619 86.4842 20.4687L67.319 25.8046Z" fill="white" stroke="black" stroke-width="5" stroke-linecap="square"/>
<mask id="path-21-outside-3_163_558" maskUnits="userSpaceOnUse" x="-0.998047" y="53.4467" width="114" height="90" fill="black">
<rect fill="white" x="-0.998047" y="53.4467" width="114" height="90"/>
<path fill-rule="evenodd" clip-rule="evenodd" d="M63.7621 61.289C63.6285 60.0487 62.433 59.21 61.2212 59.5065L6.57499 72.8784C4.78315 73.3169 4.4241 75.7073 6.00807 76.6528L38.4042 95.9912C39.3338 96.5462 39.6761 97.7255 39.1881 98.6919L20.8676 134.972C20.0743 136.543 21.4865 138.322 23.1965 137.906L106.077 117.729C107.023 117.499 107.679 116.638 107.651 115.664L107.061 95.5846C107.023 94.2964 105.825 93.3578 104.567 93.6374C99.6348 94.7336 95.2706 95.8214 91.5108 96.8688L70.635 102.684C69.4079 103.026 68.1673 102.185 68.0309 100.918L63.7621 61.289Z"/>
</mask>
<path fill-rule="evenodd" clip-rule="evenodd" d="M63.7621 61.289C63.6285 60.0487 62.433 59.21 61.2212 59.5065L6.57499 72.8784C4.78315 73.3169 4.4241 75.7073 6.00807 76.6528L38.4042 95.9912C39.3338 96.5462 39.6761 97.7255 39.1881 98.6919L20.8676 134.972C20.0743 136.543 21.4865 138.322 23.1965 137.906L106.077 117.729C107.023 117.499 107.679 116.638 107.651 115.664L107.061 95.5846C107.023 94.2964 105.825 93.3578 104.567 93.6374C99.6348 94.7336 95.2706 95.8214 91.5108 96.8688L70.635 102.684C69.4079 103.026 68.1673 102.185 68.0309 100.918L63.7621 61.289Z" fill="white"/>
<path d="M91.5108 96.8688L92.8527 101.685L91.5108 96.8688ZM70.635 102.684L69.2932 97.8678L70.635 102.684ZM68.0309 100.918L63.0597 101.454L68.0309 100.918ZM107.061 95.5846L112.058 95.4377L107.061 95.5846ZM106.077 117.729L104.894 112.871L106.077 117.729ZM107.651 115.664L102.653 115.811L107.651 115.664ZM23.1965 137.906L24.3792 142.764L23.1965 137.906ZM38.4042 95.9912L40.967 91.698L38.4042 95.9912ZM39.1881 98.6919L43.6513 100.946L39.1881 98.6919ZM61.2212 59.5065L60.0328 54.6498L61.2212 59.5065ZM63.7621 61.289L68.7334 60.7535L63.7621 61.289ZM60.0328 54.6498L5.38656 68.0217L7.76343 77.7351L62.4097 64.3632L60.0328 54.6498ZM3.44526 80.946L35.8414 100.284L40.967 91.698L8.57087 72.3595L3.44526 80.946ZM34.7249 96.4381L16.4044 132.719L25.3308 137.226L43.6513 100.946L34.7249 96.4381ZM24.3792 142.764L107.26 122.587L104.894 112.871L22.0138 133.048L24.3792 142.764ZM112.649 115.517L112.058 95.4377L102.063 95.7315L102.653 115.811L112.649 115.517ZM103.483 88.7564C98.4784 89.8686 94.0272 90.9774 90.169 92.0522L92.8527 101.685C96.514 100.665 100.791 99.5986 105.652 98.5183L103.483 88.7564ZM90.169 92.0522L69.2932 97.8678L71.9769 107.501L92.8527 101.685L90.169 92.0522ZM73.0022 100.383L68.7334 60.7535L58.7909 61.8245L63.0597 101.454L73.0022 100.383ZM69.2932 97.8678C71.041 97.3809 72.8078 98.579 73.0022 100.383L63.0597 101.454C63.5268 105.791 67.7748 108.672 71.9769 107.501L69.2932 97.8678ZM112.058 95.4377C111.929 91.036 107.828 87.7907 103.483 88.7564L105.652 98.5183C103.823 98.9248 102.116 97.5569 102.063 95.7315L112.058 95.4377ZM107.26 122.587C110.5 121.798 112.747 118.851 112.649 115.517L102.653 115.811C102.612 114.425 103.547 113.199 104.894 112.871L107.26 122.587ZM16.4044 132.719C13.6879 138.098 18.5237 144.19 24.3792 142.764L22.0138 133.048C24.4493 132.455 26.4607 134.989 25.3308 137.226L16.4044 132.719ZM35.8414 100.284C34.5173 99.4941 34.0298 97.8146 34.7249 96.4381L43.6513 100.946C45.3224 97.6364 44.1503 93.5982 40.967 91.698L35.8414 100.284ZM5.38656 68.0217C-0.749146 69.5231 -1.97861 77.7083 3.44526 80.946L8.57087 72.3595C10.8268 73.7062 10.3154 77.1107 7.76343 77.7351L5.38656 68.0217ZM62.4097 64.3632C60.6839 64.7855 58.9812 63.591 58.7909 61.8245L68.7334 60.7535C68.2759 56.5064 64.1821 53.6345 60.0328 54.6498L62.4097 64.3632Z" fill="black" mask="url(#path-21-outside-3_163_558)"/>
<mask id="path-23-outside-4_163_558" maskUnits="userSpaceOnUse" x="375.348" y="53.6502" width="113" height="90" fill="black">
<rect fill="white" x="375.348" y="53.6502" width="113" height="90"/>
<path fill-rule="evenodd" clip-rule="evenodd" d="M380.92 96.2149C380.957 94.9564 382.103 94.0242 383.342 94.2479C388.395 95.1604 393.477 96.1233 398.584 97.1385L419.691 101.334C420.904 101.575 422.055 100.702 422.15 99.4689L425.064 61.5555C425.161 60.2863 426.374 59.4075 427.61 59.7101L481.424 72.8783C483.216 73.3168 483.575 75.7072 481.991 76.6527L449.595 95.9912C448.665 96.5461 448.323 97.7254 448.811 98.6918L467.132 134.972C467.925 136.543 466.513 138.322 464.803 137.906L381.922 117.729C380.976 117.498 380.32 116.638 380.349 115.664L380.92 96.2149Z"/>
</mask>
<path fill-rule="evenodd" clip-rule="evenodd" d="M380.92 96.2149C380.957 94.9564 382.103 94.0242 383.342 94.2479C388.395 95.1604 393.477 96.1233 398.584 97.1385L419.691 101.334C420.904 101.575 422.055 100.702 422.15 99.4689L425.064 61.5555C425.161 60.2863 426.374 59.4075 427.61 59.7101L481.424 72.8783C483.216 73.3168 483.575 75.7072 481.991 76.6527L449.595 95.9912C448.665 96.5461 448.323 97.7254 448.811 98.6918L467.132 134.972C467.925 136.543 466.513 138.322 464.803 137.906L381.922 117.729C380.976 117.498 380.32 116.638 380.349 115.664L380.92 96.2149Z" fill="white"/>
<path d="M398.584 97.1385L397.61 102.043H397.61L398.584 97.1385ZM381.922 117.729L383.105 112.871L381.922 117.729ZM380.349 115.664L375.351 115.517L380.349 115.664ZM467.132 134.972L471.595 132.718L467.132 134.972ZM464.803 137.906L463.62 142.764L464.803 137.906ZM449.595 95.9912L452.158 100.284L449.595 95.9912ZM448.811 98.6918L453.274 96.438L448.811 98.6918ZM481.424 72.8783L480.236 77.7351L481.424 72.8783ZM481.991 76.6527L479.428 72.3595L481.991 76.6527ZM425.064 61.5555L420.078 61.1723L425.064 61.5555ZM427.61 59.7101L426.422 64.5668L427.61 59.7101ZM419.691 101.334L420.666 96.4297L419.691 101.334ZM422.15 99.4689L417.165 99.0857L422.15 99.4689ZM383.342 94.2479L382.454 99.1684L383.342 94.2479ZM399.559 92.2344C394.423 91.2135 389.312 90.2451 384.231 89.3275L382.454 99.1684C387.478 100.076 392.531 101.033 397.61 102.043L399.559 92.2344ZM420.666 96.4297L399.559 92.2344L397.61 102.043L418.717 106.238L420.666 96.4297ZM420.078 61.1723L417.165 99.0857L427.135 99.852L430.049 61.9386L420.078 61.1723ZM426.422 64.5668L480.236 77.7351L482.613 68.0216L428.799 54.8534L426.422 64.5668ZM479.428 72.3595L447.032 91.6979L452.158 100.284L484.554 80.946L479.428 72.3595ZM444.348 100.946L462.668 137.226L471.595 132.718L453.274 96.438L444.348 100.946ZM465.985 133.048L383.105 112.871L380.74 122.587L463.62 142.764L465.985 133.048ZM385.346 115.811L385.918 96.3617L375.922 96.068L375.351 115.517L385.346 115.811ZM383.105 112.871C384.453 113.199 385.387 114.425 385.346 115.811L375.351 115.517C375.253 118.851 377.5 121.798 380.74 122.587L383.105 112.871ZM462.668 137.226C461.539 134.989 463.55 132.455 465.985 133.048L463.62 142.764C469.476 144.19 474.311 138.098 471.595 132.718L462.668 137.226ZM447.032 91.6979C443.849 93.5981 442.677 97.6363 444.348 100.946L453.274 96.438C453.969 97.8145 453.482 99.4941 452.158 100.284L447.032 91.6979ZM480.236 77.7351C477.684 77.1106 477.172 73.7061 479.428 72.3595L484.554 80.946C489.978 77.7083 488.748 69.523 482.613 68.0216L480.236 77.7351ZM430.049 61.9386C429.91 63.7462 428.183 64.9977 426.422 64.5668L428.799 54.8534C424.565 53.8174 420.412 56.8263 420.078 61.1723L430.049 61.9386ZM418.717 106.238C422.87 107.063 426.811 104.074 427.135 99.852L417.165 99.0857C417.3 97.3297 418.939 96.0863 420.666 96.4297L418.717 106.238ZM384.231 89.3275C379.974 88.5588 376.049 91.7627 375.922 96.068L385.918 96.3617C385.865 98.1501 384.233 99.4897 382.454 99.1684L384.231 89.3275Z" fill="black" mask="url(#path-23-outside-4_163_558)"/>
<path d="M90.5444 38.7643C93.0808 36.2004 94.5663 34.8644 95.0011 34.7563C95.4359 34.6482 96.2536 35.0363 97.4544 35.9207C98.6824 36.7983 99.4079 37.6854 99.6308 38.5821L102.782 51.2584C102.829 51.4486 101.874 52.2488 99.9164 53.6589C97.9859 55.0622 96.3682 56.157 95.0634 56.9431L96.0867 61.0599C96.3366 62.0653 96.6243 62.7583 96.9498 63.139C97.2752 63.5198 97.7776 63.6256 98.4569 63.4567L98.771 64.7203L91.2869 70.3034L90.3105 69.1613C90.9083 69.0126 91.3911 68.5175 91.759 67.6758C92.0792 66.8749 92.0671 65.7815 91.7226 64.3956L86.4741 43.2821C86.062 41.6245 85.272 40.8256 84.1039 40.8852L83.881 39.9885L87.42 36.6415C88.0175 36.7237 88.6589 36.9826 89.3442 37.4181C90.0295 37.8536 90.4296 38.3023 90.5444 38.7643ZM92.4278 39.551C91.9387 39.6726 91.4595 40.0082 90.9902 40.5577L94.5871 55.0274C95.2936 54.8517 96.0276 54.4384 96.789 53.7874C97.5437 53.1092 97.8602 52.5256 97.7387 52.0365L95.2563 42.0503C94.7564 40.0395 93.8136 39.2064 92.4278 39.551Z" fill="black"/>
<path d="M118.326 43.725L120.817 55.3469C121.034 56.3599 121.351 57.0365 121.768 57.3767C122.179 57.6896 122.744 57.8547 123.463 57.8722L123.657 58.7757L119.718 62.2408C119.063 62.1235 118.416 61.8469 117.779 61.4109C117.135 60.9475 116.764 60.4831 116.664 60.0177L112.121 63.8701C112.027 63.833 111.889 63.791 111.707 63.7441C111.519 63.6698 111.188 63.5261 110.713 63.313C110.259 63.0667 109.843 62.7978 109.466 62.5065C108.451 61.7792 107.82 60.8406 107.574 59.6907L106.13 52.9557C106.036 52.5177 106.627 51.8038 107.904 50.814C109.181 49.8242 110.484 48.9577 111.814 48.2143L113.841 47.0493C113.506 45.4888 112.864 44.4954 111.913 44.0693C110.957 43.6157 109.302 43.6414 106.947 44.1464L106.683 42.9144C110.604 40.4985 112.824 39.2348 113.344 39.1232C114.248 38.9294 115.236 39.3331 116.31 40.3342C117.384 41.3353 118.056 42.4656 118.326 43.725ZM112.185 57.1554C112.337 57.8672 112.669 58.4118 113.179 58.7892C113.711 59.1333 114.237 59.2496 114.757 59.138C115.278 59.0264 115.781 58.7037 116.268 58.1697L114.278 48.8886C113.647 49.2817 113.17 49.5986 112.85 49.8392C112.556 50.074 112.256 50.4104 111.949 50.8485C111.378 51.6582 111.266 52.8708 111.612 54.4861L112.185 57.1554Z" fill="black"/>
<path d="M129.826 53.6196C129.951 54.3366 130.262 54.8933 130.758 55.2896C131.277 55.6534 131.798 55.7894 132.322 55.6975C132.846 55.6056 133.361 55.3019 133.868 54.7867L131.612 41.9209C131.317 40.2386 130.584 39.3863 129.415 39.364L129.255 38.4539L133.02 35.3629C133.67 35.5047 134.308 35.8192 134.934 36.3064C135.554 36.7661 135.908 37.2441 135.995 37.7406L138.455 51.7646C138.614 52.6747 138.945 53.4268 139.447 54.021C139.95 54.6152 140.49 54.8615 141.069 54.7599L141.229 55.67C141.041 55.7314 139.685 56.8363 137.163 58.9845C136.48 58.82 135.831 58.5217 135.215 58.0896C134.622 57.6251 134.281 57.1447 134.194 56.6483L129.509 60.3271C129.417 60.2865 129.281 60.2393 129.101 60.1856C128.916 60.1043 128.59 59.9483 128.123 59.7175C127.679 59.4543 127.274 59.17 126.908 58.8647C125.921 58.0997 125.326 57.1381 125.123 55.9797L122.924 43.445C122.658 41.9281 121.825 41.1503 120.426 41.1116L120.266 40.2015L124.333 36.887C124.983 37.0287 125.621 37.3432 126.246 37.8305C126.867 38.2901 127.221 38.7682 127.308 39.2646L129.826 53.6196Z" fill="black"/>
<path d="M146.782 37.2777C146.255 37.3498 145.744 37.6457 145.25 38.1654L147.508 54.6859C148.229 54.5872 149.002 54.2414 149.825 53.6484C150.648 53.0554 151.024 52.4954 150.952 51.9683L149.325 40.0669C149.044 38.014 148.197 37.0843 146.782 37.2777ZM143.463 62.6151L140.471 40.7265C140.384 40.0885 140.118 39.4889 139.674 38.9279C139.258 38.3631 138.725 38.0827 138.075 38.0867L137.95 37.1713C138.141 37.117 139.537 36.0641 142.139 34.0126C142.815 34.2028 143.44 34.5412 144.016 35.0277C144.615 35.4828 144.947 35.9461 145.011 36.4177C147.729 34.1808 149.338 33.0282 149.837 32.96C150.031 32.9334 150.422 33.106 151.01 33.4778C151.622 33.8181 152.248 34.3683 152.889 35.1285C153.554 35.8572 153.945 36.6515 154.063 37.5115L156.088 52.3258C156.114 52.52 154.959 53.2714 152.623 54.58C150.311 55.857 148.7 56.6849 147.791 57.0635L148.001 58.6032C148.233 60.2955 148.932 61.1748 150.1 61.2412L150.225 62.1567L146.346 65.1034C145.702 64.9371 145.076 64.5988 144.47 64.0883C143.867 63.6055 143.531 63.1144 143.463 62.6151Z" fill="black"/>
<path d="M168.771 30.7934C168.911 30.7794 169.281 30.9675 169.883 31.3576C170.482 31.7198 171.099 32.263 171.734 32.9874C172.367 33.684 172.719 34.3944 172.792 35.1188L173.493 42.1398C173.544 42.6413 172.867 43.3281 171.462 44.2002C170.058 45.0722 168.683 45.8147 167.337 46.4277C166.017 47.01 165.301 47.3067 165.189 47.3179C165.404 49.4632 166.469 50.6932 168.386 51.0081C169.328 51.139 170.44 51.1404 171.721 51.0122L171.842 52.2242C167.426 54.2135 165.065 55.2235 164.759 55.2541C163.923 55.3377 163.015 54.8376 162.034 53.7538C161.05 52.6421 160.479 51.2923 160.321 49.7042L158.917 35.6621C158.897 35.4671 160.417 34.6257 163.476 33.1379C166.533 31.6222 168.298 30.8407 168.771 30.7934ZM167.973 37.5845C167.895 36.8044 167.648 36.1678 167.233 35.6747C166.815 35.1537 166.328 34.921 165.771 34.9767C165.213 35.0325 164.621 35.3027 163.994 35.7875L164.96 45.4414C167.397 44.4941 168.501 42.8642 168.27 40.5518L167.973 37.5845Z" fill="black"/>
<path d="M174.787 32.7421L179.22 29.9065C179.419 29.9487 179.649 30.0169 179.908 30.1111C180.193 30.1754 180.575 30.4154 181.053 30.8312C181.559 31.2449 181.831 31.7312 181.87 32.2898C182.006 32.2242 182.632 31.7454 183.749 30.8535C184.892 29.9317 185.63 29.4592 185.966 29.4358C186.859 29.3734 187.738 29.9015 188.602 31.0201C189.466 32.1386 189.932 33.1867 190 34.1643L190.144 36.2174L185.998 38.9486L185.245 38.4118C185.081 36.0655 184.764 34.7403 184.294 34.4363C183.765 34.1083 182.999 33.9794 181.993 34.0495L182.925 47.4151C183.044 49.1189 183.684 50.0426 184.845 50.1862L184.909 51.1079L180.844 53.7914C180.212 53.5829 179.611 53.2179 179.042 52.6963C178.47 52.1467 178.167 51.6206 178.132 51.1178L177.161 37.2076C177.075 35.9786 176.788 35.0724 176.298 34.4891C175.836 33.9038 175.354 33.6287 174.851 33.6638L174.787 32.7421Z" fill="black"/>
<path d="M207.263 48.0822L206.607 25.8318L207.871 24.534L205.226 24.612C203.519 24.6624 202.567 25.1527 202.37 26.0829L201.447 26.1102L198.952 22.7383C199.272 22.1966 199.692 21.708 200.212 21.2725C200.731 20.837 201.243 20.6118 201.746 20.5969L212.83 20.2698C214.537 20.2194 215.489 19.7291 215.685 18.7989L216.609 18.7717L219.104 22.1435C218.783 22.6852 218.364 23.1738 217.844 23.6093C217.325 24.0449 216.813 24.27 216.309 24.2849L211.608 24.4237L212.237 45.7504C212.267 46.786 212.401 47.5244 212.638 47.9656C212.875 48.4068 213.344 48.617 214.043 48.5964L214.082 49.8978L205.582 53.7623L204.871 52.4387C205.487 52.4205 206.064 52.0393 206.602 51.2951C207.085 50.5805 207.305 49.5096 207.263 48.0822Z" fill="black"/>
<path d="M219.016 45.9077L218.909 31.9641C218.908 31.7681 220.498 31.0698 223.681 29.8693C226.864 28.6408 228.693 28.0248 229.169 28.0211C229.645 28.0174 230.363 28.5859 231.324 29.7266C232.313 30.867 232.811 31.8992 232.818 32.8232L232.935 48.0267C232.937 48.2507 231.402 48.9766 228.331 50.2042C225.289 51.4036 223.417 52.006 222.717 52.0114C222.045 52.0166 221.257 51.4206 220.351 50.2235C219.474 49.0263 219.029 47.5876 219.016 45.9077ZM226.215 48.1204C226.747 48.1163 227.292 47.8881 227.848 47.4358L227.753 35.0462C227.737 32.9743 227.015 31.9438 225.587 31.9547C225.027 31.9591 224.483 32.1732 223.954 32.5973L224.05 45.029C224.066 47.1009 224.787 48.1314 226.215 48.1204Z" fill="black"/>
<path d="M251.747 47.8229L252.121 25.566L253.444 24.3281L250.799 24.2836C249.091 24.2548 248.117 24.7005 247.878 25.6206L246.954 25.6051L244.618 22.1213C244.963 21.595 245.405 21.1264 245.944 20.7154C246.483 20.3044 247.004 20.1032 247.508 20.1116L258.595 20.2981C260.302 20.3268 261.276 19.8812 261.516 18.9611L262.439 18.9766L264.775 22.4604C264.43 22.9867 263.988 23.4553 263.449 23.8663C262.91 24.2773 262.389 24.4785 261.885 24.4701L257.182 24.3909L256.823 45.7239C256.806 46.7598 256.905 47.5036 257.122 47.9553C257.338 48.407 257.796 48.6387 258.496 48.6505L258.474 49.9523L249.805 53.419L249.155 52.0639C249.771 52.0742 250.365 51.7202 250.937 51.0017C251.453 50.3103 251.723 49.2507 251.747 47.8229Z" fill="black"/>
<path d="M263.638 49.4588L264.266 28.6783C264.289 27.9226 264.179 27.3871 263.936 27.0716C263.694 26.7282 263.266 26.5471 262.65 26.5285L262.685 25.3531C266.381 23.5598 269.682 21.8667 272.587 20.2738L273.218 21.6374C272.934 21.7689 272.534 22.037 272.017 22.4415C271.502 22.8181 271.07 23.2113 270.721 23.6209C269.85 24.6591 269.393 25.8499 269.353 27.1932L269.245 30.7616C272.173 29.3654 273.874 28.6744 274.35 28.6888C275.246 28.7159 276.082 29.3014 276.86 30.4454C277.638 31.5894 278.007 32.8331 277.966 34.1765L277.593 46.5189C277.547 48.0582 278.205 48.9885 279.568 49.3098L279.54 50.2334L274.887 52.656C274.279 52.3855 273.717 51.9623 273.202 51.3865C272.688 50.7827 272.439 50.2289 272.454 49.7252L272.822 37.5507C272.905 34.808 272.448 33.2395 271.451 32.8452C270.98 32.6629 270.227 32.5561 269.192 32.5248L268.777 46.2525C268.726 47.9598 269.27 48.9427 270.411 49.2012L270.383 50.1248L266.071 52.3896C265.463 52.1191 264.901 51.696 264.386 51.1202C263.872 50.5164 263.623 49.9626 263.638 49.4588Z" fill="black"/>
<path d="M292.369 29.4324C292.509 29.4391 292.848 29.6795 293.386 30.1536C293.926 30.5998 294.456 31.2278 294.978 32.0376C295.502 32.8194 295.746 33.5739 295.711 34.3011L295.375 41.3491C295.351 41.8525 294.581 42.4325 293.064 43.089C291.547 43.7455 290.078 44.2781 288.657 44.6869C287.265 45.069 286.513 45.2574 286.401 45.2521C286.299 47.4056 287.172 48.7788 289.022 49.3716C289.935 49.6393 291.034 49.8039 292.32 49.8652L292.262 51.0819C287.602 52.4014 285.118 53.0538 284.811 53.0391C283.972 52.9991 283.147 52.3711 282.336 51.1551C281.526 49.9111 281.159 48.492 281.235 46.8978L281.907 32.8018C281.917 32.6061 283.543 31.9969 286.788 30.9743C290.033 29.9237 291.894 29.4097 292.369 29.4324ZM290.583 36.0328C290.62 35.2497 290.47 34.5838 290.132 34.035C289.795 33.4583 289.347 33.1566 288.787 33.13C288.228 33.1033 287.603 33.2837 286.911 33.6712L286.449 43.3622C289 42.783 290.331 41.3328 290.441 39.0114L290.583 36.0328Z" fill="black"/>
<path d="M316.921 25.5283C320.15 23.9215 321.987 23.1372 322.434 23.1754C322.88 23.2136 323.529 23.8451 324.38 25.0701C325.258 26.2974 325.658 27.3714 325.579 28.292L324.467 41.3065C324.45 41.5018 323.288 41.9504 320.98 42.6523C318.699 43.3566 316.815 43.8699 315.326 44.1922L314.965 48.4188C314.876 49.451 314.925 50.1999 315.11 50.6653C315.295 51.1308 315.736 51.3933 316.434 51.453L316.323 52.7502L307.436 55.6155L306.881 54.2191C307.495 54.2716 308.112 53.959 308.732 53.2814C309.294 52.6269 309.635 51.5882 309.757 50.1654L311.61 28.4885C311.755 26.7867 311.266 25.7753 310.141 25.4543L310.22 24.5337L314.65 22.5098C315.189 22.7807 315.713 23.2329 316.22 23.8665C316.728 24.5001 316.962 25.054 316.921 25.5283ZM318.45 26.8814C317.948 26.8385 317.386 27.0012 316.764 27.3696L315.494 42.2254C316.219 42.2874 317.048 42.1334 317.978 41.7634C318.912 41.3654 319.4 40.9154 319.443 40.4132L320.319 30.1606C320.496 28.0962 319.873 27.0031 318.45 26.8814Z" fill="black"/>
<path d="M339.697 33.3725C339.836 33.3889 340.157 33.6524 340.661 34.1629C341.168 34.6457 341.653 35.3091 342.118 36.1534C342.585 36.9698 342.776 37.7395 342.691 38.4625L341.864 45.4699C341.805 45.9704 340.996 46.4952 339.437 47.0443C337.878 47.5934 336.376 48.0222 334.93 48.3309C333.515 48.615 332.751 48.7505 332.64 48.7374C332.388 50.8785 333.163 52.3093 334.967 53.0297C335.859 53.3604 336.944 53.6013 338.223 53.7522L338.08 54.9618C333.34 55.9531 330.816 56.4306 330.51 56.3945C329.676 56.2961 328.897 55.6121 328.173 54.3424C327.452 53.045 327.185 51.6038 327.372 50.0188L329.025 36.004C329.048 35.8093 330.713 35.3151 334.021 34.5213C337.332 33.6996 339.224 33.3167 339.697 33.3725ZM337.455 39.8322C337.546 39.0536 337.443 38.3788 337.144 37.8078C336.848 37.209 336.422 36.8768 335.866 36.8112C335.309 36.7456 334.673 36.8819 333.956 37.2203L332.82 46.8555C335.405 46.4556 336.833 45.1017 337.105 42.7937L337.455 39.8322Z" fill="black"/>
<path d="M345.235 52.0059L347.461 38.2408C347.493 38.0473 349.178 37.6251 352.516 36.974C355.86 36.2952 357.766 35.9939 358.236 36.0699C358.706 36.1459 359.319 36.8266 360.076 38.1119C360.86 39.4017 361.178 40.5027 361.031 41.4149L358.603 56.4238C358.567 56.6449 356.933 57.1038 353.7 57.8004C350.5 58.4738 348.554 58.7546 347.863 58.6428C347.2 58.5355 346.522 57.816 345.83 56.4844C345.165 55.1572 344.967 53.6644 345.235 52.0059ZM351.963 55.3919C352.488 55.4769 353.063 55.343 353.687 54.9902L355.665 42.7591C355.996 40.7137 355.457 39.577 354.047 39.3489C353.494 39.2595 352.922 39.3796 352.329 39.7092L350.344 51.9817C350.014 54.0271 350.553 55.1638 351.963 55.3919Z" fill="black"/>
<path d="M373.095 42.9269C372.575 42.813 371.994 42.9148 371.351 43.2324L367.78 59.5195C368.491 59.6755 369.335 59.617 370.312 59.344C371.29 59.0709 371.835 58.6746 371.949 58.155L374.521 46.4217C374.965 44.3978 374.49 43.2328 373.095 42.9269ZM361.251 65.5692L365.982 43.9898C366.12 43.3608 366.077 42.7064 365.854 42.0267C365.657 41.353 365.254 40.9062 364.642 40.6862L364.84 39.7836C365.038 39.7983 366.711 39.291 369.861 38.2618C370.43 38.6733 370.901 39.2065 371.273 39.8615C371.679 40.4951 371.831 41.0444 371.729 41.5094C375.051 40.3461 376.958 39.8184 377.45 39.9264C377.642 39.9684 377.949 40.2652 378.373 40.8167C378.83 41.3469 379.229 42.0793 379.568 43.0138C379.941 43.9269 380.035 44.8074 379.849 45.6553L376.647 60.2603C376.605 60.4518 375.262 60.7592 372.618 61.1826C370.007 61.5846 368.21 61.8068 367.226 61.849L366.894 63.3669C366.528 65.0353 366.882 66.1018 367.955 66.5666L367.757 67.4691L363.101 68.8988C362.553 68.5207 362.082 67.9875 361.689 67.2992C361.289 66.6382 361.143 66.0615 361.251 65.5692Z" fill="black"/>
<path d="M391.313 37.7296L385.304 60.1645C384.862 61.8144 385.166 62.896 386.217 63.4096L385.978 64.3021L381.261 65.5166C380.732 65.1137 380.282 64.573 379.913 63.8943C379.551 63.1887 379.436 62.5924 379.566 62.1056L385.576 39.6706C386.018 38.0208 385.713 36.9391 384.662 36.4256L384.901 35.5331L389.618 34.3186C390.148 34.7215 390.594 35.2757 390.956 35.9814C391.325 36.66 391.444 37.2427 391.313 37.7296Z" fill="black"/>
<path d="M404.501 47.4389C404.635 47.4809 404.901 47.7997 405.301 48.3951C405.709 48.9638 406.063 49.7062 406.362 50.6222C406.669 51.5114 406.713 52.3033 406.495 52.9977L404.378 59.7285C404.226 60.2093 403.334 60.5742 401.7 60.8232C400.066 61.0722 398.51 61.2136 397.031 61.2474C395.588 61.2629 394.813 61.2538 394.706 61.2202C394.059 63.2769 394.555 64.8271 396.193 65.871C397.007 66.3621 398.029 66.8009 399.257 67.1875L398.892 68.3494C394.05 68.44 391.481 68.4391 391.188 68.3466C390.386 68.0945 389.748 67.2772 389.273 65.8949C388.806 64.4858 388.813 63.0201 389.291 61.4976L393.526 48.036C393.585 47.8491 395.313 47.6738 398.711 47.5101C402.117 47.3197 404.047 47.296 404.501 47.4389ZM401.095 53.3679C401.33 52.62 401.354 51.9377 401.166 51.3209C400.987 50.6775 400.631 50.2717 400.096 50.1036C399.562 49.9355 398.912 49.9509 398.145 50.1499L395.233 59.4047C397.847 59.4934 399.503 58.4293 400.2 56.2124L401.095 53.3679Z" fill="black"/>
<path d="M130.123 270.266C130.123 299.923 142.374 329.365 163.466 350.364C184.559 371.362 214.232 383.485 244.026 383.485C273.862 383.485 303.481 371.254 324.607 350.364C345.732 329.365 357.928 299.923 357.928 270.266V104.797C357.928 101.432 355.2 98.7034 351.835 98.703L136.218 98.6774C132.852 98.677 130.123 101.405 130.123 104.771V270.266Z" fill="white" stroke="black" stroke-width="7.29206"/>
<path d="M370.458 74.976C371.32 74.5259 372.383 74.8794 372.804 75.756L394.379 120.705C394.773 121.526 394.459 122.512 393.662 122.953L364.48 139.108C363.607 139.591 362.508 139.233 362.088 138.327L340.756 92.3377C340.369 91.5046 340.706 90.5148 341.519 90.0897L370.458 74.976Z" fill="#E0464C"/>
<path fill-rule="evenodd" clip-rule="evenodd" d="M392.829 121.449L371.254 76.5002L342.315 91.614L363.647 137.604L392.829 121.449ZM372.804 75.756C372.383 74.8794 371.32 74.5259 370.458 74.976L341.519 90.0897C340.706 90.5148 340.369 91.5046 340.756 92.3377L362.088 138.327C362.508 139.233 363.607 139.591 364.48 139.108L393.662 122.953C394.459 122.512 394.773 121.526 394.379 120.705L372.804 75.756Z" fill="black"/>
<path d="M371.7 81.0844L383.046 103.772L356.398 118.341L345.223 94.8749L371.7 81.0844Z" fill="#FE9C9C"/>
<path d="M354.678 94.9476L357.257 88.8824C359.262 87.7272 364.134 85.4167 365.853 84.5503C368.028 83.4543 370.151 88.8825 371.87 89.7489C373.589 90.6154 373.589 96.6804 373.589 97.5469C373.589 98.24 368.432 102.457 365.853 104.478H359.835L356.397 105.345C355.824 104.19 354.678 101.706 354.678 101.013V94.9476Z" fill="#9C4040"/>
<path fill-rule="evenodd" clip-rule="evenodd" d="M362.391 91.7315L360.008 88.5292L361.387 87.5026L364.162 91.2318L363.29 100.895L365.801 107.644L364.19 108.244L361.543 101.13L362.391 91.7315Z" fill="white"/>
<path d="M383.907 105.345L391.643 121.101L364.995 135.67L357.43 119.135L383.907 105.345Z" fill="#FFBCBC"/>
<path d="M368.736 78.3553C369.478 77.969 370.39 78.3394 370.653 79.1343L-nan -nanL370.653 79.1343C370.86 79.7609 370.588 80.4458 370.006 80.7583L346.461 93.4155C345.76 93.7925 344.887 93.5727 344.447 92.9086L-nan -nanL344.447 92.9086C343.943 92.1459 344.21 91.1142 345.021 90.6922L368.736 78.3553Z" fill="#FFBCBC"/>
<path d="M356.005 85.6295C-nan -nan -nan -nan 356.712 85.7335Lnan nanL356.712 85.7335C-nan -nan -nan -nan 356.587 86.6693L346.34 92.5711C345.843 92.8573 345.223 92.4986 345.223 91.9252C-nan -nan -nan -nan 345.223 91.9252Lnan nanL345.223 91.9252C-nan -nan -nan -nan 345.612 91.2701L356.005 85.6295Z" fill="#070707"/>
<path d="M382.657 112.489C-nan -nan -nan -nan 383.36 112.592Lnan nanL383.36 112.592C-nan -nan -nan -nan 383.231 113.524L363.537 124.64C363.036 124.923 362.416 124.561 362.416 123.986C-nan -nan -nan -nan 362.416 123.986Lnan nanL362.416 123.986C-nan -nan -nan -nan 362.807 123.326L382.657 112.489Z" fill="#070707"/>
<path d="M374.918 121.154C-nan -nan -nan -nan 375.624 121.258Lnan nanL375.624 121.258C-nan -nan -nan -nan 375.499 122.193L365.252 128.095C364.755 128.381 364.135 128.023 364.135 127.449C-nan -nan -nan -nan 364.135 127.449Lnan nanL364.135 127.449C-nan -nan -nan -nan 364.525 126.794L374.918 121.154Z" fill="#070707"/>
<path d="M-nan -nanL367.878 79.4318C368.12 79.3811 368.371 79.4442 368.56 79.6028L-nan -nanL368.56 79.6028C368.942 79.9238 368.942 80.5121 368.56 80.8331L-nan -nanL368.56 80.8331C368.371 80.9918 368.12 81.0548 367.878 81.0041L-nan -nanL367.878 81.0041C367.028 80.8255 367.028 79.6105 367.878 79.4318L-nan -nanZ" fill="#E0464C"/>
<path fill-rule="evenodd" clip-rule="evenodd" d="M366.085 102.503L361.971 100.015L362.86 98.5439L367.342 101.254L369.868 105.498L372.145 106.263L371.598 107.893L368.717 106.925L366.085 102.503Z" fill="white"/>
<path d="M117.116 74.9092C116.255 74.4592 115.191 74.8127 114.771 75.6893L93.1951 120.638C92.8009 121.459 93.1155 122.446 93.9125 122.887L123.094 139.041C123.967 139.525 125.067 139.166 125.486 138.261L146.819 92.2709C147.205 91.4378 146.869 90.4481 146.055 90.023L117.116 74.9092Z" fill="#4671E0"/>
<path fill-rule="evenodd" clip-rule="evenodd" d="M94.745 121.382L116.321 76.4335L145.259 91.5473L123.927 137.537L94.745 121.382ZM114.771 75.6893C115.191 74.8127 116.255 74.4592 117.116 74.9092L146.055 90.023C146.869 90.4481 147.205 91.4378 146.819 92.2709L125.486 138.261C125.067 139.166 123.967 139.525 123.094 139.041L93.9125 122.887C93.1155 122.446 92.8009 121.459 93.1951 120.638L114.771 75.6893Z" fill="black"/>
<path d="M115.874 81.0177L104.528 103.705L131.176 118.275L142.352 94.8082L115.874 81.0177Z" fill="#191B59"/>
<path fill-rule="evenodd" clip-rule="evenodd" d="M130.878 101.235C130.87 101.223 130.861 101.21 130.851 101.197C129.884 99.8112 128.131 98.1021 125.768 96.545C123.405 94.988 121.143 94.0516 119.488 93.7096C119.472 93.7063 119.457 93.7032 119.442 93.7001C119.451 93.713 119.46 93.726 119.469 93.739C120.436 95.1244 122.189 96.8335 124.552 98.3905C126.915 99.9476 129.178 100.884 130.832 101.226C130.848 101.229 130.863 101.232 130.878 101.235ZM122.661 101.262C127.927 104.733 133.316 105.847 134.696 103.751C136.077 101.655 132.926 97.1432 127.659 93.6731C122.393 90.203 117.004 89.0888 115.624 91.1846C114.243 93.2804 117.394 97.7924 122.661 101.262Z" fill="#8AE3FF"/>
<path d="M125.857 87.3898L131.099 89.963L126.961 98.3961L121.719 95.8228L125.857 87.3898Z" fill="#191B59"/>
<path d="M103.667 105.278L95.9308 121.034L122.579 135.604L130.145 119.069L103.667 105.278Z" fill="#8AABFF"/>
<path d="M118.838 78.2886C118.096 77.9023 117.184 78.2728 116.921 79.0676L-nan -nanL116.921 79.0676C116.714 79.6942 116.987 80.3792 117.568 80.6916L141.113 93.3488C141.815 93.7258 142.688 93.506 143.127 92.8419L-nan -nanL143.127 92.8419C143.631 92.0792 143.364 91.0475 142.553 90.6255L118.838 78.2886Z" fill="#8AABFF"/>
<path d="M119.534 79.4978C-nan -nan -nan -nan 118.827 79.6018Lnan nanL118.827 79.6018C-nan -nan -nan -nan 118.952 80.5376L129.199 86.4394C129.696 86.7255 130.316 86.3669 130.316 85.7935C-nan -nan -nan -nan 130.316 85.7935Lnan nanL130.316 85.7935C-nan -nan -nan -nan 129.927 85.1384L119.534 79.4978Z" fill="#070707"/>
<path d="M104.919 112.423C-nan -nan -nan -nan 104.216 112.525Lnan nanL104.216 112.525C-nan -nan -nan -nan 104.345 113.457L124.04 124.574C124.54 124.856 125.16 124.494 125.16 123.919C-nan -nan -nan -nan 125.16 123.919Lnan nanL125.16 123.919C-nan -nan -nan -nan 124.769 123.26L104.919 112.423Z" fill="#070707"/>
<path fill-rule="evenodd" clip-rule="evenodd" d="M119.125 83.7821L120.845 92.3799L119.159 92.7171L117.439 84.1193L119.125 83.7821Z" fill="#8AE3FF"/>
<path fill-rule="evenodd" clip-rule="evenodd" d="M139.123 96.8101L130.739 99.3698L130.237 97.7252L138.622 95.1654L139.123 96.8101Z" fill="#8AE3FF"/>
<path fill-rule="evenodd" clip-rule="evenodd" d="M109.569 95.1328L118.253 93.9358L118.488 95.6392L109.803 96.8362L109.569 95.1328Z" fill="#8AE3FF"/>
<path fill-rule="evenodd" clip-rule="evenodd" d="M115.206 105.159L121.275 98.8317L122.515 100.022L116.447 106.35L115.206 105.159Z" fill="#8AE3FF"/>
<path fill-rule="evenodd" clip-rule="evenodd" d="M129.352 111.67L127.173 103.177L128.838 102.75L131.017 111.242L129.352 111.67Z" fill="#8AE3FF"/>
<path d="M-nan -nanL141.81 91.5692C141.515 91.4763 141.193 91.5749 141.001 91.8172L-nan -nanL141.001 91.8172C140.785 92.089 140.785 92.4738 141.001 92.7457L-nan -nanL141.001 92.7457C141.193 92.9879 141.515 93.0865 141.81 92.9936L-nan -nanL141.81 92.9936C142.506 92.7742 142.506 91.7886 141.81 91.5692L-nan -nanZ" fill="#4671E0"/>
<path d="M-nan -nanL138.608 89.7624C138.367 89.7117 138.115 89.7748 137.926 89.9334L-nan -nanL137.926 89.9334C137.544 90.2544 137.544 90.8427 137.926 91.1637L-nan -nanL137.926 91.1637C138.115 91.3223 138.367 91.3854 138.608 91.3347L-nan -nanL138.608 91.3347C139.459 91.156 139.459 89.9411 138.608 89.7624L-nan -nanZ" fill="#4671E0"/>
<path d="M340.752 144.378H354.162L365.509 137.88L358.804 123.566L370.667 115.352L369.12 111.453L354.162 120.117" fill="black"/>
<path d="M147.166 144.378H133.756L122.409 137.88L129.114 123.566L117.251 115.352L118.798 111.453L133.756 120.117" fill="black"/>
<path d="M218.377 65.1851C217.277 67.4205 224.257 65.8436 225.117 68.2869C225.976 70.7476 232.836 116.634 232.836 116.634L228.899 120.932V132.022H247.828V67.7671C239.06 67.1086 232.011 61.7193 218.463 65.1851H218.377Z" fill="#FFF799"/>
<path d="M219.117 65.7396C218.688 65.7742 218.241 65.8435 217.828 65.9475C203.386 72.4198 211.57 83.9348 207.719 103.204L211.811 104.071C211.811 108.178 211.123 110.543 211.811 115.768C223.209 116.842 230.894 115.335 231.754 115.768C234.677 118.367 239.147 127.69 239.147 127.69L240.006 127.257C240.006 127.257 241.554 85.0092 240.35 81.5435C239.319 76.1369 233.301 71.1462 228.797 68.3389C225.771 66.814 222.16 65.4623 219.117 65.7396ZM365.838 107.918C365.494 107.901 364.807 108.057 364.119 108.403L353.631 113.723C349.333 116.322 346.411 117.882 346.411 117.882C342.284 120.135 349.677 127.396 344.004 129.527C341.425 130.532 339.018 131.606 337.299 132.074V154.948L362.228 139.716L358.273 131.416C356.382 137.308 353.288 139.214 347.786 140.254L346.926 136.788C351.396 135.401 354.319 134.379 355.523 129.527C356.21 125.888 353.803 124.155 355.351 120.863C355.523 119.996 361.712 115.82 365.838 113.221C367.214 112.354 368.589 111.678 369.105 111.332C367.901 109.478 367.214 107.97 365.838 107.918Z" fill="#F39B88"/>
<path d="M121.583 107.918C121.927 107.901 122.615 108.057 123.303 108.403L133.79 113.723C138.088 116.322 141.011 117.882 141.011 117.882C145.137 120.135 137.744 127.396 143.418 129.527C145.997 130.532 148.404 131.606 150.123 132.074V154.948L125.194 139.716L129.148 131.416C131.039 137.308 134.134 139.214 139.636 140.254L140.495 136.788C136.025 135.401 133.102 134.379 131.899 129.527C131.211 125.888 133.618 124.155 132.071 120.863C131.899 119.996 125.71 115.82 121.583 113.221C120.208 112.354 118.833 111.678 118.317 111.332C119.52 109.478 120.208 107.97 121.583 107.918Z" fill="#F39B88"/>
<path d="M229.518 64.0067C239.318 68.6855 240.693 70.5743 244.476 75.5997C246.711 80.1051 246.539 84.2641 246.539 102.286C246.539 113.896 245.507 125.004 245.679 125.524L233.988 128.816C232.957 128.47 230.894 123.115 229.003 120.863C218.687 132.646 202.922 135.904 189.03 136.944C181.19 137.983 158.565 133.305 149.487 129.319C149.487 129.319 149.023 279.369 149.006 348.355C169.017 348.355 203.059 319.326 203.059 298.896C203.059 278.102 203.059 346.969 203.059 346.969L285.738 347.316C285.738 347.316 283.507 300.795 283.507 302.702C284.536 322.524 320.793 348.816 338.863 350.435V131.572C322.874 136.978 303.962 139.041 289.348 136.095C276.798 133.842 268.201 124.311 267.342 122.405C260.809 109.062 291.239 112.371 304.306 112.371C302.586 102.494 301.039 99.8947 297.429 92.4433C290.208 79.9665 283.847 74.4213 272.156 69.2226C261.84 65.237 239.834 64.024 229.518 64.024V64.0067Z" fill="black"/>
<path d="M215.094 350.698C212.876 351.386 211.81 358.092 209.232 361.36C205.896 365.659 190.904 374.772 190.904 392.828C200.859 386.465 205.14 383.37 215.455 375.976C217.809 374.335 219.79 373.088 221.438 372.118C225.663 369.633 227.702 368.98 228.246 368.238V350.698H215.094ZM257.542 350.698C257.714 361.875 257.542 366.346 258.574 368.238C260.465 370.817 264.419 371.161 273.36 377.867C281.612 384.402 286.082 388.013 294.506 392.828C292.959 372.709 288.317 374.084 280.924 365.659C276.97 362.047 271.468 351.042 271.124 350.698H257.542Z" fill="black"/>
<path d="M233.816 80.2611C233.988 76.3621 220.578 79.3513 217.139 75.8855C215.85 80.0098 229.002 78.095 233.816 80.2611ZM222.297 88.2496C224.016 87.4032 224.876 89.1094 229.862 89.792C228.142 86.5341 225.117 84.368 221.266 85.2345C219.099 86.3089 218.24 87.6085 218.033 89.9826L222.297 88.2496Z" fill="#231F20"/>
<path d="M222.245 109.136C219.19 106.708 216.805 109.854 211.981 110.604C210.262 114.903 217.666 111.763 222.245 109.136Z" fill="#231F20"/>
<path d="M287.62 207.309C286.859 187.305 285.138 179.708 283.998 179.708C282.84 179.708 282.476 190.789 280.955 200.58C279.433 210.349 276.754 221.428 276.754 221.428L269.907 218.819C269.907 218.819 267.987 204.683 267.227 187.743C266.484 170.802 265.905 156.006 263.787 156.006C261.72 155.988 261.323 169.917 260.562 187.966C259.801 206.005 257.139 215.995 257.139 215.995L250.855 215.12C250.855 215.12 247.812 199.473 246.67 151.68C246.406 140.369 243.644 138.099 243.644 138.099C243.644 138.099 240.882 140.369 240.618 151.68C239.477 199.473 236.417 215.12 236.417 215.12L230.148 215.995C230.148 215.995 227.47 206.005 226.709 187.966C225.949 169.917 225.567 155.988 223.485 156.006C221.384 156.006 220.805 170.802 220.027 187.743C219.284 204.683 217.381 218.819 217.381 218.819L210.534 221.428C210.534 221.428 207.856 210.349 206.334 200.58C204.813 190.789 204.431 179.708 203.291 179.708C202.149 179.708 200.43 187.305 199.669 207.309C198.908 227.289 198.727 231.195 198.727 231.195C198.727 231.195 221.202 240.771 229.951 265.554C238.716 290.323 240.932 311.829 240.998 314.217C241.113 317.923 243.644 318.394 243.644 318.394C243.644 318.394 245.844 317.923 246.291 314.217C246.571 311.846 248.573 290.323 257.337 265.554C266.087 240.771 288.562 231.195 288.562 231.195C288.562 231.195 288.38 227.289 287.62 207.309Z" fill="#FFF799"/>
</svg>
