<svg width="1276" height="1154" viewBox="0 0 1276 1154" fill="none" xmlns="http://www.w3.org/2000/svg">
<path fill-rule="evenodd" clip-rule="evenodd" d="M1024.23 958.44C662.61 1023.93 358.09 985.355 254.271 959.004L207.866 947.226C204.207 946.297 200.565 948.801 200.122 952.55L183.132 1096.26C182.764 1099.37 184.761 1102.28 187.801 1103.05L235.801 1115.23C350.126 1144.25 665.342 1183.19 1037.51 1115.79L1085.61 1107.08C1088.78 1106.51 1091 1103.62 1090.73 1100.41L1078.51 955.565C1078.2 951.892 1074.79 949.284 1071.17 949.94L1024.23 958.44Z" fill="#0098D4"/>
<path fill-rule="evenodd" clip-rule="evenodd" d="M176.156 1024.28C175.721 1027.96 172.203 1030.45 168.588 1029.65L33.5263 999.518C27.8907 998.261 26.8279 990.688 31.8996 987.928L109.836 945.517C112.884 943.858 113.997 940.034 112.316 936.999L67.8761 856.772C65.2665 852.06 69.4398 846.475 74.6976 847.642L283.273 893.931C286.208 894.583 288.263 897.23 288.166 900.234L286.749 944.178C286.625 948.028 283.081 950.852 279.307 950.083C267.112 947.598 256.295 945.133 246.941 942.758L194.479 929.434C190.819 928.505 187.177 931.008 186.734 934.759L176.156 1024.28Z" fill="#0098D4"/>
<path fill-rule="evenodd" clip-rule="evenodd" d="M986.897 942.743C987.019 946.511 990.423 949.315 994.142 948.701C1006.73 946.624 1019.39 944.434 1032.11 942.129L1085.15 932.519C1088.78 931.862 1092.18 934.471 1092.49 938.144L1099.69 1023.59C1100.01 1027.36 1103.59 1029.99 1107.28 1029.16L1240.17 999.519C1245.8 998.262 1246.86 990.689 1241.79 987.929L1163.86 945.518C1160.81 943.859 1159.7 940.035 1161.38 936.999L1205.82 856.772C1208.43 852.061 1204.25 846.475 1199 847.642L990.419 893.932C987.485 894.583 985.43 897.231 985.527 900.235L986.897 942.743Z" fill="#0098D4"/>
<path d="M318.971 1087.25L325.944 1032.14C326.248 1029.74 326.001 1027.6 325.203 1025.73C324.406 1023.85 323.243 1022.82 321.715 1022.63L322.019 1020.23C322.538 1020.22 326.783 1018.5 334.756 1015.07C335.247 1015.28 335.838 1015.58 336.529 1015.96C337.229 1016.27 338.087 1017.09 339.104 1018.4C340.193 1019.72 340.641 1021.14 340.448 1022.67C340.912 1022.51 342.237 1021.97 344.421 1021.07C350.191 1018.69 353.695 1017.58 354.932 1017.74C356.241 1017.9 357.577 1018.74 358.939 1020.24C360.374 1021.75 361.377 1023.47 361.947 1025.39C362.102 1025.33 363.69 1024.76 366.711 1023.66C372.754 1021.47 376.358 1020.45 377.522 1020.6C379.85 1020.89 381.839 1022.69 383.489 1026.01C385.14 1029.32 385.804 1032.25 385.482 1034.8L378.537 1089.69C378.031 1093.69 379.514 1096.28 382.987 1097.46L382.683 1099.86L369.946 1105.01C368.428 1104.16 367.07 1102.91 365.872 1101.28C364.683 1099.58 364.171 1098.07 364.337 1096.76L371.102 1043.29C371.655 1038.92 371.309 1035.81 370.066 1033.96C368.904 1032.03 366.478 1030.77 362.786 1030.15L355.62 1086.79C355.113 1090.79 356.597 1093.38 360.069 1094.56L359.766 1096.96L347.028 1102.11C345.51 1101.26 344.153 1100.01 342.954 1098.38C341.765 1096.68 341.254 1095.17 341.419 1093.86L348.185 1040.39C348.765 1035.81 348.47 1032.59 347.299 1030.74C346.201 1028.9 343.724 1027.74 339.868 1027.25L332.785 1083.24C332.444 1085.93 332.492 1087.89 332.926 1089.13C333.361 1090.37 334.488 1091.1 336.307 1091.33L335.879 1094.72L312.32 1101.27L311.015 1097.56C312.616 1097.76 314.263 1097.01 315.958 1095.3C317.497 1093.65 318.502 1090.96 318.971 1087.25Z" fill="white"/>
<path d="M411.076 1092.04C410.903 1093.94 411.308 1095.56 412.29 1096.9C413.353 1098.17 414.577 1098.87 415.965 1099C417.353 1099.13 418.863 1098.71 420.496 1097.76L423.596 1063.69C424.001 1059.23 422.733 1056.58 419.792 1055.72L420.011 1053.31L431.643 1048.07C433.19 1048.88 434.588 1050.11 435.836 1051.77C437.091 1053.35 437.658 1054.8 437.539 1056.12L434.16 1093.26C433.941 1095.67 434.263 1097.79 435.126 1099.64C435.989 1101.48 437.187 1102.48 438.721 1102.62L438.502 1105.03C437.984 1105.05 433.801 1106.92 425.953 1110.62C424.34 1109.74 422.903 1108.54 421.641 1107.03C420.459 1105.45 419.928 1104 420.048 1102.69L405.687 1108.78C405.481 1108.61 405.169 1108.4 404.751 1108.14C404.339 1107.81 403.622 1107.19 402.6 1106.29C401.657 1105.32 400.827 1104.32 400.11 1103.3C398.138 1100.69 397.292 1097.85 397.571 1094.79L400.591 1061.59C400.956 1057.58 399.383 1055.04 395.871 1053.99L396.09 1051.58L408.638 1045.98C410.185 1046.78 411.583 1048.01 412.831 1049.67C414.086 1051.26 414.653 1052.71 414.534 1054.03L411.076 1092.04Z" fill="white"/>
<path d="M451.631 1105.28L453.998 1068.07C454.152 1065.65 453.772 1063.53 452.859 1061.71C451.946 1059.89 450.722 1058.93 449.185 1058.83L449.338 1056.42C449.855 1056.38 453.986 1054.4 461.73 1050.48C462.233 1050.66 462.841 1050.92 463.554 1051.26C464.272 1051.53 465.179 1052.28 466.276 1053.53C467.446 1054.78 467.982 1056.17 467.884 1057.71C468.337 1057.52 469.625 1056.9 471.749 1055.86C477.36 1053.13 480.678 1051.8 481.703 1051.86C484.045 1052.01 486.142 1053.69 487.996 1056.89C489.85 1060.1 490.695 1062.98 490.532 1065.54L488.416 1098.8C488.16 1102.83 489.802 1105.32 493.341 1106.28L493.188 1108.7L480.796 1114.63C479.228 1113.87 477.795 1112.71 476.498 1111.16C475.205 1109.54 474.6 1108.07 474.684 1106.75L476.709 1074.91C476.97 1070.81 476.692 1067.67 475.876 1065.49C475.137 1063.24 473.597 1062.04 471.255 1061.89L467.591 1062.32L465.363 1097.34C465.079 1101.8 466.418 1104.42 469.382 1105.2L469.228 1107.61L457.743 1113.17C456.174 1112.4 454.742 1111.25 453.444 1109.7C452.151 1108.07 451.547 1106.6 451.631 1105.28Z" fill="white"/>
<path d="M515.504 1061.12L513.778 1100.02C513.58 1104.49 514.97 1107.08 517.948 1107.8L517.84 1110.22L506.463 1115.99C504.881 1115.26 503.426 1114.13 502.099 1112.6C500.776 1111 500.143 1109.54 500.201 1108.22L501.927 1069.32C502.125 1064.85 500.736 1062.26 497.758 1061.54L497.865 1059.12L509.242 1053.35C510.825 1054.08 512.278 1055.25 513.601 1056.85C514.928 1058.37 515.563 1059.8 515.504 1061.12ZM501.609 1039.25L501.907 1032.55C501.917 1032.33 503.448 1031.73 506.5 1030.77C509.629 1029.73 511.413 1029.22 511.853 1029.24C512.366 1029.27 513.034 1029.92 513.858 1031.2C514.755 1032.49 515.174 1033.79 515.116 1035.11L514.76 1043.14C514.75 1043.36 513.254 1043.99 510.272 1045.03C507.293 1046 505.473 1046.47 504.814 1046.44C504.155 1046.41 503.413 1045.75 502.589 1044.47C501.842 1043.11 501.515 1041.37 501.609 1039.25Z" fill="white"/>
<path d="M546.655 1065.45C545.922 1065.43 545.253 1065.78 544.648 1066.5L543.891 1096.85C543.75 1102.49 546.082 1106.04 550.888 1107.48C553.366 1108.12 556.327 1108.49 559.773 1108.58L559.693 1111.77C547.57 1115.5 541.105 1117.35 540.298 1117.33C538.099 1117.28 535.902 1115.68 533.706 1112.55C531.512 1109.34 530.467 1105.65 530.571 1101.47L531.493 1064.52C531.506 1064.01 535.73 1062.31 544.164 1059.44C552.673 1056.5 557.551 1055.05 558.797 1055.08C559.237 1055.09 559.724 1056.16 560.257 1058.3C560.791 1060.44 561.387 1063.03 562.045 1066.05C562.776 1069.08 563.527 1071.33 564.297 1072.82C565.141 1074.23 566.737 1074.97 569.083 1075.03L569.028 1077.23C567.397 1077.92 564.615 1079.17 560.682 1080.98C556.824 1082.72 554.748 1083.58 554.455 1083.58C553.355 1083.55 552.037 1080.55 550.499 1074.57C548.963 1068.51 547.681 1065.47 546.655 1065.45Z" fill="white"/>
<path d="M584.934 1110.84L584.919 1056.39C584.919 1054.41 584.588 1053.01 583.928 1052.21C583.268 1051.33 582.131 1050.89 580.518 1050.89L580.517 1047.81C590.049 1042.82 598.554 1038.12 606.033 1033.72L607.794 1037.24C607.061 1037.61 606.034 1038.34 604.715 1039.44C603.395 1040.47 602.295 1041.53 601.416 1042.63C599.216 1045.42 598.117 1048.57 598.118 1052.09L598.121 1061.44C605.673 1057.55 610.073 1055.61 611.319 1055.61C613.666 1055.61 615.903 1057.08 618.03 1060.01C620.158 1062.94 621.222 1066.17 621.223 1069.69L621.232 1102.03C621.233 1106.06 623.03 1108.44 626.624 1109.18L626.625 1111.6L614.636 1118.31C613.023 1117.65 611.519 1116.59 610.125 1115.12C608.732 1113.58 608.035 1112.15 608.034 1110.83L608.026 1078.93C608.024 1071.74 606.703 1067.67 604.062 1066.72C602.815 1066.28 600.835 1066.06 598.122 1066.06L598.132 1102.03C598.133 1106.51 599.637 1109.04 602.644 1109.62L602.645 1112.04L591.536 1118.32C589.923 1117.66 588.419 1116.59 587.025 1115.13C585.632 1113.59 584.935 1112.16 584.934 1110.84Z" fill="white"/>
<path d="M682.133 1042.94C681.4 1042.97 680.755 1043.36 680.197 1044.11L681.326 1073.13L696.824 1072.53L696.927 1075.17L691.538 1078.13L681.535 1078.52L681.963 1089.51C682.279 1097.64 683.271 1102.38 684.937 1103.71C687.435 1105.66 690.118 1106.73 692.988 1106.91C695.857 1107.1 698.94 1107.12 702.238 1107L702.362 1110.18C701.995 1110.2 699.324 1111.33 694.348 1113.58C689.368 1115.75 686.329 1116.86 685.23 1116.9C682.958 1116.99 679.739 1115.36 675.572 1112C671.478 1108.63 669.351 1104.9 669.192 1100.8L666.943 1042.98C666.923 1042.47 671.03 1040.51 679.264 1037.11C687.568 1033.63 692.343 1031.86 693.589 1031.81C694.029 1031.8 694.583 1032.84 695.252 1034.94C695.921 1037.04 696.68 1039.58 697.53 1042.56C698.453 1045.53 699.346 1047.74 700.209 1049.17C701.142 1050.53 702.781 1051.16 705.126 1051.07L705.212 1053.27C703.628 1054.06 700.932 1055.49 697.122 1057.55C693.383 1059.53 691.367 1060.52 691.073 1060.53C689.974 1060.58 688.467 1057.66 686.55 1051.79C684.631 1045.85 683.159 1042.9 682.133 1042.94Z" fill="white"/>
<path d="M736.172 1029.63C738.148 1029.51 741.557 1034.11 746.4 1043.44C751.242 1052.76 753.778 1059.25 754.006 1062.91L756.093 1096.4C756.198 1098.08 756.739 1099.7 757.718 1101.25C758.77 1102.8 760.144 1103.64 761.841 1103.75L761.992 1106.17C761.484 1106.27 757.634 1108.75 750.442 1113.61C748.713 1112.98 747.11 1112.02 745.633 1110.71C744.224 1109.33 743.481 1108.02 743.404 1106.77C735.873 1112.09 731.449 1114.79 730.132 1114.88C729.619 1114.91 728.597 1114.42 727.065 1113.41C725.601 1112.33 724.071 1110.77 722.475 1108.74C720.948 1106.63 720.113 1104.44 719.972 1102.17L717.53 1062.98C717.484 1062.25 723.511 1059.34 735.611 1054.25C732.616 1048.63 730.241 1044.7 728.484 1042.46C726.728 1040.22 725.082 1039.14 723.545 1039.24L719.922 1039.46L719.716 1036.17C727.613 1032.01 733.098 1029.83 736.172 1029.63ZM738.944 1104.19C740.335 1104.1 741.725 1103.43 743.116 1102.16L740.735 1063.96C740.708 1063.52 740.322 1062.62 739.576 1061.27C738.899 1059.85 738.415 1059.14 738.122 1059.16C735.999 1059.29 733.881 1060.09 731.768 1061.54L730.711 1062.27L732.839 1096.41C733.176 1101.83 735.211 1104.42 738.944 1104.19Z" fill="white"/>
<path d="M786.074 1055.6L789.244 1094.41C789.609 1098.86 791.313 1101.26 794.357 1101.6L794.554 1104.02L783.992 1111.17C782.33 1110.64 780.745 1109.71 779.237 1108.36C777.723 1106.94 776.912 1105.57 776.805 1104.25L773.635 1065.44C773.27 1060.98 771.566 1058.58 768.522 1058.24L768.325 1055.83L778.887 1048.68C780.549 1049.2 782.137 1050.18 783.651 1051.6C785.159 1052.95 785.967 1054.28 786.074 1055.6ZM769.545 1035.64L768.999 1028.96C768.981 1028.74 770.426 1027.96 773.333 1026.62C776.307 1025.2 778.013 1024.47 778.452 1024.43C778.964 1024.39 779.709 1024.96 780.687 1026.13C781.739 1027.29 782.318 1028.53 782.426 1029.85L783.08 1037.85C783.098 1038.07 781.692 1038.88 778.864 1040.29C776.03 1041.63 774.284 1042.32 773.627 1042.37C772.969 1042.43 772.151 1041.87 771.172 1040.7C770.261 1039.45 769.718 1037.76 769.545 1035.64Z" fill="white"/>
<path d="M814.644 1034.03L815.886 1047.06L821.47 1046.53L820.887 1052L816.397 1052.43L820.132 1091.63C820.556 1096.08 822.293 1098.46 825.342 1098.76L825.571 1101.17L815.106 1108.46C813.437 1107.96 811.84 1107.04 810.314 1105.72C808.781 1104.32 807.952 1102.96 807.826 1101.64L803.267 1053.79L798.777 1054.22L799.434 1049.51C801.624 1049.31 804.113 1047.6 806.901 1044.38C809.755 1041.09 811.314 1037.74 811.578 1034.32L814.644 1034.03Z" fill="white"/>
<path d="M840.86 1050.37L845.023 1089.08C845.501 1093.53 847.266 1095.89 850.318 1096.15L850.577 1098.55L840.201 1105.98C838.526 1105.49 836.918 1104.6 835.376 1103.29C833.826 1101.9 832.98 1100.56 832.839 1099.24L828.677 1060.53C828.199 1056.08 826.433 1053.73 823.381 1053.46L823.123 1051.06L833.499 1043.64C835.173 1044.12 836.786 1045.05 838.336 1046.43C839.878 1047.74 840.719 1049.05 840.86 1050.37ZM823.826 1030.85L823.109 1024.17C823.085 1023.96 824.51 1023.14 827.382 1021.72C830.318 1020.23 832.006 1019.46 832.443 1019.41C832.954 1019.35 833.713 1019.9 834.721 1021.05C835.802 1022.18 836.413 1023.41 836.554 1024.72L837.413 1032.7C837.436 1032.92 836.052 1033.77 833.261 1035.25C830.462 1036.66 828.735 1037.4 828.079 1037.47C827.422 1037.54 826.59 1037 825.582 1035.86C824.639 1034.63 824.054 1032.96 823.826 1030.85Z" fill="white"/>
<path d="M861.228 1087.63L856.658 1051.4C856.594 1050.89 860.517 1048.59 868.425 1044.48C876.325 1040.31 880.894 1038.14 882.13 1037.99C883.367 1037.83 885.411 1039.09 888.261 1041.76C891.183 1044.42 892.796 1046.95 893.099 1049.36L898.081 1088.86C898.154 1089.44 894.387 1091.8 886.778 1095.94C879.233 1100 874.551 1102.14 872.732 1102.37C870.986 1102.59 868.751 1101.28 866.028 1098.45C863.378 1095.6 861.778 1092 861.228 1087.63ZM880.633 1091.17C882.015 1091 883.361 1090.24 884.669 1088.89L880.609 1056.7C879.93 1051.31 877.735 1048.85 874.025 1049.32C872.57 1049.51 871.22 1050.23 869.975 1051.5L874.049 1083.8C874.728 1089.18 876.922 1091.64 880.633 1091.17Z" fill="white"/>
<path d="M922.72 1088.34L917.137 1051.47C916.775 1049.07 915.954 1047.08 914.676 1045.5C913.397 1043.91 911.997 1043.23 910.474 1043.46L910.112 1041.07C910.608 1040.92 914.225 1038.11 920.962 1032.64C921.491 1032.71 922.141 1032.83 922.91 1033.01C923.668 1033.12 924.715 1033.67 926.05 1034.65C927.459 1035.63 928.278 1036.87 928.509 1038.4C928.911 1038.11 930.039 1037.24 931.894 1035.77C936.798 1031.91 939.758 1029.91 940.773 1029.75C943.093 1029.4 945.499 1030.6 947.99 1033.33C950.481 1036.07 951.919 1038.71 952.303 1041.25L957.293 1074.2C957.897 1078.19 960.03 1080.28 963.693 1080.46L964.055 1082.86L953.205 1091.29C951.511 1090.87 949.865 1090.05 948.268 1088.81C946.66 1087.49 945.757 1086.18 945.559 1084.88L940.784 1053.34C940.169 1049.28 939.231 1046.27 937.97 1044.31C936.771 1042.26 935.011 1041.42 932.691 1041.77L929.2 1042.96L934.454 1077.66C935.123 1082.08 936.988 1084.36 940.049 1084.49L940.411 1086.88L930.365 1094.74C928.671 1094.33 927.026 1093.51 925.428 1092.26C923.82 1090.95 922.917 1089.64 922.72 1088.34Z" fill="white"/>
<path fill-rule="evenodd" clip-rule="evenodd" d="M1042.23 240.825C664.772 165.857 346.915 210.013 238.548 240.178L189.149 253.929C185.877 254.84 182.57 252.597 182.205 249.22L164.121 81.4614C163.833 78.7861 165.522 76.295 168.114 75.5734L219.269 61.3337C338.601 28.1155 667.624 -16.466 1056.09 60.6872L1107.35 70.8687C1110.08 71.4111 1111.98 73.9089 1111.77 76.6851L1098.76 245.776C1098.51 249.064 1095.44 251.392 1092.21 250.749L1042.23 240.825Z" fill="#0098D4"/>
<path fill-rule="evenodd" clip-rule="evenodd" d="M156.835 163.829C156.479 160.521 153.291 158.285 150.06 159.076L4.19501 194.762C-0.583608 195.931 -1.54104 202.306 2.68334 204.827L89.157 256.437C91.6364 257.917 92.5494 261.062 91.2476 263.639L42.3463 360.462C40.2305 364.651 43.9963 369.395 48.5564 368.285L269.773 314.441C272.296 313.826 274.046 311.531 273.97 308.935L272.394 255.346C272.293 251.911 269.1 249.408 265.746 250.153C252.58 253.079 240.931 255.982 230.896 258.777L175.173 274.297C171.901 275.209 168.593 272.965 168.229 269.588L156.835 163.829Z" fill="#0098D4"/>
<path fill-rule="evenodd" clip-rule="evenodd" d="M1003.32 257.028C1003.41 253.672 1006.47 251.186 1009.77 251.783C1023.26 254.218 1036.83 256.788 1050.46 259.497L1106.8 270.693C1110.03 271.336 1113.1 269.008 1113.35 265.72L1121.13 164.54C1121.39 161.156 1124.63 158.813 1127.92 159.619L1271.56 194.762C1276.34 195.931 1277.3 202.306 1273.08 204.827L1186.6 256.437C1184.12 257.917 1183.21 261.062 1184.51 263.639L1233.41 360.462C1235.53 364.651 1231.76 369.395 1227.2 368.285L1005.99 314.44C1003.46 313.826 1001.71 311.531 1001.79 308.935L1003.32 257.028Z" fill="#0098D4"/>
<path d="M228.545 104.68C235.309 97.8431 239.27 94.2807 240.429 93.9924C241.589 93.7042 243.77 94.7392 246.972 97.0976C250.247 99.4379 252.181 101.804 252.776 104.195L261.18 137.998C261.306 138.505 258.759 140.639 253.539 144.399C248.391 148.141 244.077 151.06 240.597 153.156L243.327 164.134C243.993 166.815 244.761 168.663 245.629 169.678C246.497 170.693 247.836 170.976 249.648 170.525L250.486 173.895L230.528 188.782L227.924 185.736C229.518 185.34 230.806 184.02 231.787 181.775C232.64 179.64 232.608 176.724 231.689 173.028L217.691 116.727C216.592 112.306 214.485 110.176 211.37 110.335L210.775 107.944L220.213 99.0188C221.806 99.2382 223.517 99.9286 225.344 101.09C227.172 102.251 228.239 103.448 228.545 104.68ZM233.568 106.778C232.263 107.102 230.985 107.997 229.734 109.462L239.327 148.047C241.211 147.579 243.169 146.477 245.199 144.741C247.212 142.933 248.056 141.376 247.731 140.072L241.111 113.443C239.777 108.081 237.263 105.859 233.568 106.778Z" fill="white"/>
<path d="M302.639 117.908L309.285 148.9C309.864 151.601 310.709 153.405 311.82 154.312C312.915 155.147 314.422 155.587 316.342 155.634L316.858 158.043L306.354 167.283C304.607 166.97 302.883 166.232 301.183 165.07C299.467 163.834 298.476 162.596 298.21 161.354L286.094 171.627C285.844 171.528 285.476 171.416 284.991 171.291C284.491 171.093 283.607 170.71 282.339 170.141C281.13 169.484 280.021 168.767 279.015 167.991C276.308 166.051 274.626 163.548 273.968 160.482L270.117 142.522C269.867 141.354 271.444 139.45 274.849 136.811C278.254 134.172 281.729 131.861 285.275 129.879L290.68 126.773C289.788 122.611 288.074 119.962 285.54 118.826C282.989 117.616 278.575 117.685 272.296 119.031L271.592 115.746C282.047 109.304 287.968 105.934 289.355 105.637C291.764 105.12 294.401 106.197 297.264 108.866C300.127 111.536 301.919 114.55 302.639 117.908ZM286.264 153.721C286.671 155.62 287.555 157.072 288.916 158.078C290.335 158.996 291.738 159.306 293.125 159.008C294.512 158.711 295.855 157.85 297.153 156.427L291.846 131.677C290.162 132.726 288.892 133.571 288.037 134.212C287.255 134.838 286.455 135.735 285.636 136.903C284.113 139.063 283.814 142.296 284.738 146.603L286.264 153.721Z" fill="white"/>
<path d="M333.308 144.293C333.644 146.205 334.473 147.69 335.795 148.746C337.178 149.717 338.568 150.079 339.966 149.834C341.363 149.589 342.737 148.78 344.088 147.406L338.07 113.097C337.283 108.611 335.331 106.338 332.212 106.279L331.787 103.852L341.826 95.6096C343.56 95.9877 345.261 96.8264 346.929 98.1257C348.584 99.3515 349.528 100.626 349.76 101.95L356.32 139.347C356.746 141.774 357.628 143.78 358.967 145.364C360.306 146.949 361.748 147.606 363.293 147.335L363.718 149.762C363.216 149.925 359.602 152.872 352.874 158.6C351.054 158.161 349.322 157.366 347.68 156.213C346.098 154.975 345.191 153.694 344.959 152.37L332.466 162.18C332.219 162.071 331.856 161.945 331.376 161.802C330.883 161.585 330.014 161.169 328.769 160.554C327.585 159.852 326.504 159.094 325.528 158.28C322.896 156.24 321.309 153.675 320.767 150.586L314.904 117.161C314.195 113.116 311.973 111.042 308.241 110.938L307.815 108.511L318.659 99.673C320.393 100.051 322.094 100.89 323.763 102.189C325.418 103.415 326.362 104.69 326.594 106.013L333.308 144.293Z" fill="white"/>
<path d="M378.523 100.715C377.118 100.907 375.756 101.696 374.438 103.082L380.461 147.137C382.385 146.874 384.444 145.952 386.64 144.37C388.835 142.789 389.837 141.296 389.644 139.89L385.305 108.153C384.557 102.679 382.296 100.199 378.523 100.715ZM369.674 168.281L361.694 109.912C361.461 108.21 360.753 106.611 359.569 105.115C358.459 103.609 357.037 102.861 355.306 102.872L354.972 100.431C355.48 100.286 359.203 97.4785 366.142 92.0082C367.945 92.5153 369.613 93.4177 371.147 94.7152C372.745 95.9286 373.629 97.1642 373.801 98.4218C381.049 92.457 385.339 89.3836 386.671 89.2016C387.189 89.1308 388.231 89.5911 389.799 90.5826C391.43 91.49 393.1 92.9573 394.809 94.9845C396.582 96.9276 397.625 99.0458 397.939 101.339L403.34 140.844C403.411 141.361 400.331 143.365 394.101 146.854C387.935 150.26 383.639 152.467 381.215 153.477L381.776 157.583C382.393 162.095 384.259 164.44 387.373 164.618L387.707 167.059L377.364 174.916C375.645 174.473 373.977 173.571 372.359 172.209C370.751 170.922 369.856 169.612 369.674 168.281Z" fill="white"/>
<path d="M437.175 83.4235C437.547 83.3863 438.535 83.8878 440.139 84.928C441.737 85.8939 443.382 87.3427 445.076 89.2744C446.763 91.1318 447.703 93.0264 447.896 94.9581L449.768 113.681C449.902 115.018 448.096 116.849 444.352 119.175C440.607 121.5 436.94 123.48 433.352 125.115C429.83 126.667 427.921 127.459 427.624 127.488C428.196 133.209 431.037 136.489 436.149 137.329C438.66 137.678 441.625 137.682 445.042 137.34L445.365 140.572C433.589 145.877 427.293 148.57 426.475 148.652C424.247 148.874 421.824 147.541 419.209 144.651C416.587 141.686 415.064 138.086 414.64 133.852L410.896 96.4063C410.844 95.8862 414.897 93.6425 423.055 89.6753C431.205 85.6337 435.912 83.5497 437.175 83.4235ZM435.046 101.533C434.838 99.4528 434.181 97.7551 433.074 96.4401C431.959 95.0507 430.659 94.4303 429.173 94.5789C427.687 94.7275 426.108 95.4481 424.437 96.7408L427.011 122.484C433.512 119.959 436.454 115.612 435.837 109.446L435.046 101.533Z" fill="white"/>
<path d="M453.228 88.6185L465.05 81.0573C465.582 81.1699 466.193 81.3517 466.885 81.6029C467.645 81.7744 468.663 82.4144 469.938 83.5231C471.287 84.6265 472.014 85.923 472.118 87.4128C472.48 87.2378 474.15 85.9611 477.127 83.5828C480.174 81.1247 482.145 79.8645 483.038 79.8021C485.422 79.6358 487.766 81.0441 490.07 84.027C492.373 87.0099 493.616 89.8048 493.798 92.4118L494.18 97.8865L483.124 105.17L481.116 103.738C480.679 97.4812 479.834 93.9475 478.58 93.1368C477.172 92.2621 475.127 91.9182 472.445 92.1053L474.932 127.747C475.249 132.29 476.955 134.754 480.051 135.136L480.222 137.594L469.382 144.75C467.697 144.194 466.094 143.221 464.575 141.83C463.051 140.364 462.242 138.961 462.148 137.62L459.56 100.527C459.331 97.2493 458.564 94.8328 457.258 93.2773C456.026 91.7166 454.74 90.983 453.399 91.0765L453.228 88.6185Z" fill="white"/>
<path d="M539.857 129.525L538.106 70.1903L541.478 66.7294L534.425 66.9375C529.872 67.0719 527.334 68.3793 526.809 70.8599L524.346 70.9325L517.694 61.9408C518.548 60.4964 519.667 59.1934 521.052 58.0321C522.437 56.8707 523.802 56.2702 525.145 56.2306L554.7 55.3584C559.253 55.2241 561.791 53.9166 562.316 51.4361L564.779 51.3634L571.431 60.3551C570.577 61.7996 569.458 63.1025 568.073 64.2638C566.688 65.4252 565.323 66.0257 563.98 66.0653L551.441 66.4354L553.12 123.307C553.201 126.068 553.558 128.037 554.19 129.214C554.823 130.39 556.072 130.951 557.938 130.896L558.04 134.366L535.374 144.671L533.477 141.142C535.119 141.093 536.658 140.077 538.093 138.092C539.382 136.187 539.97 133.331 539.857 129.525Z" fill="white"/>
<path d="M571.208 123.725L570.922 86.5425C570.918 86.0198 575.16 84.1578 583.648 80.9565C592.135 77.6805 597.013 76.0376 598.282 76.0279C599.551 76.0181 601.467 77.5341 604.029 80.5758C606.666 83.617 607.994 86.3695 608.013 88.8335L608.324 129.376C608.329 129.974 604.237 131.909 596.049 135.183C587.934 138.381 582.944 139.988 581.077 140.002C579.285 140.016 577.182 138.427 574.768 135.234C572.429 132.042 571.242 128.205 571.208 123.725ZM590.406 129.626C591.824 129.615 593.276 129.007 594.76 127.8L594.506 94.7615C594.464 89.2363 592.538 86.4883 588.73 86.5176C587.237 86.5291 585.786 87.1003 584.375 88.2311L584.63 121.382C584.673 126.907 586.598 129.655 590.406 129.626Z" fill="white"/>
<path d="M658.538 128.832L659.536 69.4808L663.064 66.1797L656.009 66.061C651.455 65.9844 648.859 67.1729 648.22 69.6265L645.756 69.5851L639.528 60.2951C640.448 58.8917 641.626 57.642 643.063 56.546C644.501 55.45 645.891 54.9133 647.235 54.9359L676.799 55.4331C681.353 55.5097 683.949 54.3212 684.588 51.8676L687.052 51.909L693.28 61.1991C692.36 62.6025 691.182 63.8522 689.745 64.9481C688.307 66.0441 686.917 66.5808 685.573 66.5582L673.031 66.3473L672.074 123.235C672.028 125.998 672.293 127.981 672.87 129.185C673.447 130.39 674.669 131.008 676.535 131.039L676.477 134.511L653.358 143.755L651.627 140.142C653.269 140.169 654.853 139.225 656.379 137.309C657.754 135.466 658.474 132.64 658.538 128.832Z" fill="white"/>
<path d="M690.267 133.195L691.941 77.7805C692.002 75.7654 691.709 74.3372 691.062 73.496C690.417 72.5801 689.274 72.0974 687.632 72.0478L687.727 68.9132C697.582 64.1313 706.384 59.6163 714.132 55.3683L715.815 59.0047C715.057 59.3553 713.99 60.0701 712.613 61.149C711.238 62.1533 710.086 63.2017 709.156 64.2941C706.831 67.0625 705.615 70.2379 705.507 73.8203L705.219 83.3359C713.026 79.6126 717.564 77.7701 718.833 77.8084C721.221 77.8805 723.452 79.442 725.526 82.4926C727.6 85.5433 728.583 88.8598 728.475 92.4422L727.481 125.355C727.357 129.46 729.112 131.941 732.747 132.798L732.672 135.26L720.264 141.721C718.642 140.999 717.145 139.871 715.772 138.336C714.401 136.725 713.736 135.249 713.777 133.905L714.757 101.44C714.978 94.1261 713.76 89.9435 711.102 88.8921C709.847 88.406 707.839 88.1212 705.077 88.0378L703.972 124.645C703.834 129.198 705.286 131.819 708.328 132.508L708.254 134.971L696.754 141.011C695.133 140.289 693.635 139.161 692.262 137.625C690.892 136.015 690.227 134.539 690.267 133.195Z" fill="white"/>
<path d="M766.911 79.7913C767.284 79.8091 768.188 80.4502 769.623 81.7146C771.061 82.9045 772.476 84.5791 773.868 86.7385C775.264 88.8234 775.915 90.8353 775.823 92.7745L774.927 111.569C774.863 112.912 772.808 114.458 768.763 116.209C764.718 117.959 760.8 119.38 757.011 120.47C753.299 121.489 751.294 121.991 750.996 121.977C750.722 127.72 753.052 131.382 757.985 132.963C760.418 133.677 763.349 134.115 766.78 134.279L766.625 137.523C754.198 141.042 747.575 142.782 746.754 142.743C744.517 142.636 742.317 140.961 740.154 137.719C737.995 134.401 737.017 130.617 737.219 126.366L739.012 88.7768C739.037 88.2547 743.375 86.6301 752.027 83.9031C760.682 81.1014 765.643 79.7308 766.911 79.7913ZM762.148 97.3924C762.247 95.3041 761.846 93.5283 760.944 92.065C760.045 90.5272 758.85 89.7227 757.359 89.6515C755.867 89.5804 754.2 90.0616 752.356 91.0949L751.124 116.938C757.925 115.393 761.474 111.526 761.769 105.335L762.148 97.3924Z" fill="white"/>
<path d="M832.41 69.3808C841.019 65.096 845.919 63.0045 847.11 63.1063C848.3 63.2081 850.03 64.8922 852.298 68.1587C854.641 71.4315 855.708 74.2954 855.498 76.7505L852.531 111.456C852.486 111.977 849.386 113.173 843.231 115.045C837.15 116.923 832.125 118.292 828.154 119.151L827.191 130.422C826.955 133.175 827.085 135.172 827.578 136.413C828.071 137.654 829.248 138.354 831.108 138.513L830.812 141.973L807.115 149.614L805.635 145.89C807.271 146.03 808.916 145.196 810.57 143.389C812.068 141.644 812.979 138.874 813.304 135.08L818.246 77.2749C818.634 72.7368 817.328 70.0398 814.329 69.1839L814.539 66.7288L826.353 61.3317C827.79 62.054 829.186 63.26 830.54 64.9495C831.895 66.639 832.518 68.1161 832.41 69.3808ZM836.485 72.9891C835.146 72.8746 833.648 73.3086 831.99 74.2909L828.603 113.906C830.537 114.072 832.746 113.661 835.228 112.674C837.717 111.613 839.018 110.413 839.133 109.074L841.47 81.7336C841.941 76.2284 840.279 73.3135 836.485 72.9891Z" fill="white"/>
<path d="M893.16 90.2976C893.531 90.3414 894.387 91.044 895.731 92.4054C897.082 93.6926 898.377 95.4619 899.615 97.7131C900.862 99.8902 901.372 101.943 901.144 103.871L898.94 122.557C898.782 123.892 896.625 125.291 892.467 126.756C888.31 128.22 884.303 129.364 880.446 130.187C876.673 130.945 874.638 131.306 874.341 131.271C873.668 136.981 875.736 140.796 880.547 142.717C882.924 143.599 885.818 144.241 889.229 144.643L888.848 147.869C876.206 150.513 869.477 151.786 868.662 151.69C866.437 151.428 864.359 149.604 862.428 146.218C860.505 142.758 859.793 138.915 860.292 134.688L864.701 97.3155C864.763 96.7965 869.204 95.4784 878.025 93.3614C886.854 91.1702 891.899 90.1489 893.16 90.2976ZM887.18 107.524C887.425 105.447 887.149 103.648 886.351 102.125C885.562 100.529 884.426 99.6427 882.943 99.4677C881.46 99.2927 879.763 99.6564 877.852 100.559L874.821 126.253C881.713 125.186 885.522 121.576 886.248 115.421L887.18 107.524Z" fill="white"/>
<path d="M907.926 139.985L913.864 103.279C913.948 102.763 918.441 101.636 927.345 99.8999C936.26 98.0897 941.345 97.286 942.598 97.4887C943.851 97.6914 945.486 99.5065 947.503 102.934C949.594 106.373 950.443 109.309 950.049 111.742L943.575 151.765C943.479 152.355 939.121 153.579 930.501 155.437C921.966 157.233 916.777 157.982 914.934 157.684C913.165 157.397 911.357 155.479 909.512 151.928C907.739 148.389 907.211 144.408 907.926 139.985ZM925.867 149.014C927.267 149.241 928.8 148.884 930.465 147.943L935.741 115.327C936.623 109.872 935.185 106.841 931.426 106.233C929.952 105.994 928.425 106.315 926.846 107.194L921.552 139.92C920.669 145.375 922.108 148.406 925.867 149.014Z" fill="white"/>
<path d="M982.208 115.769C980.822 115.466 979.272 115.737 977.557 116.584L968.033 160.016C969.93 160.432 972.181 160.276 974.786 159.548C977.392 158.82 978.847 157.763 979.151 156.377L986.012 125.089C987.195 119.691 985.927 116.585 982.208 115.769ZM950.622 176.149L963.24 118.605C963.608 116.927 963.494 115.182 962.897 113.37C962.374 111.573 961.298 110.382 959.668 109.795L960.196 107.388C960.722 107.427 965.185 106.074 973.584 103.33C975.101 104.427 976.357 105.849 977.35 107.595C978.432 109.285 978.837 110.75 978.565 111.989C987.424 108.887 992.51 107.48 993.823 107.768C994.334 107.88 995.154 108.671 996.284 110.142C997.502 111.556 998.565 113.509 999.471 116C1000.47 118.435 1000.72 120.783 1000.22 123.044L991.679 161.991C991.567 162.501 987.986 163.321 980.935 164.451C973.973 165.523 969.18 166.116 966.556 166.228L965.669 170.276C964.693 174.725 965.637 177.569 968.499 178.808L967.971 181.215L955.554 185.028C954.094 184.02 952.839 182.598 951.789 180.762C950.723 179 950.334 177.462 950.622 176.149Z" fill="white"/>
<path d="M1030.79 101.906L1014.77 161.733C1013.59 166.132 1014.4 169.016 1017.2 170.386L1016.56 172.766L1003.99 176.005C1002.57 174.931 1001.37 173.489 1000.39 171.679C999.426 169.797 999.117 168.207 999.465 166.909L1015.49 107.083C1016.67 102.684 1015.86 99.7993 1013.06 98.43L1013.7 96.05L1026.27 92.8109C1027.69 93.8851 1028.88 95.363 1029.84 97.2448C1030.82 99.0544 1031.14 100.608 1030.79 101.906Z" fill="white"/>
<path d="M1065.94 127.79C1066.3 127.902 1067.01 128.752 1068.08 130.34C1069.16 131.856 1070.11 133.836 1070.9 136.278C1071.72 138.65 1071.84 140.761 1071.26 142.613L1065.61 160.561C1065.21 161.844 1062.83 162.817 1058.47 163.481C1054.11 164.145 1049.96 164.522 1046.02 164.613C1042.17 164.654 1040.11 164.63 1039.82 164.54C1038.1 170.025 1039.42 174.159 1043.79 176.942C1045.96 178.251 1048.68 179.421 1051.96 180.452L1050.98 183.551C1038.07 183.793 1031.22 183.791 1030.44 183.544C1028.3 182.872 1026.6 180.693 1025.33 177.007C1024.09 173.249 1024.1 169.341 1025.38 165.281L1036.68 129.384C1036.83 128.885 1041.44 128.417 1050.5 127.981C1059.58 127.473 1064.73 127.409 1065.94 127.79ZM1056.86 143.601C1057.49 141.606 1057.55 139.787 1057.05 138.142C1056.57 136.426 1055.62 135.344 1054.2 134.896C1052.77 134.448 1051.04 134.489 1048.99 135.02L1041.23 159.699C1048.2 159.935 1052.61 157.098 1054.47 151.186L1056.86 143.601Z" fill="white"/>
<path d="M333.957 694.812C333.957 773.953 366.653 852.517 422.948 908.551C479.243 964.585 558.44 996.935 637.957 996.935C717.59 996.935 796.642 964.296 853.024 908.551C909.406 852.517 941.957 773.953 941.957 694.812V253.255C941.957 244.281 934.683 237.006 925.709 237.005L350.209 236.937C341.234 236.936 333.957 244.211 333.957 253.187V694.812Z" fill="white" stroke="black" stroke-width="19.4455"/>
<path d="M975.392 173.69C977.692 172.489 980.53 173.433 981.653 175.772L1039.24 295.715C1040.29 297.907 1039.45 300.539 1037.32 301.716L959.437 344.824C957.108 346.114 954.173 345.156 953.053 342.741L896.118 220.019C895.087 217.796 895.985 215.155 898.157 214.021L975.392 173.69Z" fill="#E0464C"/>
<path fill-rule="evenodd" clip-rule="evenodd" d="M1035.1 297.701L977.516 177.758L900.281 218.088L957.215 340.81L1035.1 297.701ZM981.653 175.772C980.53 173.433 977.692 172.489 975.392 173.69L898.157 214.021C895.985 215.155 895.087 217.796 896.118 220.019L953.053 342.741C954.173 345.156 957.108 346.114 959.437 344.824L1037.32 301.716C1039.45 300.539 1040.29 297.907 1039.24 295.715L981.653 175.772Z" fill="black"/>
<path d="M978.708 189.99L1008.99 250.531L937.867 289.409L908.041 226.79L978.708 189.99Z" fill="#FE9C9C"/>
<path d="M933.277 226.984L940.16 210.799C945.514 207.716 958.515 201.551 963.103 199.239C968.907 196.314 974.575 210.799 979.163 213.111C983.752 215.423 983.752 231.608 983.752 233.92C983.752 235.769 969.986 247.021 963.103 252.416H947.043L937.866 254.728C936.336 251.646 933.277 245.018 933.277 243.168V226.984Z" fill="#9C4040"/>
<path fill-rule="evenodd" clip-rule="evenodd" d="M953.858 218.401L947.498 209.856L951.179 207.117L958.585 217.068L956.259 242.855L962.96 260.864L958.66 262.464L951.595 243.48L953.858 218.401Z" fill="white"/>
<path d="M1011.28 254.728L1031.93 296.772L960.81 335.65L940.617 291.527L1011.28 254.728Z" fill="#FFBCBC"/>
<path d="M970.795 182.708C972.777 181.677 975.211 182.665 975.912 184.786L-nan -nanL-nan -nanL975.912 184.786C976.465 186.459 975.737 188.286 974.186 189.12L911.344 222.895C909.472 223.901 907.143 223.315 905.97 221.543L-nan -nanL-nan -nanL905.97 221.543C904.624 219.507 905.337 216.754 907.502 215.628L970.795 182.708Z" fill="#FFBCBC"/>
<path d="M936.82 202.119V202.119C-nan -nan -nan -nan 938.706 202.396Lnan nanCnan nan -nan -nan -nan -nanL-nan -nanC-nan -nan nan nan nan nanL938.706 202.396C-nan -nan -nan -nan 938.371 204.893V204.893L911.022 220.642C909.697 221.406 908.041 220.449 908.041 218.919C-nan -nan -nan -nan 908.041 218.919Lnan nanCnan nan -nan -nan -nan -nanL-nan -nanC-nan -nan nan nan nan nanL908.041 218.919C-nan -nan -nan -nan 909.081 217.17V217.17L936.82 202.119Z" fill="#070707"/>
<path d="M1007.95 273.793V273.793C-nan -nan -nan -nan 1009.83 274.067Lnan nanCnan nan -nan -nan -nan -nanL-nan -nanC-nan -nan nan nan nan nanL1009.83 274.067C-nan -nan -nan -nan 1009.48 276.554V276.554L956.919 306.218C955.582 306.972 953.928 306.006 953.928 304.471C-nan -nan -nan -nan 953.928 304.471Lnan nanCnan nan -nan -nan -nan -nanL-nan -nanC-nan -nan nan nan nan nanL953.928 304.471C-nan -nan -nan -nan 954.972 302.711V302.711L1007.95 273.793Z" fill="#070707"/>
<path d="M987.294 296.913V296.913C-nan -nan -nan -nan 989.181 297.191Lnan nanCnan nan -nan -nan -nan -nanL-nan -nanC-nan -nan nan nan nan nanL989.181 297.191C-nan -nan -nan -nan 988.846 299.688V299.688L961.497 315.437C960.171 316.2 958.516 315.243 958.516 313.713C-nan -nan -nan -nan 958.516 313.713Lnan nanCnan nan -nan -nan -nan -nanL-nan -nanC-nan -nan nan nan nan nanL958.516 313.713C-nan -nan -nan -nan 959.556 311.965V311.965L987.294 296.913Z" fill="#070707"/>
<path d="M-nan -nanL968.51 185.58C969.154 185.445 969.825 185.613 970.329 186.037L-nan -nanL-nan -nanL970.329 186.037C971.349 186.893 971.349 188.463 970.329 189.32L-nan -nanL-nan -nanL970.329 189.32C969.825 189.743 969.154 189.911 968.51 189.776L-nan -nanL-nan -nanL968.51 189.776C966.239 189.299 966.239 186.057 968.51 185.58L-nan -nanL-nan -nanZ" fill="#E0464C"/>
<path fill-rule="evenodd" clip-rule="evenodd" d="M963.721 247.146L952.74 240.507L955.114 236.58L967.077 243.813L973.818 255.136L979.895 257.177L978.434 261.527L970.745 258.944L963.721 247.146Z" fill="white"/>
<path d="M299.237 173.512C296.937 172.311 294.099 173.255 292.976 175.594L235.392 295.538C234.34 297.729 235.18 300.361 237.307 301.538L315.192 344.647C317.521 345.936 320.456 344.978 321.576 342.563L378.51 219.841C379.542 217.618 378.644 214.977 376.472 213.843L299.237 173.512Z" fill="#4671E0"/>
<path fill-rule="evenodd" clip-rule="evenodd" d="M239.529 297.524L297.113 177.58L374.348 217.91L317.414 340.632L239.529 297.524ZM292.976 175.594C294.099 173.255 296.937 172.311 299.237 173.512L376.472 213.843C378.644 214.977 379.542 217.618 378.51 219.841L321.576 342.563C320.456 344.978 317.521 345.936 315.192 344.647L237.307 301.538C235.18 300.361 234.34 297.729 235.392 295.538L292.976 175.594Z" fill="black"/>
<path d="M295.921 189.812L265.64 250.353L336.762 289.231L366.588 226.612L295.921 189.812Z" fill="#191B59"/>
<path fill-rule="evenodd" clip-rule="evenodd" d="M335.963 243.763C335.94 243.728 335.916 243.694 335.891 243.659C333.309 239.962 328.63 235.401 322.323 231.247C316.016 227.092 309.979 224.593 305.563 223.68C305.521 223.672 305.48 223.663 305.439 223.655C305.463 223.689 305.487 223.724 305.511 223.759C308.093 227.456 312.772 232.016 319.079 236.171C325.386 240.326 331.424 242.825 335.839 243.737C335.881 243.746 335.922 243.755 335.963 243.763ZM314.031 243.835C328.087 253.095 342.469 256.068 346.153 250.475C349.837 244.883 341.428 232.843 327.372 223.583C313.315 214.323 298.933 211.35 295.249 216.942C291.565 222.535 299.974 234.575 314.031 243.835Z" fill="#8AE3FF"/>
<path d="M322.566 206.816L336.557 213.683L325.513 236.186L311.522 229.32L322.566 206.816Z" fill="#191B59"/>
<path d="M263.34 254.55L242.693 296.595L313.815 335.472L334.008 291.35L263.34 254.55Z" fill="#8AABFF"/>
<path d="M303.832 182.53C301.85 181.499 299.416 182.488 298.715 184.609L-nan -nanL-nan -nanL298.715 184.609C298.162 186.281 298.89 188.109 300.441 188.942L363.283 222.718C365.154 223.723 367.484 223.137 368.657 221.365L-nan -nanL-nan -nanL368.657 221.365C370.003 219.33 369.29 216.577 367.125 215.451L303.832 182.53Z" fill="#8AABFF"/>
<path d="M305.688 185.757V185.757C-nan -nan -nan -nan 303.802 186.034Lnan nanCnan nan -nan -nan -nan -nanL-nan -nanC-nan -nan nan nan nan nanL303.802 186.034C-nan -nan -nan -nan 304.137 188.531V188.531L331.485 204.28C332.811 205.044 334.467 204.087 334.467 202.557C-nan -nan -nan -nan 334.467 202.557Lnan nanCnan nan -nan -nan -nan -nanL-nan -nanC-nan -nan nan nan nan nanL334.467 202.557C-nan -nan -nan -nan 333.426 200.808V200.808L305.688 185.757Z" fill="#070707"/>
<path d="M266.68 273.615V273.615C-nan -nan -nan -nan 264.802 273.889Lnan nanCnan nan -nan -nan -nan -nanL-nan -nanC-nan -nan nan nan nan nanL264.802 273.889C-nan -nan -nan -nan 265.147 276.377V276.377L317.71 306.04C319.047 306.794 320.701 305.829 320.701 304.294C-nan -nan -nan -nan 320.701 304.294Lnan nanCnan nan -nan -nan -nan -nanL-nan -nanC-nan -nan nan nan nan nanL320.701 304.294C-nan -nan -nan -nan 319.657 302.534V302.534L266.68 273.615Z" fill="#070707"/>
<path fill-rule="evenodd" clip-rule="evenodd" d="M304.595 197.189L309.184 220.132L304.684 221.032L300.096 198.089L304.595 197.189Z" fill="#8AE3FF"/>
<path fill-rule="evenodd" clip-rule="evenodd" d="M357.968 231.954L335.589 238.784L334.25 234.396L356.628 227.565L357.968 231.954Z" fill="#8AE3FF"/>
<path fill-rule="evenodd" clip-rule="evenodd" d="M279.09 227.478L302.268 224.284L302.895 228.83L279.717 232.024L279.09 227.478Z" fill="#8AE3FF"/>
<path fill-rule="evenodd" clip-rule="evenodd" d="M294.136 254.233L310.333 237.348L313.644 240.525L297.447 257.409L294.136 254.233Z" fill="#8AE3FF"/>
<path fill-rule="evenodd" clip-rule="evenodd" d="M331.894 271.607L326.078 248.944L330.522 247.803L336.338 270.466L331.894 271.607Z" fill="#8AE3FF"/>
<path d="M-nan -nanL365.139 217.969C364.352 217.721 363.493 217.984 362.98 218.63L-nan -nanL-nan -nanL362.98 218.63C362.404 219.356 362.404 220.383 362.98 221.108L-nan -nanL-nan -nanL362.98 221.108C363.493 221.755 364.352 222.018 365.139 221.77L-nan -nanL-nan -nanL365.139 221.77C366.998 221.184 366.998 218.554 365.139 217.969L-nan -nanL-nan -nanZ" fill="#4671E0"/>
<path d="M-nan -nanL356.596 213.147C355.951 213.012 355.281 213.18 354.777 213.604L-nan -nanL-nan -nanL354.777 213.604C353.757 214.46 353.757 216.03 354.777 216.887L-nan -nanL-nan -nanL354.777 216.887C355.281 217.31 355.951 217.478 356.596 217.343L-nan -nanL-nan -nanL356.596 217.343C358.867 216.866 358.867 213.624 356.596 213.147L-nan -nanL-nan -nanZ" fill="#4671E0"/>
<path d="M896.109 358.886H931.9L962.185 341.546L944.29 303.35L975.951 281.432L971.821 271.028L931.9 294.148" fill="black"/>
<path d="M379.434 358.886H343.643L313.358 341.546L331.253 303.35L299.592 281.432L303.722 271.028L343.643 294.148" fill="black"/>
<path d="M569.495 147.564C566.558 153.529 585.188 149.321 587.482 155.841C589.776 162.407 608.085 284.854 608.085 284.854L597.577 296.322V325.916H648.097V154.454C624.695 152.696 605.882 138.315 569.724 147.564H569.495Z" fill="#FFF799"/>
<path d="M571.467 149.043C570.32 149.136 569.127 149.321 568.026 149.598C529.481 166.869 551.323 197.597 541.045 249.017L551.966 251.329C551.966 262.288 550.13 268.6 551.966 282.542C582.388 285.409 602.899 281.386 605.193 282.542C612.994 289.478 624.924 314.356 624.924 314.356L627.219 313.2C627.219 313.2 631.348 200.464 628.136 191.215C625.383 176.788 609.323 163.471 597.301 155.979C589.225 151.91 579.589 148.303 571.467 149.043ZM963.057 261.594C962.14 261.548 960.304 261.964 958.469 262.889L930.478 277.085C919.007 284.021 911.206 288.183 911.206 288.183C900.194 294.195 919.925 313.57 904.782 319.257C897.899 321.939 891.475 324.806 886.887 326.055V387.093L953.421 346.447L942.868 324.298C937.82 340.02 929.561 345.106 914.877 347.881L912.583 338.632C924.513 334.933 932.314 332.205 935.526 319.257C937.361 309.547 930.937 304.923 935.067 296.137C935.526 293.825 952.045 282.68 963.057 275.744C966.728 273.432 970.399 271.629 971.776 270.704C968.564 265.756 966.728 261.733 963.057 261.594Z" fill="#F39B88"/>
<path d="M311.156 261.595C312.073 261.548 313.909 261.964 315.744 262.889L343.735 277.085C355.206 284.022 363.007 288.183 363.007 288.183C374.019 294.195 354.288 313.57 369.431 319.257C376.314 321.939 382.738 324.806 387.326 326.055V387.093L320.792 346.447L331.345 324.298C336.393 340.02 344.652 345.106 359.336 347.881L361.63 338.632C349.7 334.933 341.899 332.205 338.687 319.257C336.852 309.547 343.276 304.923 339.146 296.137C338.687 293.825 322.168 282.681 311.156 275.744C307.485 273.432 303.814 271.629 302.437 270.704C305.649 265.756 307.485 261.733 311.156 261.595Z" fill="#F39B88"/>
<path d="M599.227 144.419C625.382 156.904 629.053 161.945 639.148 175.355C645.113 187.377 644.654 198.475 644.654 246.566C644.654 277.548 641.901 307.188 642.36 308.576L611.158 317.361C608.405 316.437 602.898 302.148 597.851 296.137C570.319 327.581 528.242 336.274 491.166 339.049C470.242 341.823 409.856 329.338 385.629 318.702C385.629 318.702 384.39 719.105 384.344 903.192C437.752 903.192 528.609 825.729 528.609 771.213C528.609 715.723 528.609 899.493 528.609 899.493L749.274 900.417C749.274 900.417 743.32 776.28 743.32 781.367C746.065 834.262 842.835 904.421 891.062 908.741V324.714C848.388 339.141 797.913 344.644 758.91 336.783C725.413 330.771 702.471 305.339 700.176 300.252C682.74 264.646 763.958 273.479 798.831 273.479C794.242 247.121 790.113 240.185 780.477 220.301C761.204 187.007 744.227 172.21 713.024 158.338C685.493 147.702 626.759 144.465 599.227 144.465V144.419Z" fill="black"/>
<path d="M560.731 909.444C554.812 911.279 551.967 929.175 545.084 937.893C536.182 949.365 496.17 973.684 496.17 1021.86C522.738 1004.89 534.163 996.627 561.695 976.896C567.978 972.519 573.264 969.189 577.662 966.602C588.939 959.971 594.382 958.228 595.834 956.247V909.444H560.731ZM674.024 909.444C674.482 939.27 674.024 951.2 676.777 956.247C681.824 963.13 692.378 964.048 716.239 981.944C738.264 999.38 750.194 1009.02 772.678 1021.86C768.548 968.178 756.159 971.849 736.428 949.365C725.875 939.729 711.191 910.362 710.273 909.444H674.024Z" fill="black"/>
<path d="M610.7 187.793C611.159 177.389 575.368 185.366 566.191 176.117C562.75 187.123 597.852 182.013 610.7 187.793ZM579.956 209.111C584.545 206.852 586.839 211.405 600.147 213.226C595.558 204.533 587.482 198.753 577.204 201.065C571.423 203.932 569.128 207.4 568.578 213.735L579.956 209.111Z" fill="#231F20"/>
<path d="M579.817 264.846C571.664 258.367 565.297 266.761 552.423 268.762C547.835 280.233 567.595 271.854 579.817 264.846Z" fill="#231F20"/>
<path d="M754.299 526.816C752.268 473.434 747.675 453.164 744.631 453.164C741.542 453.164 740.57 482.731 736.51 508.86C732.449 534.928 725.298 564.49 725.298 564.49L707.024 557.53C707.024 557.53 701.901 519.809 699.872 474.604C697.888 429.397 696.342 389.916 690.689 389.916C685.172 389.869 684.114 427.036 682.083 475.199C680.051 523.335 672.948 549.994 672.948 549.994L656.175 547.658C656.175 547.658 648.053 505.906 645.006 378.372C644.299 348.188 636.93 342.131 636.93 342.131C636.93 342.131 629.558 348.188 628.852 378.372C625.808 505.906 617.64 547.658 617.64 547.658L600.91 549.994C600.91 549.994 593.762 523.335 591.732 475.199C589.701 427.036 588.683 389.869 583.126 389.916C577.519 389.916 575.972 429.397 573.896 474.604C571.913 519.809 566.834 557.53 566.834 557.53L548.559 564.49C548.559 564.49 541.412 534.928 537.35 508.86C533.291 482.731 532.273 453.164 529.229 453.164C526.182 453.164 521.594 473.434 519.562 526.816C517.531 580.131 517.047 590.553 517.047 590.553C517.047 590.553 577.033 616.108 600.383 682.24C623.777 748.334 629.692 805.723 629.868 812.094C630.174 821.983 636.93 823.242 636.93 823.242C636.93 823.242 642.802 821.983 643.993 812.094C644.742 805.768 650.083 748.334 673.474 682.24C696.828 616.108 756.814 590.553 756.814 590.553C756.814 590.553 756.326 580.131 754.299 526.816Z" fill="#FFF799"/>
</svg>
